<?xml version="1.0" encoding="UTF-8"?>
<!DOCTYPE svg PUBLIC "-//W3C//DTD SVG 1.1//EN" "http://www.w3.org/Graphics/SVG/1.1/DTD/svg11.dtd">
<!-- Creator: CorelDRAW X8 -->
<svg xmlns="http://www.w3.org/2000/svg" xml:space="preserve" width="210mm" height="297mm" version="1.1" style="shape-rendering:geometricPrecision; text-rendering:geometricPrecision; image-rendering:optimizeQuality; fill-rule:evenodd; clip-rule:evenodd"
viewBox="0 0 21000 29700"
 xmlns:xlink="http://www.w3.org/1999/xlink">
 <defs>
  <style type="text/css">
   <![CDATA[
    .str7 {stroke:#373435;stroke-width:84.66}
    .str3 {stroke:#373435;stroke-width:84.67}
    .str5 {stroke:#FEFEFE;stroke-width:84.67}
    .str4 {stroke:#FFD33E;stroke-width:84.67}
    .str0 {stroke:#373435;stroke-width:20}
    .str1 {stroke:#FEFEFE;stroke-width:20}
    .str6 {stroke:#FFD33E;stroke-width:20}
    .str2 {stroke:#373435;stroke-width:84.67;stroke-dasharray:84.670000 84.670000}
    .fil12 {fill:none}
    .fil16 {fill:#373435}
    .fil3 {fill:#5B3100}
    .fil7 {fill:#A56E0B}
    .fil9 {fill:#AD7808}
    .fil5 {fill:#C99705}
    .fil6 {fill:#CA9804}
    .fil8 {fill:#ECC963}
    .fil13 {fill:#FED23E}
    .fil11 {fill:#FEFEFE}
    .fil0 {fill:#FFAA01}
    .fil14 {fill:#FFD239}
    .fil15 {fill:#FFD33E}
    .fil1 {fill:#373435;fill-rule:nonzero}
    .fil10 {fill:#FEFEFE;fill-rule:nonzero}
    .fil2 {fill:#FFCB08;fill-rule:nonzero}
    .fil4 {fill:#FFD33E;fill-rule:nonzero}
   ]]>
  </style>
 </defs>
 <g id="Camada_x0020_1">
  <metadata id="CorelCorpID_0Corel-Layer"/>
  <rect class="fil0 str0" width="21000" height="29700"/>
 </g>
 <g id="Camada_x0020_1_0">
  <metadata id="CorelCorpID_1Corel-Layer"/>
  <path class="fil1" d="M8318 26242c0,93 -15,162 -47,206 -31,43 -79,65 -144,65 -64,0 -111,-23 -143,-68 -33,-46 -49,-113 -49,-203 0,-95 16,-164 47,-208 32,-44 80,-66 145,-66 63,0 111,23 143,69 32,46 48,114 48,205zm-240 -1c0,61 4,102 11,124 8,23 20,34 38,34 18,0 30,-12 38,-35 7,-23 11,-64 11,-123 0,-58 -4,-100 -11,-123 -8,-24 -21,-35 -38,-35 -18,0 -30,11 -38,34 -7,22 -11,64 -11,124zm677 -23c0,104 -22,179 -67,226 -45,46 -116,69 -215,69 -32,0 -57,-1 -74,-3l0 -114c21,4 42,6 63,6 51,0 91,-11 118,-32 28,-21 43,-55 46,-100l-5 0c-9,17 -18,30 -28,37 -9,8 -20,14 -33,18 -14,4 -30,6 -50,6 -46,0 -82,-15 -108,-46 -25,-30 -38,-73 -38,-127 0,-58 16,-104 50,-138 33,-33 79,-50 137,-50 65,0 115,22 151,65 35,43 53,104 53,183zm-200 -133c-15,0 -28,5 -38,17 -10,11 -15,29 -15,55 0,19 5,35 13,47 9,12 22,17 39,17 16,0 29,-5 41,-17 12,-11 17,-25 17,-41 0,-21 -5,-40 -16,-55 -11,-16 -24,-23 -41,-23zm925 144c0,89 -25,157 -73,205 -49,48 -118,72 -206,72l-171 0 0 -530 183 0c85,0 151,21 197,65 47,43 70,106 70,188zm-149 6c0,-49 -10,-85 -29,-108 -19,-24 -48,-36 -87,-36l-42 0 0 298 32 0c43,0 75,-13 96,-38 20,-26 30,-64 30,-116zm558 271l-314 0 0 -530 314 0 0 115 -171 0 0 83 159 0 0 115 -159 0 0 100 171 0 0 117zm244 166c-26,0 -50,-2 -74,-8l0 -111c8,2 16,3 25,5 8,2 18,3 28,3 24,0 41,-7 51,-22 10,-14 15,-38 15,-73l0 -490 144 0 0 478c0,72 -16,126 -47,163 -32,37 -79,55 -142,55zm754 -696l0 319c0,69 -19,123 -59,161 -39,38 -96,57 -170,57 -72,0 -127,-18 -166,-55 -39,-37 -58,-90 -58,-160l0 -322 144 0 0 311c0,37 7,64 21,81 14,17 34,26 62,26 29,0 50,-9 63,-26 13,-16 20,-44 20,-82l0 -310 143 0zm111 530l0 -530 144 0 0 414 204 0 0 116 -348 0zm887 0l-144 0 0 -216 -166 0 0 216 -144 0 0 -530 144 0 0 196 166 0 0 -196 144 0 0 530zm611 -266c0,89 -22,157 -66,204 -44,46 -108,69 -192,69 -83,0 -147,-23 -192,-70 -44,-46 -66,-114 -66,-203 0,-89 22,-156 66,-203 44,-46 108,-70 193,-70 84,0 148,24 191,70 44,46 66,114 66,203zm-365 0c0,102 36,154 107,154 36,0 63,-13 81,-38 17,-25 26,-63 26,-116 0,-53 -9,-92 -27,-117 -18,-26 -44,-38 -79,-38 -72,0 -108,52 -108,155z"/>
  <path class="fil1" d="M4798 27485l-26 -100 -172 0 -27 100 -158 0 173 -532 191 0 176 532 -157 0zm-56 -217l-23 -87c-5,-19 -11,-44 -19,-75 -8,-31 -13,-53 -15,-66 -2,12 -7,33 -13,61 -6,28 -21,84 -43,167l113 0zm721 -313l0 319c0,69 -20,123 -59,161 -40,38 -96,57 -170,57 -73,0 -128,-18 -167,-55 -39,-37 -58,-90 -58,-160l0 -322 144 0 0 311c0,37 7,65 21,82 14,16 35,25 62,25 29,0 50,-9 64,-25 13,-17 19,-45 19,-83l0 -310 144 0zm561 254c0,88 -25,156 -73,204 -49,48 -117,72 -206,72l-171 0 0 -530 183 0c85,0 151,22 197,65 47,44 70,106 70,189zm-149 5c0,-49 -9,-85 -29,-108 -19,-24 -48,-35 -87,-35l-42 0 0 297 32 0c44,0 75,-13 96,-38 20,-25 30,-64 30,-116zm244 271l0 -530 144 0 0 530 -144 0zm492 0l-143 0 0 -413 -130 0 0 -117 402 0 0 117 -129 0 0 413zm686 -266c0,90 -22,157 -65,204 -44,46 -108,69 -193,69 -83,0 -146,-23 -191,-70 -44,-46 -66,-114 -66,-203 0,-89 22,-156 66,-203 44,-46 108,-69 192,-69 85,0 148,23 192,69 44,46 65,114 65,203zm-365 0c0,103 36,154 107,154 37,0 64,-13 81,-38 18,-24 26,-63 26,-116 0,-53 -8,-92 -26,-117 -18,-25 -45,-38 -80,-38 -72,0 -108,52 -108,155zm23 -307l0 -10c38,-40 61,-66 71,-77 10,-12 19,-22 25,-31l155 0 0 7c-19,16 -46,35 -79,59 -34,24 -60,42 -77,52l-95 0zm581 380l0 193 -143 0 0 -530 174 0c144,0 216,52 216,156 0,62 -30,109 -90,143l154 231 -162 0 -113 -193 -36 0zm0 -108l27 0c50,0 75,-22 75,-66 0,-37 -24,-55 -74,-55l-28 0 0 121zm359 301l0 -530 144 0 0 530 -144 0zm755 -266c0,90 -22,157 -66,204 -43,46 -107,69 -192,69 -83,0 -147,-23 -191,-70 -44,-46 -67,-114 -67,-203 0,-89 22,-156 67,-203 44,-46 108,-69 192,-69 84,0 148,23 192,69 43,46 65,114 65,203zm-365 0c0,103 36,154 107,154 37,0 63,-13 81,-38 18,-24 26,-63 26,-116 0,-53 -9,-92 -26,-117 -18,-25 -45,-38 -80,-38 -72,0 -108,52 -108,155zm1104 -10c0,88 -25,156 -73,204 -49,48 -118,72 -206,72l-171 0 0 -530 183 0c85,0 151,22 197,65 46,44 70,106 70,189zm-149 5c0,-49 -10,-85 -29,-108 -19,-24 -48,-35 -87,-35l-42 0 0 297 32 0c43,0 75,-13 96,-38 20,-25 30,-64 30,-116zm740 5c0,90 -22,157 -66,204 -44,46 -108,69 -192,69 -83,0 -147,-23 -192,-70 -44,-46 -66,-114 -66,-203 0,-89 22,-156 66,-203 44,-46 108,-69 193,-69 84,0 148,23 191,69 44,46 66,114 66,203zm-365 0c0,103 36,154 107,154 36,0 63,-13 80,-38 18,-24 27,-63 27,-116 0,-53 -9,-92 -27,-117 -18,-25 -44,-38 -79,-38 -72,0 -108,52 -108,155zm653 266l0 -530 144 0 0 530 -144 0zm400 0l-141 0 0 -530 313 0 0 115 -172 0 0 101 158 0 0 115 -158 0 0 199zm402 -193l0 193 -143 0 0 -530 174 0c144,0 216,52 216,156 0,62 -30,109 -90,143l154 231 -162 0 -112 -193 -37 0zm0 -108l27 0c50,0 75,-22 75,-66 0,-37 -24,-55 -74,-55l-28 0 0 121zm864 301l-188 0 -193 -374 -3 0c4,59 6,104 6,135l0 239 -126 0 0 -530 187 0 192 368 3 0c-4,-53 -5,-96 -5,-128l0 -240 127 0 0 530zm266 -142l0 -113 205 0 0 113 -205 0zm707 -278c-34,0 -61,14 -80,42 -19,28 -29,66 -29,115 0,102 39,153 117,153 23,0 46,-3 68,-10 22,-6 44,-14 66,-23l0 121c-44,20 -94,29 -150,29 -80,0 -141,-23 -184,-69 -43,-47 -64,-114 -64,-201 0,-55 10,-104 31,-145 21,-42 50,-74 89,-96 39,-22 85,-34 137,-34 58,0 112,13 164,38l-43 112c-20,-9 -40,-17 -59,-23 -20,-6 -41,-9 -63,-9zm561 420l-315 0 0 -530 315 0 0 115 -172 0 0 83 159 0 0 115 -159 0 0 100 172 0 0 117zm597 0l-188 0 -194 -374 -3 0c5,59 7,104 7,135l0 239 -127 0 0 -530 187 0 193 368 2 0c-3,-53 -5,-96 -5,-128l0 -240 128 0 0 530zm348 0l-143 0 0 -413 -129 0 0 -117 402 0 0 117 -130 0 0 413zm348 -193l0 193 -143 0 0 -530 174 0c144,0 216,52 216,156 0,62 -30,109 -90,143l155 231 -163 0 -112 -193 -37 0zm0 -108l27 0c50,0 76,-22 76,-66 0,-37 -25,-55 -74,-55l-29 0 0 121zm685 301l-26 -100 -172 0 -27 100 -157 0 172 -532 191 0 176 532 -157 0zm-56 -217l-23 -87c-5,-19 -11,-44 -19,-75 -8,-31 -13,-53 -15,-66 -2,12 -7,33 -13,61 -6,28 -21,84 -43,167l113 0zm270 217l0 -530 143 0 0 414 204 0 0 116 -347 0z"/>
  <path class="fil2" d="M8568 25323l-45 -769 249 -16 144 331 28 -350 232 28 -100 776 -177 0 -132 -183 11 194 -210 -11zm746 28l-38 -50 -34 -354 72 -67 271 39 28 -216 -55 -77 -106 0 -38 166 -172 -50 34 -254 66 -28 370 11 111 100 -72 630 100 83 -111 105 -94 -72 -33 39 -299 -5zm785 -6l-38 -553 -150 -6 0 -260 659 28 -28 293 -194 -5 -55 497 -194 6zm609 6l-39 -50 -33 -354 72 -67 271 39 27 -216 -55 -77 -105 0 -39 166 -171 -50 33 -254 66 -28 371 11 111 100 -72 630 99 83 -110 105 -94 -72 -34 39 -298 -5zm658 -34l-50 -752 332 -5 -44 564 265 0 -39 215 -464 -22z"/>
  <polygon class="fil3" points="10943,25204 10818,25204 10799,25167 10781,25059 10820,25029 10972,25053 10979,25182 "/>
  <polygon class="fil3" points="9537,25204 9411,25204 9392,25167 9375,25059 9413,25029 9565,25053 9573,25182 "/>
  <path class="fil3" d="M11942 25042l-215 3 203 -534 81 4 48 -108 33 -15c5,-52 3,-65 9,-115 0,-3 47,-33 45,-36 -13,-24 -34,-76 -36,-79 -1,-1 19,-21 19,-21 -80,-200 -98,-272 -272,-357 91,-77 102,-153 117,-207 36,-129 -22,-161 -125,-110 -46,-83 -235,-192 -433,-115 -20,-78 -58,-84 -81,-67 -165,107 -154,217 -129,331l-26 49c-256,21 -359,161 -480,307l-814 -113 -1603 105 142 780 8 762c254,5 513,-68 774,-73 332,-6 668,92 1004,91 59,-1 164,-80 222,-68 55,11 176,32 259,33 126,0 134,-47 217,-55 352,-38 671,-13 1008,-13l25 -379z"/>
  <path class="fil4" d="M8547 24390l-24 -311 238 -5 -23 208 -124 7 0 23 32 -3 2 37 -32 0 -2 42 -67 2zm277 -2l-28 -296 175 -39 51 28 -12 210 -25 16 53 56 -62 32 -37 -53 -49 2 3 44 -69 0zm92 -97l46 -16 5 -81 -12 -18 -67 7 -9 20 11 79 26 9zm196 97l-23 -30 -18 -286 39 -28 154 0 35 32 -14 275 -25 32 -148 5zm58 -37l34 0 16 -9 7 -90 -11 -19 -56 0 -20 14 11 97 19 7zm182 32l-18 -321 104 -6 60 138 11 -146 97 12 -41 323 -74 0 -56 -76 5 81 -88 -5zm365 10l-16 -231 -63 -3 0 -108 275 11 -12 123 -80 -2 -23 207 -81 3zm443 -5l-12 -208 125 -2 -21 208 -92 2zm-21 -335c6,-14 15,-26 29,-35 13,-8 28,-13 43,-13 6,0 11,1 15,2 4,0 9,2 15,5 14,5 26,15 35,28 8,13 13,28 13,44 0,5 -1,10 -2,14 0,4 -2,10 -5,15 -5,15 -15,27 -29,35 -13,9 -28,13 -43,13 -5,0 -10,0 -14,-1 -5,-1 -10,-3 -15,-5 -15,-6 -27,-16 -35,-29 -9,-13 -13,-28 -13,-43 0,-6 0,-11 1,-15 1,-4 3,-9 5,-15zm199 330l-19 -321 104 -6 60 138 12 -146 97 12 -42 323 -74 0 -55 -76 4 81 -87 -5z"/>
  <path class="fil5" d="M11645 23937c15,-60 -25,-73 -65,-51 -31,18 -70,85 -29,111 32,30 106,-9 94,-60zm-79 187c-49,66 -383,150 -482,175 -93,24 -155,55 -101,-103 30,-86 73,-167 111,-248 6,21 -31,209 239,91 61,-27 222,-144 257,-192 24,-24 84,-71 103,-99 31,42 3,154 -18,208 -26,67 -67,121 -109,168z"/>
  <path class="fil6" d="M11921 23502c-11,37 -162,268 -185,283 -28,-75 9,-228 119,-297 15,-10 70,-39 93,-24 -9,12 -16,25 -27,38z"/>
  <path class="fil7" d="M11543 24144c77,-86 200,-265 150,-396l13 -7c7,22 8,44 14,65 21,7 53,2 64,9 -27,119 -68,179 -149,258 -20,20 -71,60 -92,71z"/>
  <path class="fil7" d="M11206 23541c26,-34 34,-140 126,-223 1,-1 9,-8 9,-9l3 -7c1,-1 1,-2 1,-2 30,-26 52,45 53,61 -87,87 -157,185 -178,241l-14 -61z"/>
  <path class="fil7" d="M11921 23502c11,-13 18,-26 27,-38 43,35 -13,247 -108,302 -17,10 -65,29 -93,22 30,-15 91,-77 115,-108 41,-52 64,-112 69,-182l-10 4z"/>
  <path class="fil7" d="M11094 23948l11 -21c8,34 -14,117 79,124 132,9 281,-108 406,-204 -90,126 -519,393 -496,101z"/>
  <path class="fil3" d="M11564 23978c40,6 65,-33 67,-77 -20,15 -9,20 -31,50 -9,12 -25,24 -36,27zm81 -41c-22,48 -47,65 -94,60 -41,-26 -2,-93 29,-111 40,-22 80,-9 65,51z"/>
  <path class="fil6" d="M11206 23541c7,-61 5,-99 43,-156 26,-41 65,-77 96,-85 0,0 0,1 -1,2l-3 7c0,1 -8,8 -9,9 -92,83 -103,206 -126,223z"/>
  <path class="fil7" d="M11548 23996c48,6 80,-18 98,-65 13,61 -65,96 -98,65z"/>
  <path class="fil4" d="M8568 25323l-45 -769 249 -16 144 331 28 -350 232 28 -100 776 -177 0 -132 -183 11 194 -210 -11zm746 28l-38 -50 -34 -354 72 -67 271 39 28 -216 -55 -77 -106 0 -38 166 -172 -50 34 -254 66 -28 370 11 111 100 -72 630 100 83 -111 105 -94 -72 -33 39 -299 -5zm785 -6l-38 -553 -150 -6 0 -260 659 28 -28 293 -194 -5 -55 497 -194 6zm609 6l-39 -50 -33 -354 72 -67 271 39 27 -216 -55 -77 -105 0 -39 166 -171 -50 33 -254 66 -28 371 11 111 100 -72 630 99 83 -110 105 -94 -72 -34 39 -298 -5zm658 -34l-50 -752 332 -5 -44 564 265 0 -39 215 -464 -22z"/>
  <path class="fil8" d="M11823 23812c-88,235 -168,277 -316,386 -70,52 211,228 310,242 31,4 38,-2 52,-17 132,-139 174,-283 165,-400 0,-4 0,-7 -1,-10 -26,-74 -103,-163 -199,-208 -5,-3 -8,-1 -11,7z"/>
  <path class="fil8" d="M12064 24380c-61,26 -122,41 -180,58 28,-28 53,-57 74,-85 43,-27 85,-50 115,-71l-9 98zm-251 72l-3 1 1 -1 2 0z"/>
  <path class="fil8" d="M12039 24199c14,-14 33,-33 42,-38l27 68c2,7 -86,65 -128,92 26,-41 46,-82 59,-122z"/>
  <path class="fil8" d="M12090 24119c-10,14 -26,30 -41,44 9,-40 11,-80 7,-116 13,25 28,58 34,72z"/>
  <path class="fil8" d="M11994 24492l-112 -32c73,-18 77,-17 151,-42l-39 74z"/>
  <path class="fil8" d="M11106 23871c-55,86 -49,89 -105,204 -35,73 -214,88 -272,23 -17,-20 -26,-65 -16,-81 112,-170 240,-311 467,-331 -25,48 -62,127 -74,185z"/>
  <path class="fil8" d="M11704 23709c-153,159 -386,306 -461,317 -92,18 -130,-37 -116,-121 24,-139 139,-386 275,-511 28,-26 43,-29 80,-38 112,-25 279,15 352,121 -87,64 -107,126 -130,232z"/>
  <path class="fil6" d="M10690 24081c-54,193 171,246 266,64 -59,26 -233,50 -266,-64z"/>
  <path class="fil7" d="M10830 24435c-3,-3 -2,0 -6,-8 -2,-5 -2,-5 -4,-10 -13,-48 -15,-94 -19,-141l-38 -8c13,59 23,100 47,152 2,4 6,14 9,18l13 14 -2 -17z"/>
  <path class="fil5" d="M10830 24435c-11,-56 -8,-112 -7,-161l-22 2c4,47 6,93 19,141 2,5 2,5 4,10 4,8 3,5 6,8z"/>
  <path class="fil7" d="M10736 24353c0,-2 1,-85 0,-92l-26 -10c4,34 8,72 26,102z"/>
  <path class="fil9" d="M10852 24272c17,25 35,52 56,66l-21 -79 -35 13z"/>
  <polygon class="fil3" points="9537,25204 9411,25204 9392,25167 9375,25059 9413,25029 9565,25053 9573,25182 "/>
  <path class="fil5" d="M10850 25073c3,15 9,17 22,19 11,-8 9,-6 12,-16 -9,-17 -23,-23 -34,-3zm-8 5c9,-31 37,-33 52,-4 -2,12 -3,24 -20,27 -15,3 -24,-9 -32,-23z"/>
  <path class="fil5" d="M10921 25081c3,15 9,16 22,19 10,-8 9,-7 12,-16 -9,-17 -23,-23 -34,-3zm-8 4c9,-31 37,-32 52,-4 -2,12 -3,25 -20,28 -15,3 -25,-9 -32,-24z"/>
  <ellipse class="fil3" transform="matrix(0.337576 -0.189644 0.0948223 0.168788 11533.1 24149.3)" rx="70" ry="74"/>
  <polygon class="fil3" points="11620,24555 11553,24555 11536,24625 "/>
  <polygon class="fil3" points="11686,24547 11630,24555 11631,24625 11624,24725 11686,24688 "/>
  <path class="fil6" d="M11500 24292c24,71 120,149 212,165 16,3 32,5 48,6 11,0 13,0 23,-1 19,0 15,1 18,5 -47,47 -190,49 -231,24 -47,-29 -87,-139 -79,-209l9 10z"/>
  <path class="fil7" d="M11801 24467c-3,-4 1,-5 -18,-5 -10,1 -12,1 -23,1 -16,-1 -32,-3 -48,-6 -92,-16 -188,-94 -212,-165 21,14 38,37 59,54 65,52 164,105 247,111l-5 10z"/>
  <path class="fil7" d="M11640 24686c4,-3 3,0 7,-7 3,-6 2,-5 4,-11 14,-47 17,-90 21,-137l43 -2c-15,59 -26,91 -53,142 -2,5 -6,14 -9,18l-15 14 2 -17z"/>
  <path class="fil5" d="M11640 24686c12,-56 9,-106 8,-156l24 1c-4,47 -7,90 -21,137 -2,6 -1,5 -4,11 -4,7 -3,4 -7,7z"/>
  <path class="fil7" d="M11743 24619c0,-2 -1,-89 -1,-96l29 -6c-4,34 -9,72 -28,102z"/>
  <path class="fil9" d="M11613 24527c-19,24 -35,48 -58,62l23 -72 35 10z"/>
  <polygon class="fil3" points="10946,25204 10820,25204 10802,25167 10784,25059 10823,25029 10975,25053 10982,25182 "/>
  <g id="_1116195497536">
   <g id="_39657601360">
    <polygon class="fil10" points="2588,15426 2047,15426 2047,13394 3248,13394 3248,13835 2588,13835 2588,14222 3196,14222 3196,14663 2588,14663 "/>
    <polygon class="fil11 str1" points="3846,12704 4185,12704 4185,12365 3846,12365 "/>
    <polygon class="fil10" points="11047,15426 10498,15426 10498,13844 10002,13844 10002,13394 11543,13394 11543,13844 11047,13844 "/>
    <polyline class="fil12 str2" points="10499,15426 10499,13843 10002,13843 "/>
    <polyline class="fil12 str3" points="10288,13394 11543,13394 11543,13843 "/>
    <path class="fil10" d="M9712 15426l-721 0 -742 -1432 -12 0c18,226 26,397 26,516l0 916 -486 0 0 -2032 717 0 739 1412 9 0c-13,-205 -20,-369 -20,-493l0 -919 490 0 0 2032z"/>
    <polygon class="fil10" points="13779,15426 12572,15426 12572,13394 13779,13394 13779,13835 13121,13835 13121,14154 13730,14154 13730,14595 13121,14595 13121,14979 13779,14979 "/>
    <path class="fil12 str3" d="M9222 13394l489 0m-1448 1116l0 916 -486 0"/>
    <polyline class="fil12 str3" points="13779,14979 13779,15426 12572,15426 "/>
    <path class="fil10" d="M18233 14367c0,339 -93,600 -280,784 -187,184 -449,275 -787,275l-658 0 0 -2032 704 0c326,0 577,83 755,250 177,167 266,408 266,723zm-570 20c0,-186 -37,-324 -110,-414 -74,-90 -186,-135 -336,-135l-160 0 0 1138 122 0c167,0 290,-48 368,-145 77,-97 116,-245 116,-444z"/>
    <path class="fil12 str3" d="M17212 13394c325,0 578,83 755,250 177,167 266,408 266,723 0,339 -93,600 -280,784 -187,184 -449,275 -788,275l-657 0"/>
    <path class="fil10" d="M7410 14408c0,342 -83,602 -251,780 -168,177 -414,267 -737,267 -319,0 -563,-90 -734,-269 -169,-179 -254,-439 -254,-781 0,-338 84,-597 253,-775 169,-178 415,-268 738,-268 323,0 568,89 735,266 167,177 250,437 250,780zm-1398 -1c0,393 137,589 410,589 139,0 242,-48 309,-143 68,-95 101,-244 101,-446 0,-203 -34,-353 -102,-450 -68,-96 -170,-145 -305,-145 -275,0 -413,199 -413,595z"/>
    <path class="fil12 str3" d="M5687 13630c169,-178 415,-267 738,-267 323,0 568,88 735,265m-601 203c-40,-12 -85,-19 -134,-19 -58,0 -110,9 -157,27"/>
    <path class="fil10" d="M4131 14686l0 740 -549 0 0 -2032 666 0c552,0 828,200 828,600 0,235 -115,417 -344,546l592 886 -622 0 -432 -740 -139 0zm0 -413l103 0c192,0 288,-85 288,-254 0,-140 -94,-210 -283,-210l-108 0 0 464z"/>
    <path class="fil12 str3" d="M4270 14686l-139 0m-549 -1292l666 0c552,0 828,200 828,600m-554 25c0,-140 -94,-209 -283,-209l-108 0"/>
    <polygon class="fil10" points="2588,15426 2047,15426 2047,13394 3248,13394 3248,13835 2588,13835 2588,14222 3196,14222 3196,14663 2588,14663 "/>
    <path class="fil10" d="M16069 15426l-720 0 -742 -1432 -12 0c17,226 26,397 26,516l0 916 -487 0 0 -2032 718 0 739 1412 8 0c-13,-205 -19,-369 -19,-493l0 -919 489 0 0 2032z"/>
    <path class="fil13" d="M18956 12573c0,0 29,-644 -683,-581 -233,-917 -1157,-824 -1242,-743 -590,-747 -2074,-567 -2223,449 -648,29 -824,525 -817,866l4965 9z"/>
    <g>
     <polyline class="fil12 str3" points="17202,17801 17202,16558 15526,16558 15526,17810 15851,17810 "/>
     <polygon class="fil14" points="15925,16940 15680,17235 15680,16702 17054,16702 17054,17379 16589,17379 16367,17040 16173,17254 "/>
     <path class="fil11" d="M16861 16986c0,-68 -55,-122 -122,-122 -68,0 -122,54 -122,122 0,67 54,122 122,122 67,0 122,-55 122,-122z"/>
     <polygon class="fil12 str3" points="16060,18520 16975,18520 16975,17755 16060,17755 "/>
     <polyline class="fil12 str3" points="16060,18247 16267,18040 16541,18353 16749,18196 16961,18377 "/>
     <path class="fil12 str3" d="M16673 18005c0,-57 -47,-104 -105,-104 -57,0 -104,47 -104,104 0,58 47,105 104,105 58,0 105,-47 105,-105z"/>
    </g>
    <polygon class="fil14" points="14757,17015 13513,17015 13970,16374 14271,16794 14415,16597 "/>
    <g>
     <polygon class="fil12 str3" points="12229,15695 12768,15695 12768,15157 12229,15157 "/>
     <g>
      <line class="fil12 str3" x1="12229" y1="15696" x2="12768" y2= "15157" />
      <line class="fil12 str3" x1="12768" y1="15696" x2="12229" y2= "15157" />
     </g>
    </g>
    <polygon class="fil12 str3" points="13384,17419 14878,17419 14878,15924 13384,15924 "/>
    <polygon class="fil12 str3" points="13513,17015 14757,17015 14757,16045 13513,16045 "/>
    <line class="fil12 str3" x1="14367" y1="17159" x2="14748" y2= "17159" />
    <line class="fil12 str3" x1="14762" y1="17275" x2="14535" y2= "17275" />
    <line class="fil12 str2" x1="13499" y1="17265" x2="13842" y2= "17265" />
    <g>
     <path class="fil15" d="M2701 16366c0,-167 -136,-303 -304,-303 -168,0 -304,136 -304,303 0,168 136,304 304,304 168,0 304,-136 304,-304z"/>
     <polyline class="fil12 str3" points="2443,16484 2318,16359 2443,16234 "/>
     <g>
      <g>
       <polygon class="fil12 str3" points="2987,16805 3869,16805 3869,15923 2987,15923 "/>
       <line class="fil12 str3" x1="2987" y1="16805" x2="3869" y2= "15923" />
       <line class="fil12 str3" x1="3869" y1="16805" x2="2987" y2= "15923" />
       <line class="fil12 str3" x1="2959" y1="16967" x2="3599" y2= "16967" />
       <line class="fil12 str3" x1="2959" y1="17107" x2="3233" y2= "17107" />
      </g>
      <g>
       <polygon class="fil12 str3" points="4173,16805 5055,16805 5055,15923 4173,15923 "/>
       <line class="fil12 str3" x1="4173" y1="16805" x2="5055" y2= "15923" />
       <line class="fil12 str3" x1="5055" y1="16805" x2="4173" y2= "15923" />
       <line class="fil12 str3" x1="4145" y1="16967" x2="4785" y2= "16967" />
       <line class="fil12 str3" x1="4145" y1="17107" x2="4419" y2= "17107" />
      </g>
     </g>
     <g>
      <g>
       <polygon class="fil12 str3" points="5358,16805 6240,16805 6240,15923 5358,15923 "/>
       <line class="fil12 str3" x1="5358" y1="16805" x2="6240" y2= "15923" />
       <line class="fil12 str3" x1="6240" y1="16805" x2="5358" y2= "15923" />
       <line class="fil12 str3" x1="5330" y1="16967" x2="5971" y2= "16967" />
       <line class="fil12 str3" x1="5330" y1="17107" x2="5605" y2= "17107" />
      </g>
      <g>
       <polygon class="fil12 str3" points="6544,16805 7426,16805 7426,15923 6544,15923 "/>
       <line class="fil12 str3" x1="6544" y1="16805" x2="7426" y2= "15923" />
       <line class="fil12 str3" x1="7426" y1="16805" x2="6544" y2= "15923" />
       <line class="fil12 str3" x1="6516" y1="16967" x2="7157" y2= "16967" />
       <line class="fil12 str3" x1="6516" y1="17107" x2="6790" y2= "17107" />
      </g>
     </g>
     <path class="fil15" d="M7751 16364c-1,168 134,305 302,306 167,1 304,-134 305,-302 1,-168 -134,-305 -302,-306 -167,-1 -304,135 -305,302z"/>
     <polyline class="fil12 str3" points="8009,16248 8133,16374 8007,16498 "/>
    </g>
    <line class="fil12 str2" x1="14123" y1="15678" x2="14123" y2= "12987" />
    <line class="fil12 str2" x1="16074" y1="15678" x2="16074" y2= "12987" />
    <line class="fil12 str2" x1="13852" y1="13388" x2="16365" y2= "13388" />
    <line class="fil12 str2" x1="13852" y1="15423" x2="16365" y2= "15423" />
    <path class="fil12 str2" d="M17057 14976l122 0c167,0 290,-48 367,-145 78,-97 118,-245 118,-444 0,-186 -38,-324 -111,-415 -74,-89 -185,-134 -336,-134"/>
    <polyline class="fil12 str3" points="13121,14154 13730,14154 13730,14595 "/>
    <polyline class="fil12 str3" points="13779,13394 13779,13835 13121,13835 "/>
    <line class="fil12 str3" x1="13034" y1="13953" x2="13959" y2= "13953" />
    <polyline class="fil12 str3" points="3197,14222 3197,14664 2588,14664 "/>
    <polyline class="fil12 str3" points="2047,15426 2047,13394 3249,13394 3249,13835 2588,13835 "/>
    <polyline class="fil12 str2" points="8494,13394 9233,14806 9242,14806 "/>
    <g>
     <path class="fil12 str3" d="M6346 14764c0,-128 -104,-232 -232,-232 -128,0 -232,104 -232,232 0,128 104,232 232,232 128,0 232,-104 232,-232z"/>
     <polyline class="fil12 str3" points="5986,14725 6086,14824 6243,14668 "/>
    </g>
    <g>
     <polygon class="fil12 str3" points="8980,17509 10557,17509 10557,16721 8980,16721 "/>
     <line class="fil12 str2" x1="9105" y1="16874" x2="10433" y2= "16874" />
     <line class="fil12 str2" x1="9105" y1="17029" x2="10433" y2= "17029" />
     <line class="fil12 str2" x1="9105" y1="17197" x2="10433" y2= "17197" />
     <line class="fil12 str3" x1="9439" y1="17347" x2="10071" y2= "17347" />
     <line class="fil12 str3" x1="10135" y1="17345" x2="10247" y2= "17345" />
     <line class="fil12 str3" x1="10325" y1="17345" x2="10436" y2= "17345" />
     <line class="fil12 str3" x1="9272" y1="17345" x2="9384" y2= "17345" />
     <line class="fil12 str3" x1="9104" y1="17345" x2="9215" y2= "17345" />
    </g>
    <g>
     <polyline class="fil12 str3" points="8935,15197 8669,15197 8669,15742 9211,15742 9211,15494 "/>
     <polyline class="fil12 str3" points="8984,15426 9221,15190 9221,15345 "/>
     <line class="fil12 str3" x1="9221" y1="15190" x2="9072" y2= "15190" />
    </g>
    <g>
     <polygon class="fil12 str3" points="3550,12820 6158,12820 6158,11799 3550,11799 "/>
     <line class="fil12 str3" x1="3670" y1="11933" x2="4269" y2= "11933" />
     <line class="fil12 str3" x1="3550" y1="12063" x2="6158" y2= "12063" />
     <polygon class="fil12 str3" points="3698,12514 3994,12514 3994,12217 3698,12217 "/>
     <polygon class="fil16 str3" points="4311,12676 4775,12676 4775,12212 4311,12212 "/>
     <polygon class="fil15 str4" points="4900,12676 5364,12676 5364,12212 4900,12212 "/>
     <polygon class="fil11 str5" points="5490,12676 5953,12676 5953,12212 5490,12212 "/>
    </g>
    <g>
     <path class="fil15 str6" d="M11519 17907l372 -17c92,-110 223,-267 214,-526 -5,-269 -224,-407 -402,-402 -340,3 -417,216 -402,425 32,160 54,316 218,520z"/>
     <path class="fil12 str3" d="M11345 18631l0 -609c-252,-235 -198,-864 315,-914 272,-6 625,148 627,580l170 294 -142 0 0 235c1,54 -6,134 -79,138l-288 0 0 271"/>
     <g>
      <line class="fil12 str3" x1="11691" y1="18625" x2="11691" y2= "18114" />
      <line class="fil12 str3" x1="11534" y1="18118" x2="11881" y2= "18118" />
      <line class="fil12 str3" x1="11442" y1="18011" x2="11978" y2= "18011" />
      <line class="fil12 str3" x1="11917" y1="18011" x2="11917" y2= "17899" />
      <line class="fil12 str3" x1="11432" y1="17899" x2="11980" y2= "17899" />
      <polyline class="fil12 str3" points="11583,17899 11495,17434 11910,17434 11813,17899 "/>
     </g>
    </g>
    <path class="fil12 str2" d="M9038 12502c0,-87 -70,-157 -157,-157 -88,0 -158,70 -158,157 0,88 70,158 158,158 87,0 157,-70 157,-158z"/>
    <line class="fil12 str7" x1="9753" y1="11711" x2="9827" y2= "11711" />
    <line class="fil12 str7" x1="9934" y1="11711" x2="10482" y2= "11711" />
    <line class="fil12 str7" x1="10588" y1="11709" x2="11907" y2= "11709" />
    <line class="fil12 str7" x1="10238" y1="11985" x2="10865" y2= "11985" />
   </g>
   <g>
    <path class="fil1" d="M3253 7129l0 851c0,186 -52,329 -157,430 -104,102 -255,153 -453,153 -193,0 -341,-49 -444,-148 -104,-99 -155,-241 -155,-426l0 -860 384 0 0 830c0,100 18,172 56,217 37,46 92,68 165,68 78,0 135,-22 170,-67 35,-45 53,-118 53,-220l0 -828 381 0zm913 1414l-289 -1018 -9 0c14,173 20,308 20,404l0 614 -338 0 0 -1414 509 0 295 1004 8 0 289 -1004 509 0 0 1414 -351 0 0 -620c0,-32 1,-68 2,-107 1,-40 5,-136 13,-289l-9 0 -285 1016 -364 0z"/>
    <path class="fil1" d="M6903 8114c0,88 -22,166 -67,234 -44,68 -108,121 -192,158 -84,38 -182,57 -295,57 -94,0 -173,-7 -237,-20 -63,-13 -130,-36 -199,-69l0 -341c73,37 149,67 227,88 79,20 151,31 217,31 57,0 98,-10 125,-29 26,-20 39,-45 39,-76 0,-19 -5,-36 -16,-51 -10,-14 -28,-29 -51,-44 -23,-15 -86,-45 -188,-91 -92,-42 -161,-82 -207,-122 -46,-39 -81,-84 -103,-135 -22,-51 -33,-111 -33,-181 0,-130 47,-231 142,-304 95,-73 225,-110 391,-110 146,0 295,34 447,102l-117 294c-132,-60 -246,-91 -342,-91 -49,0 -86,9 -108,27 -23,17 -34,39 -34,65 0,28 14,53 43,74 29,22 106,62 233,120 122,55 207,114 254,177 47,63 71,142 71,237zm1421 -985l0 851c0,186 -52,329 -157,430 -105,102 -256,153 -453,153 -193,0 -341,-49 -445,-148 -103,-99 -155,-241 -155,-426l0 -860 384 0 0 830c0,100 19,172 56,217 38,46 93,68 166,68 78,0 134,-22 170,-67 35,-45 52,-118 52,-220l0 -828 382 0zm1323 450c0,158 -47,280 -140,366 -93,86 -226,129 -397,129l-108 0 0 469 -381 0 0 -1414 489 0c179,0 313,39 402,117 90,78 135,189 135,333zm-645 184l70 0c58,0 103,-16 137,-48 34,-33 51,-77 51,-134 0,-95 -53,-143 -159,-143l-99 0 0 325zm1709 780l-839 0 0 -1414 839 0 0 307 -457 0 0 222 423 0 0 307 -423 0 0 267 457 0 0 311zm629 -515l0 515 -381 0 0 -1414 463 0c384,0 576,140 576,418 0,163 -80,290 -239,380l411 616 -433 0 -300 -515 -97 0zm0 -287l72 0c134,0 201,-59 201,-177 0,-97 -66,-146 -197,-146l-76 0 0 323z"/>
    <path class="fil1" d="M2891 10636l-840 0 0 -1413 840 0 0 306 -458 0 0 222 424 0 0 307 -424 0 0 267 458 0 0 311zm1041 -1413l428 0 -464 1413 -449 0 -462 -1413 430 0 192 716c40,159 62,270 66,333 4,-45 14,-102 27,-169 14,-68 26,-121 36,-160l196 -720zm1420 1413l-840 0 0 -1413 840 0 0 306 -458 0 0 222 424 0 0 307 -424 0 0 267 458 0 0 311zm1593 0l-501 0 -516 -996 -9 0c12,157 18,277 18,359l0 637 -338 0 0 -1413 499 0 514 982 6 0c-9,-143 -14,-257 -14,-343l0 -639 341 0 0 1413zm929 0l-382 0 0 -1101 -345 0 0 -312 1072 0 0 312 -345 0 0 1101zm1829 -708c0,238 -58,419 -174,542 -117,124 -288,186 -513,186 -222,0 -392,-62 -510,-187 -118,-124 -177,-305 -177,-543 0,-235 58,-415 176,-539 118,-124 289,-186 513,-186 225,0 395,61 512,185 116,123 173,303 173,542zm-972 -1c0,274 95,410 285,410 97,0 169,-33 215,-99 47,-67 70,-170 70,-311 0,-141 -23,-245 -71,-312 -47,-68 -118,-101 -212,-101 -191,0 -287,138 -287,413z"/>
   </g>
  </g>
 </g>
</svg>
