<?xml version="1.0" encoding="UTF-8"?>
<!DOCTYPE svg PUBLIC "-//W3C//DTD SVG 1.1//EN" "http://www.w3.org/Graphics/SVG/1.1/DTD/svg11.dtd">
<!-- Creator: CorelDRAW X8 -->
<svg xmlns="http://www.w3.org/2000/svg" xml:space="preserve" width="210mm" height="297mm" version="1.1" style="shape-rendering:geometricPrecision; text-rendering:geometricPrecision; image-rendering:optimizeQuality; fill-rule:evenodd; clip-rule:evenodd"
viewBox="0 0 21000 29700"
 xmlns:xlink="http://www.w3.org/1999/xlink">
 <defs>
  <style type="text/css">
   <![CDATA[
    .str7 {stroke:#373435;stroke-width:84.66}
    .str3 {stroke:#373435;stroke-width:84.67}
    .str5 {stroke:#FEFEFE;stroke-width:84.67}
    .str4 {stroke:#FFD33E;stroke-width:84.67}
    .str8 {stroke:#FEFEFE;stroke-width:20}
    .str0 {stroke:#373435;stroke-width:20}
    .str1 {stroke:#FEFEFE;stroke-width:20}
    .str6 {stroke:#FFD33E;stroke-width:20}
    .str2 {stroke:#373435;stroke-width:84.67;stroke-dasharray:84.670000 84.670000}
    .fil3 {fill:none}
    .fil13 {fill:#FEFEFE}
    .fil7 {fill:#373435}
    .fil15 {fill:#5B3100}
    .fil19 {fill:#A56E0B}
    .fil21 {fill:#AD7808}
    .fil17 {fill:#C99705}
    .fil18 {fill:#CA9804}
    .fil25 {fill:#D4B04B}
    .fil20 {fill:#ECC963}
    .fil4 {fill:#FED23E}
    .fil2 {fill:#FEFEFE}
    .fil0 {fill:#FFAA01}
    .fil5 {fill:#FFD239}
    .fil6 {fill:#FFD33E}
    .fil12 {fill:#FEFEFE;fill-rule:nonzero}
    .fil8 {fill:#373435;fill-rule:nonzero}
    .fil9 {fill:#373435;fill-rule:nonzero}
    .fil23 {fill:#CA3538;fill-rule:nonzero}
    .fil24 {fill:#3A3430;fill-rule:nonzero}
    .fil22 {fill:#459C50;fill-rule:nonzero}
    .fil11 {fill:black;fill-rule:nonzero}
    .fil1 {fill:#FEFEFE;fill-rule:nonzero}
    .fil14 {fill:#FFCB08;fill-rule:nonzero}
    .fil16 {fill:#FFD33E;fill-rule:nonzero}
    .fil10 {fill:white;fill-rule:nonzero}
   ]]>
  </style>
   <clipPath id="id0">
    <rect x="12800" y="26219" width="4192" height="849"/>
   </clipPath>
 </defs>
 <g id="Camada_x0020_1">
  <metadata id="CorelCorpID_0Corel-Layer"/>
  <rect class="fil0 str0" width="21000" height="29700"/>
 </g>
 <g id="Camada_x0020_1_0">
  <metadata id="CorelCorpID_1Corel-Layer"/>
  <polygon class="fil1" points="2611,14346 2071,14346 2071,12314 3272,12314 3272,12755 2611,12755 2611,13142 3220,13142 3220,13584 2611,13584 "/>
  <polygon class="fil2 str1" points="3870,11624 4209,11624 4209,11285 3870,11285 "/>
  <polygon class="fil1" points="11071,14346 10522,14346 10522,12764 10025,12764 10025,12314 11566,12314 11566,12764 11071,12764 "/>
  <polyline class="fil3 str2" points="10522,14346 10522,12764 10025,12764 "/>
  <polyline class="fil3 str3" points="10311,12314 11566,12314 11566,12764 "/>
  <path class="fil1" d="M9735 14346l-720 0 -742 -1431 -13 0c18,225 27,397 27,515l0 916 -487 0 0 -2032 718 0 739 1412 8 0c-13,-205 -19,-369 -19,-493l0 -919 489 0 0 2032z"/>
  <polygon class="fil1" points="13802,14346 12595,14346 12595,12314 13802,12314 13802,12755 13144,12755 13144,13074 13753,13074 13753,13515 13144,13515 13144,13900 13802,13900 "/>
  <path class="fil3 str3" d="M9246 12314l489 0m-1448 1116l0 916 -487 0"/>
  <polyline class="fil3 str3" points="13802,13900 13802,14346 12595,14346 "/>
  <path class="fil1" d="M18256 13287c0,339 -93,601 -280,784 -186,184 -449,275 -787,275l-658 0 0 -2032 704 0c326,0 578,84 755,250 178,167 266,408 266,723zm-569 21c0,-187 -37,-325 -111,-415 -73,-90 -185,-135 -336,-135l-160 0 0 1139 123 0c167,0 289,-49 367,-145 78,-97 117,-245 117,-444z"/>
  <path class="fil3 str3" d="M17235 12314c326,0 578,83 755,250 178,167 267,408 267,723 0,340 -94,601 -280,784 -188,184 -450,275 -788,275l-658 0"/>
  <path class="fil1" d="M7433 13328c0,342 -83,602 -251,780 -168,178 -413,267 -737,267 -319,0 -563,-90 -733,-269 -170,-178 -255,-439 -255,-780 0,-339 84,-597 254,-776 169,-178 414,-267 737,-267 324,0 568,88 735,265 167,177 250,437 250,780zm-1398 -1c0,393 137,590 410,590 139,0 243,-48 310,-144 67,-95 101,-243 101,-446 0,-203 -35,-353 -103,-449 -68,-97 -170,-145 -305,-145 -275,0 -413,198 -413,594z"/>
  <path class="fil3 str3" d="M5711 12550c168,-178 414,-267 737,-267 324,0 569,88 736,265m-602 204c-40,-13 -85,-19 -134,-19 -58,0 -110,8 -156,26"/>
  <path class="fil1" d="M4154 13606l0 740 -549 0 0 -2032 666 0c553,0 829,200 829,600 0,236 -115,418 -345,546l592 886 -622 0 -431 -740 -140 0zm0 -412l103 0c192,0 289,-85 289,-255 0,-140 -95,-209 -283,-209l-109 0 0 464z"/>
  <path class="fil3 str3" d="M4294 13606l-140 0m-549 -1292l666 0c552,0 829,201 829,600m-555 26c0,-141 -94,-210 -282,-210l-109 0"/>
  <polygon class="fil1" points="2611,14346 2071,14346 2071,12314 3272,12314 3272,12755 2611,12755 2611,13142 3220,13142 3220,13584 2611,13584 "/>
  <path class="fil1" d="M16092 14346l-720 0 -742 -1431 -12 0c18,225 26,397 26,515l0 916 -486 0 0 -2032 717 0 739 1412 9 0c-13,-205 -20,-369 -20,-493l0 -919 489 0 0 2032z"/>
  <path class="fil4" d="M18979 11494c0,0 29,-645 -683,-582 -232,-916 -1157,-824 -1241,-743 -590,-747 -2074,-566 -2224,449 -647,29 -823,525 -817,867l4965 9z"/>
  <polyline class="fil3 str3" points="17225,16721 17225,15478 15550,15478 15550,16731 15875,16731 "/>
  <polygon class="fil5" points="15948,15861 15703,16155 15703,15622 17077,15622 17077,16299 16613,16299 16390,15960 16197,16174 "/>
  <path class="fil2" d="M16884 15906c0,-67 -54,-122 -122,-122 -67,0 -122,55 -122,122 0,68 55,122 122,122 68,0 122,-54 122,-122z"/>
  <polygon class="fil3 str3" points="16084,17441 16998,17441 16998,16675 16084,16675 "/>
  <polyline class="fil3 str3" points="16084,17167 16290,16961 16564,17274 16773,17116 16984,17297 "/>
  <path class="fil3 str3" d="M16696 16926c0,-58 -47,-105 -104,-105 -58,0 -105,47 -105,105 0,57 47,104 105,104 57,0 104,-47 104,-104z"/>
  <polygon class="fil5" points="14781,15935 13537,15935 13993,15294 14295,15715 14438,15517 "/>
  <polygon class="fil3 str3" points="12253,14615 12791,14615 12791,14077 12253,14077 "/>
  <line class="fil3 str3" x1="12253" y1="14616" x2="12792" y2= "14077" />
  <line class="fil3 str3" x1="12792" y1="14616" x2="12253" y2= "14077" />
  <polygon class="fil3 str3" points="13407,16339 14901,16339 14901,14845 13407,14845 "/>
  <polygon class="fil3 str3" points="13537,15935 14781,15935 14781,14965 13537,14965 "/>
  <line class="fil3 str3" x1="14391" y1="16079" x2="14772" y2= "16079" />
  <line class="fil3 str3" x1="14786" y1="16195" x2="14558" y2= "16195" />
  <line class="fil3 str2" x1="13522" y1="16185" x2="13865" y2= "16185" />
  <path class="fil6" d="M2724 15287c0,-168 -136,-304 -304,-304 -168,0 -304,136 -304,304 0,167 136,303 304,303 168,0 304,-136 304,-303z"/>
  <polyline class="fil3 str3" points="2466,15405 2342,15280 2466,15154 "/>
  <polygon class="fil3 str3" points="3010,15725 3892,15725 3892,14843 3010,14843 "/>
  <line class="fil3 str3" x1="3010" y1="15725" x2="3892" y2= "14843" />
  <line class="fil3 str3" x1="3892" y1="15725" x2="3010" y2= "14843" />
  <line class="fil3 str3" x1="2982" y1="15887" x2="3623" y2= "15887" />
  <line class="fil3 str3" x1="2982" y1="16027" x2="3257" y2= "16027" />
  <polygon class="fil3 str3" points="4196,15725 5078,15725 5078,14843 4196,14843 "/>
  <line class="fil3 str3" x1="4196" y1="15725" x2="5078" y2= "14843" />
  <line class="fil3 str3" x1="5078" y1="15725" x2="4196" y2= "14843" />
  <line class="fil3 str3" x1="4168" y1="15887" x2="4809" y2= "15887" />
  <line class="fil3 str3" x1="4168" y1="16027" x2="4442" y2= "16027" />
  <polygon class="fil3 str3" points="5382,15725 6264,15725 6264,14843 5382,14843 "/>
  <line class="fil3 str3" x1="5382" y1="15725" x2="6264" y2= "14843" />
  <line class="fil3 str3" x1="6264" y1="15725" x2="5382" y2= "14843" />
  <line class="fil3 str3" x1="5354" y1="15887" x2="5994" y2= "15887" />
  <line class="fil3 str3" x1="5354" y1="16027" x2="5628" y2= "16027" />
  <polygon class="fil3 str3" points="6568,15725 7449,15725 7449,14843 6568,14843 "/>
  <line class="fil3 str3" x1="6568" y1="15725" x2="7449" y2= "14843" />
  <line class="fil3 str3" x1="7449" y1="15725" x2="6568" y2= "14843" />
  <line class="fil3 str3" x1="6539" y1="15887" x2="7180" y2= "15887" />
  <line class="fil3 str3" x1="6539" y1="16027" x2="6814" y2= "16027" />
  <path class="fil6" d="M7774 15285c-1,167 134,304 302,305 168,1 305,-134 306,-302 1,-167 -134,-304 -302,-305 -168,-1 -305,134 -306,302z"/>
  <polyline class="fil3 str3" points="8033,15168 8157,15294 8030,15419 "/>
  <line class="fil3 str2" x1="14147" y1="14598" x2="14147" y2= "11907" />
  <line class="fil3 str2" x1="16097" y1="14598" x2="16097" y2= "11907" />
  <line class="fil3 str2" x1="13875" y1="12308" x2="16388" y2= "12308" />
  <line class="fil3 str2" x1="13875" y1="14343" x2="16388" y2= "14343" />
  <path class="fil3 str2" d="M17081 13897l122 0c167,0 289,-49 367,-146 78,-96 117,-244 117,-444 0,-186 -37,-324 -111,-414 -74,-89 -185,-135 -336,-135"/>
  <polyline class="fil3 str3" points="13144,13074 13754,13074 13754,13515 "/>
  <polyline class="fil3 str3" points="13802,12314 13802,12755 13144,12755 "/>
  <line class="fil3 str3" x1="13057" y1="12873" x2="13982" y2= "12873" />
  <polyline class="fil3 str3" points="3220,13142 3220,13584 2611,13584 "/>
  <polyline class="fil3 str3" points="2071,14346 2071,12314 3272,12314 3272,12755 2611,12755 "/>
  <polyline class="fil3 str2" points="8517,12314 9256,13726 9265,13726 "/>
  <path class="fil3 str3" d="M6370 13684c0,-128 -104,-232 -233,-232 -128,0 -232,104 -232,232 0,128 104,232 232,232 129,0 233,-104 233,-232z"/>
  <polyline class="fil3 str3" points="6010,13645 6109,13744 6267,13588 "/>
  <polygon class="fil3 str3" points="9003,16430 10581,16430 10581,15641 9003,15641 "/>
  <line class="fil3 str2" x1="9128" y1="15795" x2="10456" y2= "15795" />
  <line class="fil3 str2" x1="9128" y1="15949" x2="10456" y2= "15949" />
  <line class="fil3 str2" x1="9128" y1="16117" x2="10456" y2= "16117" />
  <line class="fil3 str3" x1="9462" y1="16268" x2="10094" y2= "16268" />
  <line class="fil3 str3" x1="10158" y1="16265" x2="10270" y2= "16265" />
  <line class="fil3 str3" x1="10348" y1="16265" x2="10459" y2= "16265" />
  <line class="fil3 str3" x1="9295" y1="16265" x2="9407" y2= "16265" />
  <line class="fil3 str3" x1="9127" y1="16265" x2="9239" y2= "16265" />
  <polyline class="fil3 str3" points="8959,14117 8692,14117 8692,14662 9234,14662 9234,14414 "/>
  <polyline class="fil3 str3" points="9007,14346 9244,14110 9277,14223 "/>
  <polygon class="fil3 str3" points="3573,11740 6181,11740 6181,10719 3573,10719 "/>
  <line class="fil3 str3" x1="3694" y1="10854" x2="4292" y2= "10854" />
  <line class="fil3 str3" x1="3573" y1="10984" x2="6181" y2= "10984" />
  <polygon class="fil3 str3" points="3721,11434 4018,11434 4018,11137 3721,11137 "/>
  <polygon class="fil7 str3" points="4334,11596 4798,11596 4798,11132 4334,11132 "/>
  <polygon class="fil6 str4" points="4924,11596 5387,11596 5387,11132 4924,11132 "/>
  <polygon class="fil2 str5" points="5513,11596 5977,11596 5977,11132 5513,11132 "/>
  <path class="fil6 str6" d="M11543 16827l371 -16c93,-111 224,-268 214,-527 -4,-268 -224,-407 -401,-402 -341,3 -417,216 -402,426 32,159 53,315 218,519z"/>
  <path class="fil3 str3" d="M11368 17551l0 -608c-252,-236 -198,-865 316,-915 271,-5 624,148 626,581l170 294 -142 0 0 235c2,54 -6,133 -79,137l-288 0 0 271"/>
  <line class="fil3 str3" x1="11714" y1="17545" x2="11714" y2= "17034" />
  <line class="fil3 str3" x1="11558" y1="17038" x2="11904" y2= "17038" />
  <line class="fil3 str3" x1="11466" y1="16931" x2="12001" y2= "16931" />
  <line class="fil3 str3" x1="11941" y1="16931" x2="11941" y2= "16819" />
  <line class="fil3 str3" x1="11455" y1="16820" x2="12003" y2= "16820" />
  <polyline class="fil3 str3" points="11606,16820 11518,16355 11934,16355 11836,16820 "/>
  <path class="fil3 str2" d="M9062 11423c0,-87 -71,-158 -158,-158 -87,0 -158,71 -158,158 0,87 71,158 158,158 87,0 158,-71 158,-158z"/>
  <line class="fil3 str7" x1="9777" y1="10631" x2="9850" y2= "10631" />
  <line class="fil3 str7" x1="9958" y1="10631" x2="10505" y2= "10631" />
  <line class="fil3 str7" x1="10612" y1="10629" x2="11930" y2= "10629" />
  <line class="fil3 str7" x1="10262" y1="10905" x2="10888" y2= "10905" />
  <path class="fil8" d="M3277 6050l0 851c0,185 -52,328 -157,430 -105,101 -256,152 -453,152 -193,0 -341,-49 -445,-148 -103,-98 -155,-240 -155,-425l0 -860 384 0 0 829c0,100 18,173 56,218 37,45 93,67 165,67 79,0 135,-22 170,-67 35,-44 53,-118 53,-220l0 -827 382 0zm913 1413l-290 -1018 -8 0c13,174 20,308 20,404l0 614 -339 0 0 -1413 509 0 295 1003 8 0 289 -1003 510 0 0 1413 -352 0 0 -619c0,-33 1,-68 2,-108 1,-39 5,-136 13,-289l-9 0 -285 1016 -363 0z"/>
  <path class="fil8" d="M6927 7034c0,88 -23,166 -67,234 -45,68 -109,121 -193,159 -83,37 -182,56 -294,56 -94,0 -174,-6 -237,-20 -64,-13 -130,-36 -199,-69l0 -341c72,38 148,67 227,88 78,21 151,31 216,31 57,0 99,-10 125,-29 26,-20 40,-45 40,-76 0,-19 -6,-36 -17,-50 -10,-15 -27,-30 -51,-44 -23,-15 -86,-46 -188,-91 -92,-42 -161,-83 -207,-122 -46,-39 -80,-85 -102,-136 -22,-50 -34,-111 -34,-180 0,-130 48,-232 142,-305 95,-73 225,-109 391,-109 146,0 295,33 448,101l-117 294c-133,-60 -247,-90 -343,-90 -49,0 -85,9 -108,26 -23,18 -34,39 -34,65 0,28 15,53 43,75 29,21 107,61 234,120 122,54 206,113 254,176 47,63 71,142 71,237zm1420 -984l0 851c0,185 -52,328 -157,430 -104,101 -256,152 -453,152 -193,0 -341,-49 -444,-148 -104,-98 -155,-240 -155,-425l0 -860 384 0 0 829c0,100 18,173 56,218 37,45 92,67 165,67 78,0 135,-22 170,-67 35,-44 52,-118 52,-220l0 -827 382 0zm1323 449c0,158 -47,280 -140,366 -93,86 -225,129 -397,129l-107 0 0 469 -382 0 0 -1413 489 0c179,0 313,39 403,116 89,79 134,189 134,333zm-644 184l69 0c58,0 104,-16 137,-48 34,-32 51,-77 51,-134 0,-95 -53,-143 -159,-143l-98 0 0 325zm1709 780l-840 0 0 -1413 840 0 0 306 -458 0 0 222 424 0 0 307 -424 0 0 268 458 0 0 310zm629 -514l0 514 -382 0 0 -1413 463 0c384,0 576,139 576,417 0,164 -79,290 -239,380l412 616 -433 0 -300 -514 -97 0zm0 -288l71 0c134,0 201,-59 201,-176 0,-98 -66,-146 -197,-146l-75 0 0 322z"/>
  <path class="fil9" d="M2914 9557l-839 0 0 -1414 839 0 0 307 -457 0 0 222 423 0 0 306 -423 0 0 268 457 0 0 311zm1042 -1414l427 0 -463 1414 -450 0 -461 -1414 429 0 193 716c39,160 62,271 66,333 4,-45 13,-101 27,-169 13,-68 25,-121 35,-160l197 -720zm1419 1414l-840 0 0 -1414 840 0 0 307 -458 0 0 222 424 0 0 306 -424 0 0 268 458 0 0 311zm1593 0l-501 0 -516 -996 -9 0c13,156 19,276 19,358l0 638 -339 0 0 -1414 499 0 514 982 6 0c-9,-142 -13,-256 -13,-343l0 -639 340 0 0 1414zm929 0l-381 0 0 -1101 -346 0 0 -313 1072 0 0 313 -345 0 0 1101zm1830 -709c0,238 -58,419 -175,543 -117,123 -288,185 -513,185 -221,0 -391,-62 -510,-186 -118,-125 -177,-306 -177,-544 0,-235 59,-415 176,-539 118,-124 289,-186 513,-186 225,0 396,62 512,185 116,123 174,304 174,542zm-973 0c0,273 95,410 285,410 97,0 169,-34 216,-100 46,-66 70,-170 70,-310 0,-142 -24,-246 -71,-313 -48,-67 -119,-101 -213,-101 -191,0 -287,138 -287,414z"/>
  <line class="fil3 str3" x1="9270" y1="14070" x2="9088" y2= "14098" />
  <polygon class="fil10" points="1978,20558 4233,20558 4233,18303 1978,18303 "/>
  <polygon class="fil11" points="1978,18381 2056,18381 2056,18303 1978,18303 "/>
  <polygon class="fil11" points="2056,18381 2133,18381 2133,18303 2056,18303 "/>
  <polygon class="fil11" points="2133,18381 2211,18381 2211,18303 2133,18303 "/>
  <polygon class="fil11" points="2211,18381 2289,18381 2289,18303 2211,18303 "/>
  <polygon class="fil11" points="2289,18381 2367,18381 2367,18303 2289,18303 "/>
  <polygon class="fil11" points="2367,18381 2444,18381 2444,18303 2367,18303 "/>
  <polygon class="fil11" points="2444,18381 2522,18381 2522,18303 2444,18303 "/>
  <polygon class="fil11" points="2600,18381 2678,18381 2678,18303 2600,18303 "/>
  <polygon class="fil11" points="2678,18381 2755,18381 2755,18303 2678,18303 "/>
  <polygon class="fil11" points="3067,18381 3144,18381 3144,18303 3067,18303 "/>
  <polygon class="fil11" points="3222,18381 3300,18381 3300,18303 3222,18303 "/>
  <polygon class="fil11" points="3300,18381 3378,18381 3378,18303 3300,18303 "/>
  <polygon class="fil11" points="3378,18381 3455,18381 3455,18303 3378,18303 "/>
  <polygon class="fil11" points="3455,18381 3533,18381 3533,18303 3455,18303 "/>
  <polygon class="fil11" points="3533,18381 3611,18381 3611,18303 3533,18303 "/>
  <polygon class="fil11" points="3689,18381 3766,18381 3766,18303 3689,18303 "/>
  <polygon class="fil11" points="3766,18381 3844,18381 3844,18303 3766,18303 "/>
  <polygon class="fil11" points="3844,18381 3922,18381 3922,18303 3844,18303 "/>
  <polygon class="fil11" points="3922,18381 4000,18381 4000,18303 3922,18303 "/>
  <polygon class="fil11" points="4000,18381 4078,18381 4078,18303 4000,18303 "/>
  <polygon class="fil11" points="4078,18381 4155,18381 4155,18303 4078,18303 "/>
  <polygon class="fil11" points="4155,18381 4233,18381 4233,18303 4155,18303 "/>
  <polygon class="fil11" points="1978,18459 2056,18459 2056,18381 1978,18381 "/>
  <polygon class="fil11" points="2444,18459 2522,18459 2522,18381 2444,18381 "/>
  <polygon class="fil11" points="3222,18459 3300,18459 3300,18381 3222,18381 "/>
  <polygon class="fil11" points="3300,18459 3378,18459 3378,18381 3300,18381 "/>
  <polygon class="fil11" points="3378,18459 3455,18459 3455,18381 3378,18381 "/>
  <polygon class="fil11" points="3689,18459 3766,18459 3766,18381 3689,18381 "/>
  <polygon class="fil11" points="4155,18459 4233,18459 4233,18381 4155,18381 "/>
  <polygon class="fil11" points="1978,18536 2056,18536 2056,18459 1978,18459 "/>
  <polygon class="fil11" points="2133,18536 2211,18536 2211,18459 2133,18459 "/>
  <polygon class="fil11" points="2211,18536 2289,18536 2289,18459 2211,18459 "/>
  <polygon class="fil11" points="2289,18536 2367,18536 2367,18459 2289,18459 "/>
  <polygon class="fil11" points="2444,18536 2522,18536 2522,18459 2444,18459 "/>
  <polygon class="fil11" points="2600,18536 2678,18536 2678,18459 2600,18459 "/>
  <polygon class="fil11" points="2833,18536 2911,18536 2911,18459 2833,18459 "/>
  <polygon class="fil11" points="2911,18536 2989,18536 2989,18459 2911,18459 "/>
  <polygon class="fil11" points="2989,18536 3067,18536 3067,18459 2989,18459 "/>
  <polygon class="fil11" points="3222,18536 3300,18536 3300,18459 3222,18459 "/>
  <polygon class="fil11" points="3378,18536 3455,18536 3455,18459 3378,18459 "/>
  <polygon class="fil11" points="3533,18536 3611,18536 3611,18459 3533,18459 "/>
  <polygon class="fil11" points="3689,18536 3766,18536 3766,18459 3689,18459 "/>
  <polygon class="fil11" points="3844,18536 3922,18536 3922,18459 3844,18459 "/>
  <polygon class="fil11" points="3922,18536 4000,18536 4000,18459 3922,18459 "/>
  <polygon class="fil11" points="4000,18536 4078,18536 4078,18459 4000,18459 "/>
  <polygon class="fil11" points="4155,18536 4233,18536 4233,18459 4155,18459 "/>
  <polygon class="fil11" points="1978,18614 2056,18614 2056,18536 1978,18536 "/>
  <polygon class="fil11" points="2133,18614 2211,18614 2211,18536 2133,18536 "/>
  <polygon class="fil11" points="2211,18614 2289,18614 2289,18536 2211,18536 "/>
  <polygon class="fil11" points="2289,18614 2367,18614 2367,18536 2289,18536 "/>
  <polygon class="fil11" points="2444,18614 2522,18614 2522,18536 2444,18536 "/>
  <polygon class="fil11" points="2600,18614 2678,18614 2678,18536 2600,18536 "/>
  <polygon class="fil11" points="2678,18614 2755,18614 2755,18536 2678,18536 "/>
  <polygon class="fil11" points="2833,18614 2911,18614 2911,18536 2833,18536 "/>
  <polygon class="fil11" points="2989,18614 3067,18614 3067,18536 2989,18536 "/>
  <polygon class="fil11" points="3067,18614 3144,18614 3144,18536 3067,18536 "/>
  <polygon class="fil11" points="3144,18614 3222,18614 3222,18536 3144,18536 "/>
  <polygon class="fil11" points="3300,18614 3378,18614 3378,18536 3300,18536 "/>
  <polygon class="fil11" points="3378,18614 3455,18614 3455,18536 3378,18536 "/>
  <polygon class="fil11" points="3455,18614 3533,18614 3533,18536 3455,18536 "/>
  <polygon class="fil11" points="3689,18614 3766,18614 3766,18536 3689,18536 "/>
  <polygon class="fil11" points="3844,18614 3922,18614 3922,18536 3844,18536 "/>
  <polygon class="fil11" points="3922,18614 4000,18614 4000,18536 3922,18536 "/>
  <polygon class="fil11" points="4000,18614 4078,18614 4078,18536 4000,18536 "/>
  <polygon class="fil11" points="4155,18614 4233,18614 4233,18536 4155,18536 "/>
  <polygon class="fil11" points="1978,18692 2056,18692 2056,18614 1978,18614 "/>
  <polygon class="fil11" points="2133,18692 2211,18692 2211,18614 2133,18614 "/>
  <polygon class="fil11" points="2211,18692 2289,18692 2289,18614 2211,18614 "/>
  <polygon class="fil11" points="2289,18692 2367,18692 2367,18614 2289,18614 "/>
  <polygon class="fil11" points="2444,18692 2522,18692 2522,18614 2444,18614 "/>
  <polygon class="fil11" points="2600,18692 2678,18692 2678,18614 2600,18614 "/>
  <polygon class="fil11" points="2678,18692 2755,18692 2755,18614 2678,18614 "/>
  <polygon class="fil11" points="2755,18692 2833,18692 2833,18614 2755,18614 "/>
  <polygon class="fil11" points="2833,18692 2911,18692 2911,18614 2833,18614 "/>
  <polygon class="fil11" points="3067,18692 3144,18692 3144,18614 3067,18614 "/>
  <polygon class="fil11" points="3144,18692 3222,18692 3222,18614 3144,18614 "/>
  <polygon class="fil11" points="3222,18692 3300,18692 3300,18614 3222,18614 "/>
  <polygon class="fil11" points="3455,18692 3533,18692 3533,18614 3455,18614 "/>
  <polygon class="fil11" points="3689,18692 3766,18692 3766,18614 3689,18614 "/>
  <polygon class="fil11" points="3844,18692 3922,18692 3922,18614 3844,18614 "/>
  <polygon class="fil11" points="3922,18692 4000,18692 4000,18614 3922,18614 "/>
  <polygon class="fil11" points="4000,18692 4078,18692 4078,18614 4000,18614 "/>
  <polygon class="fil11" points="4155,18692 4233,18692 4233,18614 4155,18614 "/>
  <polygon class="fil11" points="1978,18770 2056,18770 2056,18692 1978,18692 "/>
  <polygon class="fil11" points="2444,18770 2522,18770 2522,18692 2444,18692 "/>
  <polygon class="fil11" points="2678,18770 2755,18770 2755,18692 2678,18692 "/>
  <polygon class="fil11" points="2911,18770 2989,18770 2989,18692 2911,18692 "/>
  <polygon class="fil11" points="2989,18770 3067,18770 3067,18692 2989,18692 "/>
  <polygon class="fil11" points="3222,18770 3300,18770 3300,18692 3222,18692 "/>
  <polygon class="fil11" points="3300,18770 3378,18770 3378,18692 3300,18692 "/>
  <polygon class="fil11" points="3378,18770 3455,18770 3455,18692 3378,18692 "/>
  <polygon class="fil11" points="3455,18770 3533,18770 3533,18692 3455,18692 "/>
  <polygon class="fil11" points="3533,18770 3611,18770 3611,18692 3533,18692 "/>
  <polygon class="fil11" points="3689,18770 3766,18770 3766,18692 3689,18692 "/>
  <polygon class="fil11" points="4155,18770 4233,18770 4233,18692 4155,18692 "/>
  <polygon class="fil11" points="1978,18847 2056,18847 2056,18770 1978,18770 "/>
  <polygon class="fil11" points="2056,18847 2133,18847 2133,18770 2056,18770 "/>
  <polygon class="fil11" points="2133,18847 2211,18847 2211,18770 2133,18770 "/>
  <polygon class="fil11" points="2211,18847 2289,18847 2289,18770 2211,18770 "/>
  <polygon class="fil11" points="2289,18847 2367,18847 2367,18770 2289,18770 "/>
  <polygon class="fil11" points="2367,18847 2444,18847 2444,18770 2367,18770 "/>
  <polygon class="fil11" points="2444,18847 2522,18847 2522,18770 2444,18770 "/>
  <polygon class="fil11" points="2600,18847 2678,18847 2678,18770 2600,18770 "/>
  <polygon class="fil11" points="2755,18847 2833,18847 2833,18770 2755,18770 "/>
  <polygon class="fil11" points="2911,18847 2989,18847 2989,18770 2911,18770 "/>
  <polygon class="fil11" points="3067,18847 3144,18847 3144,18770 3067,18770 "/>
  <polygon class="fil11" points="3222,18847 3300,18847 3300,18770 3222,18770 "/>
  <polygon class="fil11" points="3378,18847 3455,18847 3455,18770 3378,18770 "/>
  <polygon class="fil11" points="3533,18847 3611,18847 3611,18770 3533,18770 "/>
  <polygon class="fil11" points="3689,18847 3766,18847 3766,18770 3689,18770 "/>
  <polygon class="fil11" points="3766,18847 3844,18847 3844,18770 3766,18770 "/>
  <polygon class="fil11" points="3844,18847 3922,18847 3922,18770 3844,18770 "/>
  <polygon class="fil11" points="3922,18847 4000,18847 4000,18770 3922,18770 "/>
  <polygon class="fil11" points="4000,18847 4078,18847 4078,18770 4000,18770 "/>
  <polygon class="fil11" points="4078,18847 4155,18847 4155,18770 4078,18770 "/>
  <polygon class="fil11" points="4155,18847 4233,18847 4233,18770 4155,18770 "/>
  <polygon class="fil11" points="2678,18925 2755,18925 2755,18847 2678,18847 "/>
  <polygon class="fil11" points="2833,18925 2911,18925 2911,18847 2833,18847 "/>
  <polygon class="fil11" points="3144,18925 3222,18925 3222,18847 3144,18847 "/>
  <polygon class="fil11" points="3222,18925 3300,18925 3300,18847 3222,18847 "/>
  <polygon class="fil11" points="3300,18925 3378,18925 3378,18847 3300,18847 "/>
  <polygon class="fil11" points="3455,18925 3533,18925 3533,18847 3455,18847 "/>
  <polygon class="fil11" points="3533,18925 3611,18925 3611,18847 3533,18847 "/>
  <polygon class="fil11" points="1978,19003 2056,19003 2056,18925 1978,18925 "/>
  <polygon class="fil11" points="2056,19003 2133,19003 2133,18925 2056,18925 "/>
  <polygon class="fil11" points="2133,19003 2211,19003 2211,18925 2133,18925 "/>
  <polygon class="fil11" points="2211,19003 2289,19003 2289,18925 2211,18925 "/>
  <polygon class="fil11" points="2444,19003 2522,19003 2522,18925 2444,18925 "/>
  <polygon class="fil11" points="2600,19003 2678,19003 2678,18925 2600,18925 "/>
  <polygon class="fil11" points="3067,19003 3144,19003 3144,18925 3067,18925 "/>
  <polygon class="fil11" points="3144,19003 3222,19003 3222,18925 3144,18925 "/>
  <polygon class="fil11" points="3222,19003 3300,19003 3300,18925 3222,18925 "/>
  <polygon class="fil11" points="3300,19003 3378,19003 3378,18925 3300,18925 "/>
  <polygon class="fil11" points="3378,19003 3455,19003 3455,18925 3378,18925 "/>
  <polygon class="fil11" points="3455,19003 3533,19003 3533,18925 3455,18925 "/>
  <polygon class="fil11" points="3611,19003 3689,19003 3689,18925 3611,18925 "/>
  <polygon class="fil11" points="3844,19003 3922,19003 3922,18925 3844,18925 "/>
  <polygon class="fil11" points="3922,19003 4000,19003 4000,18925 3922,18925 "/>
  <polygon class="fil11" points="4000,19003 4078,19003 4078,18925 4000,18925 "/>
  <polygon class="fil11" points="4155,19003 4233,19003 4233,18925 4155,18925 "/>
  <polygon class="fil11" points="2133,19081 2211,19081 2211,19003 2133,19003 "/>
  <polygon class="fil11" points="2289,19081 2367,19081 2367,19003 2289,19003 "/>
  <polygon class="fil11" points="2367,19081 2444,19081 2444,19003 2367,19003 "/>
  <polygon class="fil11" points="2522,19081 2600,19081 2600,19003 2522,19003 "/>
  <polygon class="fil11" points="2678,19081 2755,19081 2755,19003 2678,19003 "/>
  <polygon class="fil11" points="2989,19081 3067,19081 3067,19003 2989,19003 "/>
  <polygon class="fil11" points="3222,19081 3300,19081 3300,19003 3222,19003 "/>
  <polygon class="fil11" points="3378,19081 3455,19081 3455,19003 3378,19003 "/>
  <polygon class="fil11" points="3455,19081 3533,19081 3533,19003 3455,19003 "/>
  <polygon class="fil11" points="3533,19081 3611,19081 3611,19003 3533,19003 "/>
  <polygon class="fil11" points="3689,19081 3766,19081 3766,19003 3689,19003 "/>
  <polygon class="fil11" points="3766,19081 3844,19081 3844,19003 3766,19003 "/>
  <polygon class="fil11" points="3844,19081 3922,19081 3922,19003 3844,19003 "/>
  <polygon class="fil11" points="4155,19081 4233,19081 4233,19003 4155,19003 "/>
  <polygon class="fil11" points="2289,19158 2367,19158 2367,19081 2289,19081 "/>
  <polygon class="fil11" points="2367,19158 2444,19158 2444,19081 2367,19081 "/>
  <polygon class="fil11" points="2444,19158 2522,19158 2522,19081 2444,19081 "/>
  <polygon class="fil11" points="2522,19158 2600,19158 2600,19081 2522,19081 "/>
  <polygon class="fil11" points="2600,19158 2678,19158 2678,19081 2600,19081 "/>
  <polygon class="fil11" points="3533,19158 3611,19158 3611,19081 3533,19081 "/>
  <polygon class="fil11" points="3611,19158 3689,19158 3689,19081 3611,19081 "/>
  <polygon class="fil11" points="4000,19158 4078,19158 4078,19081 4000,19081 "/>
  <polygon class="fil11" points="4078,19158 4155,19158 4155,19081 4078,19081 "/>
  <polygon class="fil11" points="1978,19236 2056,19236 2056,19158 1978,19158 "/>
  <polygon class="fil11" points="2056,19236 2133,19236 2133,19158 2056,19158 "/>
  <polygon class="fil11" points="2367,19236 2444,19236 2444,19158 2367,19158 "/>
  <polygon class="fil11" points="2522,19236 2600,19236 2600,19158 2522,19158 "/>
  <polygon class="fil11" points="2600,19236 2678,19236 2678,19158 2600,19158 "/>
  <polygon class="fil11" points="2833,19236 2911,19236 2911,19158 2833,19158 "/>
  <polygon class="fil11" points="2911,19236 2989,19236 2989,19158 2911,19158 "/>
  <polygon class="fil11" points="2989,19236 3067,19236 3067,19158 2989,19158 "/>
  <polygon class="fil11" points="3144,19236 3222,19236 3222,19158 3144,19158 "/>
  <polygon class="fil11" points="3533,19236 3611,19236 3611,19158 3533,19158 "/>
  <polygon class="fil11" points="3766,19236 3844,19236 3844,19158 3766,19158 "/>
  <polygon class="fil11" points="3922,19236 4000,19236 4000,19158 3922,19158 "/>
  <polygon class="fil11" points="4155,19236 4233,19236 4233,19158 4155,19158 "/>
  <polygon class="fil11" points="1978,19314 2056,19314 2056,19236 1978,19236 "/>
  <polygon class="fil11" points="2211,19314 2289,19314 2289,19236 2211,19236 "/>
  <polygon class="fil11" points="2367,19314 2444,19314 2444,19236 2367,19236 "/>
  <polygon class="fil11" points="2444,19314 2522,19314 2522,19236 2444,19236 "/>
  <polygon class="fil11" points="2678,19314 2755,19314 2755,19236 2678,19236 "/>
  <polygon class="fil11" points="2833,19314 2911,19314 2911,19236 2833,19236 "/>
  <polygon class="fil11" points="3300,19314 3378,19314 3378,19236 3300,19236 "/>
  <polygon class="fil11" points="3455,19314 3533,19314 3533,19236 3455,19236 "/>
  <polygon class="fil11" points="3922,19314 4000,19314 4000,19236 3922,19236 "/>
  <polygon class="fil11" points="4000,19314 4078,19314 4078,19236 4000,19236 "/>
  <polygon class="fil11" points="1978,19392 2056,19392 2056,19314 1978,19314 "/>
  <polygon class="fil11" points="2056,19392 2133,19392 2133,19314 2056,19314 "/>
  <polygon class="fil11" points="2522,19392 2600,19392 2600,19314 2522,19314 "/>
  <polygon class="fil11" points="2678,19392 2755,19392 2755,19314 2678,19314 "/>
  <polygon class="fil11" points="2755,19392 2833,19392 2833,19314 2755,19314 "/>
  <polygon class="fil11" points="2833,19392 2911,19392 2911,19314 2833,19314 "/>
  <polygon class="fil11" points="2989,19392 3067,19392 3067,19314 2989,19314 "/>
  <polygon class="fil11" points="3067,19392 3144,19392 3144,19314 3067,19314 "/>
  <polygon class="fil11" points="3144,19392 3222,19392 3222,19314 3144,19314 "/>
  <polygon class="fil11" points="3222,19392 3300,19392 3300,19314 3222,19314 "/>
  <polygon class="fil11" points="3300,19392 3378,19392 3378,19314 3300,19314 "/>
  <polygon class="fil11" points="3378,19392 3455,19392 3455,19314 3378,19314 "/>
  <polygon class="fil11" points="3455,19392 3533,19392 3533,19314 3455,19314 "/>
  <polygon class="fil11" points="3533,19392 3611,19392 3611,19314 3533,19314 "/>
  <polygon class="fil11" points="3689,19392 3766,19392 3766,19314 3689,19314 "/>
  <polygon class="fil11" points="4078,19392 4155,19392 4155,19314 4078,19314 "/>
  <polygon class="fil11" points="4155,19392 4233,19392 4233,19314 4155,19314 "/>
  <polygon class="fil11" points="2211,19470 2289,19470 2289,19392 2211,19392 "/>
  <polygon class="fil11" points="2289,19470 2367,19470 2367,19392 2289,19392 "/>
  <polygon class="fil11" points="2444,19470 2522,19470 2522,19392 2444,19392 "/>
  <polygon class="fil11" points="2600,19470 2678,19470 2678,19392 2600,19392 "/>
  <polygon class="fil11" points="2755,19470 2833,19470 2833,19392 2755,19392 "/>
  <polygon class="fil11" points="2911,19470 2989,19470 2989,19392 2911,19392 "/>
  <polygon class="fil11" points="3067,19470 3144,19470 3144,19392 3067,19392 "/>
  <polygon class="fil11" points="3300,19470 3378,19470 3378,19392 3300,19392 "/>
  <polygon class="fil11" points="3455,19470 3533,19470 3533,19392 3455,19392 "/>
  <polygon class="fil11" points="3533,19470 3611,19470 3611,19392 3533,19392 "/>
  <polygon class="fil11" points="3611,19470 3689,19470 3689,19392 3611,19392 "/>
  <polygon class="fil11" points="3689,19470 3766,19470 3766,19392 3689,19392 "/>
  <polygon class="fil11" points="3844,19470 3922,19470 3922,19392 3844,19392 "/>
  <polygon class="fil11" points="3922,19470 4000,19470 4000,19392 3922,19392 "/>
  <polygon class="fil11" points="4000,19470 4078,19470 4078,19392 4000,19392 "/>
  <polygon class="fil11" points="4078,19470 4155,19470 4155,19392 4078,19392 "/>
  <polygon class="fil11" points="4155,19470 4233,19470 4233,19392 4155,19392 "/>
  <polygon class="fil11" points="1978,19547 2056,19547 2056,19470 1978,19470 "/>
  <polygon class="fil11" points="2056,19547 2133,19547 2133,19470 2056,19470 "/>
  <polygon class="fil11" points="2211,19547 2289,19547 2289,19470 2211,19470 "/>
  <polygon class="fil11" points="2289,19547 2367,19547 2367,19470 2289,19470 "/>
  <polygon class="fil11" points="2367,19547 2444,19547 2444,19470 2367,19470 "/>
  <polygon class="fil11" points="2522,19547 2600,19547 2600,19470 2522,19470 "/>
  <polygon class="fil11" points="2911,19547 2989,19547 2989,19470 2911,19470 "/>
  <polygon class="fil11" points="2989,19547 3067,19547 3067,19470 2989,19470 "/>
  <polygon class="fil11" points="3144,19547 3222,19547 3222,19470 3144,19470 "/>
  <polygon class="fil11" points="3378,19547 3455,19547 3455,19470 3378,19470 "/>
  <polygon class="fil11" points="3455,19547 3533,19547 3533,19470 3455,19470 "/>
  <polygon class="fil11" points="3766,19547 3844,19547 3844,19470 3766,19470 "/>
  <polygon class="fil11" points="4078,19547 4155,19547 4155,19470 4078,19470 "/>
  <polygon class="fil11" points="1978,19625 2056,19625 2056,19547 1978,19547 "/>
  <polygon class="fil11" points="2056,19625 2133,19625 2133,19547 2056,19547 "/>
  <polygon class="fil11" points="2367,19625 2444,19625 2444,19547 2367,19547 "/>
  <polygon class="fil11" points="2444,19625 2522,19625 2522,19547 2444,19547 "/>
  <polygon class="fil11" points="2522,19625 2600,19625 2600,19547 2522,19547 "/>
  <polygon class="fil11" points="2833,19625 2911,19625 2911,19547 2833,19547 "/>
  <polygon class="fil11" points="3144,19625 3222,19625 3222,19547 3144,19547 "/>
  <polygon class="fil11" points="3455,19625 3533,19625 3533,19547 3455,19547 "/>
  <polygon class="fil11" points="3533,19625 3611,19625 3611,19547 3533,19547 "/>
  <polygon class="fil11" points="3611,19625 3689,19625 3689,19547 3611,19547 "/>
  <polygon class="fil11" points="3766,19625 3844,19625 3844,19547 3766,19547 "/>
  <polygon class="fil11" points="3844,19625 3922,19625 3922,19547 3844,19547 "/>
  <polygon class="fil11" points="4078,19625 4155,19625 4155,19547 4078,19547 "/>
  <polygon class="fil11" points="2056,19703 2133,19703 2133,19625 2056,19625 "/>
  <polygon class="fil11" points="2133,19703 2211,19703 2211,19625 2133,19625 "/>
  <polygon class="fil11" points="2211,19703 2289,19703 2289,19625 2211,19625 "/>
  <polygon class="fil11" points="2522,19703 2600,19703 2600,19625 2522,19625 "/>
  <polygon class="fil11" points="2600,19703 2678,19703 2678,19625 2600,19625 "/>
  <polygon class="fil11" points="2755,19703 2833,19703 2833,19625 2755,19625 "/>
  <polygon class="fil11" points="2911,19703 2989,19703 2989,19625 2911,19625 "/>
  <polygon class="fil11" points="2989,19703 3067,19703 3067,19625 2989,19625 "/>
  <polygon class="fil11" points="3144,19703 3222,19703 3222,19625 3144,19625 "/>
  <polygon class="fil11" points="3300,19703 3378,19703 3378,19625 3300,19625 "/>
  <polygon class="fil11" points="3533,19703 3611,19703 3611,19625 3533,19625 "/>
  <polygon class="fil11" points="4000,19703 4078,19703 4078,19625 4000,19625 "/>
  <polygon class="fil11" points="4078,19703 4155,19703 4155,19625 4078,19625 "/>
  <polygon class="fil11" points="1978,19781 2056,19781 2056,19703 1978,19703 "/>
  <polygon class="fil11" points="2133,19781 2211,19781 2211,19703 2133,19703 "/>
  <polygon class="fil11" points="2211,19781 2289,19781 2289,19703 2211,19703 "/>
  <polygon class="fil11" points="2444,19781 2522,19781 2522,19703 2444,19703 "/>
  <polygon class="fil11" points="2522,19781 2600,19781 2600,19703 2522,19703 "/>
  <polygon class="fil11" points="2755,19781 2833,19781 2833,19703 2755,19703 "/>
  <polygon class="fil11" points="2833,19781 2911,19781 2911,19703 2833,19703 "/>
  <polygon class="fil11" points="2911,19781 2989,19781 2989,19703 2911,19703 "/>
  <polygon class="fil11" points="3144,19781 3222,19781 3222,19703 3144,19703 "/>
  <polygon class="fil11" points="3300,19781 3378,19781 3378,19703 3300,19703 "/>
  <polygon class="fil11" points="3533,19781 3611,19781 3611,19703 3533,19703 "/>
  <polygon class="fil11" points="3689,19781 3766,19781 3766,19703 3689,19703 "/>
  <polygon class="fil11" points="3766,19781 3844,19781 3844,19703 3766,19703 "/>
  <polygon class="fil11" points="3922,19781 4000,19781 4000,19703 3922,19703 "/>
  <polygon class="fil11" points="4000,19781 4078,19781 4078,19703 4000,19703 "/>
  <polygon class="fil11" points="2133,19858 2211,19858 2211,19781 2133,19781 "/>
  <polygon class="fil11" points="2211,19858 2289,19858 2289,19781 2211,19781 "/>
  <polygon class="fil11" points="2367,19858 2444,19858 2444,19781 2367,19781 "/>
  <polygon class="fil11" points="2522,19858 2600,19858 2600,19781 2522,19781 "/>
  <polygon class="fil11" points="2911,19858 2989,19858 2989,19781 2911,19781 "/>
  <polygon class="fil11" points="3222,19858 3300,19858 3300,19781 3222,19781 "/>
  <polygon class="fil11" points="3300,19858 3378,19858 3378,19781 3300,19781 "/>
  <polygon class="fil11" points="3378,19858 3455,19858 3455,19781 3378,19781 "/>
  <polygon class="fil11" points="3455,19858 3533,19858 3533,19781 3455,19781 "/>
  <polygon class="fil11" points="3533,19858 3611,19858 3611,19781 3533,19781 "/>
  <polygon class="fil11" points="3689,19858 3766,19858 3766,19781 3689,19781 "/>
  <polygon class="fil11" points="4000,19858 4078,19858 4078,19781 4000,19781 "/>
  <polygon class="fil11" points="2056,19936 2133,19936 2133,19858 2056,19858 "/>
  <polygon class="fil11" points="2133,19936 2211,19936 2211,19858 2133,19858 "/>
  <polygon class="fil11" points="2289,19936 2367,19936 2367,19858 2289,19858 "/>
  <polygon class="fil11" points="2367,19936 2444,19936 2444,19858 2367,19858 "/>
  <polygon class="fil11" points="2444,19936 2522,19936 2522,19858 2444,19858 "/>
  <polygon class="fil11" points="2600,19936 2678,19936 2678,19858 2600,19858 "/>
  <polygon class="fil11" points="2678,19936 2755,19936 2755,19858 2678,19858 "/>
  <polygon class="fil11" points="2833,19936 2911,19936 2911,19858 2833,19858 "/>
  <polygon class="fil11" points="2911,19936 2989,19936 2989,19858 2911,19858 "/>
  <polygon class="fil11" points="2989,19936 3067,19936 3067,19858 2989,19858 "/>
  <polygon class="fil11" points="3300,19936 3378,19936 3378,19858 3300,19858 "/>
  <polygon class="fil11" points="3378,19936 3455,19936 3455,19858 3378,19858 "/>
  <polygon class="fil11" points="3455,19936 3533,19936 3533,19858 3455,19858 "/>
  <polygon class="fil11" points="3533,19936 3611,19936 3611,19858 3533,19858 "/>
  <polygon class="fil11" points="3611,19936 3689,19936 3689,19858 3611,19858 "/>
  <polygon class="fil11" points="3689,19936 3766,19936 3766,19858 3689,19858 "/>
  <polygon class="fil11" points="3766,19936 3844,19936 3844,19858 3766,19858 "/>
  <polygon class="fil11" points="3844,19936 3922,19936 3922,19858 3844,19858 "/>
  <polygon class="fil11" points="3922,19936 4000,19936 4000,19858 3922,19858 "/>
  <polygon class="fil11" points="4000,19936 4078,19936 4078,19858 4000,19858 "/>
  <polygon class="fil11" points="2600,20014 2678,20014 2678,19936 2600,19936 "/>
  <polygon class="fil11" points="2911,20014 2989,20014 2989,19936 2911,19936 "/>
  <polygon class="fil11" points="2989,20014 3067,20014 3067,19936 2989,19936 "/>
  <polygon class="fil11" points="3067,20014 3144,20014 3144,19936 3067,19936 "/>
  <polygon class="fil11" points="3222,20014 3300,20014 3300,19936 3222,19936 "/>
  <polygon class="fil11" points="3378,20014 3455,20014 3455,19936 3378,19936 "/>
  <polygon class="fil11" points="3533,20014 3611,20014 3611,19936 3533,19936 "/>
  <polygon class="fil11" points="3844,20014 3922,20014 3922,19936 3844,19936 "/>
  <polygon class="fil11" points="3922,20014 4000,20014 4000,19936 3922,19936 "/>
  <polygon class="fil11" points="4000,20014 4078,20014 4078,19936 4000,19936 "/>
  <polygon class="fil11" points="4078,20014 4155,20014 4155,19936 4078,19936 "/>
  <polygon class="fil11" points="4155,20014 4233,20014 4233,19936 4155,19936 "/>
  <polygon class="fil11" points="1978,20092 2056,20092 2056,20014 1978,20014 "/>
  <polygon class="fil11" points="2056,20092 2133,20092 2133,20014 2056,20014 "/>
  <polygon class="fil11" points="2133,20092 2211,20092 2211,20014 2133,20014 "/>
  <polygon class="fil11" points="2211,20092 2289,20092 2289,20014 2211,20014 "/>
  <polygon class="fil11" points="2289,20092 2367,20092 2367,20014 2289,20014 "/>
  <polygon class="fil11" points="2367,20092 2444,20092 2444,20014 2367,20014 "/>
  <polygon class="fil11" points="2444,20092 2522,20092 2522,20014 2444,20014 "/>
  <polygon class="fil11" points="2755,20092 2833,20092 2833,20014 2755,20014 "/>
  <polygon class="fil11" points="2833,20092 2911,20092 2911,20014 2833,20014 "/>
  <polygon class="fil11" points="2911,20092 2989,20092 2989,20014 2911,20014 "/>
  <polygon class="fil11" points="2989,20092 3067,20092 3067,20014 2989,20014 "/>
  <polygon class="fil11" points="3378,20092 3455,20092 3455,20014 3378,20014 "/>
  <polygon class="fil11" points="3455,20092 3533,20092 3533,20014 3455,20014 "/>
  <polygon class="fil11" points="3533,20092 3611,20092 3611,20014 3533,20014 "/>
  <polygon class="fil11" points="3689,20092 3766,20092 3766,20014 3689,20014 "/>
  <polygon class="fil11" points="3844,20092 3922,20092 3922,20014 3844,20014 "/>
  <polygon class="fil11" points="3922,20092 4000,20092 4000,20014 3922,20014 "/>
  <polygon class="fil11" points="4078,20092 4155,20092 4155,20014 4078,20014 "/>
  <polygon class="fil11" points="1978,20169 2056,20169 2056,20092 1978,20092 "/>
  <polygon class="fil11" points="2444,20169 2522,20169 2522,20092 2444,20092 "/>
  <polygon class="fil11" points="3144,20169 3222,20169 3222,20092 3144,20092 "/>
  <polygon class="fil11" points="3533,20169 3611,20169 3611,20092 3533,20092 "/>
  <polygon class="fil11" points="3844,20169 3922,20169 3922,20092 3844,20092 "/>
  <polygon class="fil11" points="4078,20169 4155,20169 4155,20092 4078,20092 "/>
  <polygon class="fil11" points="1978,20247 2056,20247 2056,20169 1978,20169 "/>
  <polygon class="fil11" points="2133,20247 2211,20247 2211,20169 2133,20169 "/>
  <polygon class="fil11" points="2211,20247 2289,20247 2289,20169 2211,20169 "/>
  <polygon class="fil11" points="2289,20247 2367,20247 2367,20169 2289,20169 "/>
  <polygon class="fil11" points="2444,20247 2522,20247 2522,20169 2444,20169 "/>
  <polygon class="fil11" points="2678,20247 2755,20247 2755,20169 2678,20169 "/>
  <polygon class="fil11" points="2755,20247 2833,20247 2833,20169 2755,20169 "/>
  <polygon class="fil11" points="2911,20247 2989,20247 2989,20169 2911,20169 "/>
  <polygon class="fil11" points="3067,20247 3144,20247 3144,20169 3067,20169 "/>
  <polygon class="fil11" points="3300,20247 3378,20247 3378,20169 3300,20169 "/>
  <polygon class="fil11" points="3533,20247 3611,20247 3611,20169 3533,20169 "/>
  <polygon class="fil11" points="3611,20247 3689,20247 3689,20169 3611,20169 "/>
  <polygon class="fil11" points="3689,20247 3766,20247 3766,20169 3689,20169 "/>
  <polygon class="fil11" points="3766,20247 3844,20247 3844,20169 3766,20169 "/>
  <polygon class="fil11" points="3844,20247 3922,20247 3922,20169 3844,20169 "/>
  <polygon class="fil11" points="3922,20247 4000,20247 4000,20169 3922,20169 "/>
  <polygon class="fil11" points="4000,20247 4078,20247 4078,20169 4000,20169 "/>
  <polygon class="fil11" points="1978,20325 2056,20325 2056,20247 1978,20247 "/>
  <polygon class="fil11" points="2133,20325 2211,20325 2211,20247 2133,20247 "/>
  <polygon class="fil11" points="2211,20325 2289,20325 2289,20247 2211,20247 "/>
  <polygon class="fil11" points="2289,20325 2367,20325 2367,20247 2289,20247 "/>
  <polygon class="fil11" points="2444,20325 2522,20325 2522,20247 2444,20247 "/>
  <polygon class="fil11" points="2600,20325 2678,20325 2678,20247 2600,20247 "/>
  <polygon class="fil11" points="2755,20325 2833,20325 2833,20247 2755,20247 "/>
  <polygon class="fil11" points="2833,20325 2911,20325 2911,20247 2833,20247 "/>
  <polygon class="fil11" points="2911,20325 2989,20325 2989,20247 2911,20247 "/>
  <polygon class="fil11" points="3067,20325 3144,20325 3144,20247 3067,20247 "/>
  <polygon class="fil11" points="3144,20325 3222,20325 3222,20247 3144,20247 "/>
  <polygon class="fil11" points="3222,20325 3300,20325 3300,20247 3222,20247 "/>
  <polygon class="fil11" points="3300,20325 3378,20325 3378,20247 3300,20247 "/>
  <polygon class="fil11" points="3378,20325 3455,20325 3455,20247 3378,20247 "/>
  <polygon class="fil11" points="3455,20325 3533,20325 3533,20247 3455,20247 "/>
  <polygon class="fil11" points="3533,20325 3611,20325 3611,20247 3533,20247 "/>
  <polygon class="fil11" points="3611,20325 3689,20325 3689,20247 3611,20247 "/>
  <polygon class="fil11" points="3844,20325 3922,20325 3922,20247 3844,20247 "/>
  <polygon class="fil11" points="3922,20325 4000,20325 4000,20247 3922,20247 "/>
  <polygon class="fil11" points="4000,20325 4078,20325 4078,20247 4000,20247 "/>
  <polygon class="fil11" points="4155,20325 4233,20325 4233,20247 4155,20247 "/>
  <polygon class="fil11" points="1978,20403 2056,20403 2056,20325 1978,20325 "/>
  <polygon class="fil11" points="2133,20403 2211,20403 2211,20325 2133,20325 "/>
  <polygon class="fil11" points="2211,20403 2289,20403 2289,20325 2211,20325 "/>
  <polygon class="fil11" points="2289,20403 2367,20403 2367,20325 2289,20325 "/>
  <polygon class="fil11" points="2444,20403 2522,20403 2522,20325 2444,20325 "/>
  <polygon class="fil11" points="2600,20403 2678,20403 2678,20325 2600,20325 "/>
  <polygon class="fil11" points="2833,20403 2911,20403 2911,20325 2833,20325 "/>
  <polygon class="fil11" points="2989,20403 3067,20403 3067,20325 2989,20325 "/>
  <polygon class="fil11" points="3300,20403 3378,20403 3378,20325 3300,20325 "/>
  <polygon class="fil11" points="3455,20403 3533,20403 3533,20325 3455,20325 "/>
  <polygon class="fil11" points="3533,20403 3611,20403 3611,20325 3533,20325 "/>
  <polygon class="fil11" points="3611,20403 3689,20403 3689,20325 3611,20325 "/>
  <polygon class="fil11" points="3766,20403 3844,20403 3844,20325 3766,20325 "/>
  <polygon class="fil11" points="4000,20403 4078,20403 4078,20325 4000,20325 "/>
  <polygon class="fil11" points="4155,20403 4233,20403 4233,20325 4155,20325 "/>
  <polygon class="fil11" points="1978,20480 2056,20480 2056,20403 1978,20403 "/>
  <polygon class="fil11" points="2444,20480 2522,20480 2522,20403 2444,20403 "/>
  <polygon class="fil11" points="2600,20480 2678,20480 2678,20403 2600,20403 "/>
  <polygon class="fil11" points="2678,20480 2755,20480 2755,20403 2678,20403 "/>
  <polygon class="fil11" points="2833,20480 2911,20480 2911,20403 2833,20403 "/>
  <polygon class="fil11" points="3067,20480 3144,20480 3144,20403 3067,20403 "/>
  <polygon class="fil11" points="3222,20480 3300,20480 3300,20403 3222,20403 "/>
  <polygon class="fil11" points="3378,20480 3455,20480 3455,20403 3378,20403 "/>
  <polygon class="fil11" points="3533,20480 3611,20480 3611,20403 3533,20403 "/>
  <polygon class="fil11" points="3766,20480 3844,20480 3844,20403 3766,20403 "/>
  <polygon class="fil11" points="3922,20480 4000,20480 4000,20403 3922,20403 "/>
  <polygon class="fil11" points="4078,20480 4155,20480 4155,20403 4078,20403 "/>
  <polygon class="fil11" points="1978,20558 2056,20558 2056,20480 1978,20480 "/>
  <polygon class="fil11" points="2056,20558 2133,20558 2133,20480 2056,20480 "/>
  <polygon class="fil11" points="2133,20558 2211,20558 2211,20480 2133,20480 "/>
  <polygon class="fil11" points="2211,20558 2289,20558 2289,20480 2211,20480 "/>
  <polygon class="fil11" points="2289,20558 2367,20558 2367,20480 2289,20480 "/>
  <polygon class="fil11" points="2367,20558 2444,20558 2444,20480 2367,20480 "/>
  <polygon class="fil11" points="2444,20558 2522,20558 2522,20480 2444,20480 "/>
  <polygon class="fil11" points="2600,20558 2678,20558 2678,20480 2600,20480 "/>
  <polygon class="fil11" points="2678,20558 2755,20558 2755,20480 2678,20480 "/>
  <polygon class="fil11" points="2911,20558 2989,20558 2989,20480 2911,20480 "/>
  <polygon class="fil11" points="3067,20558 3144,20558 3144,20480 3067,20480 "/>
  <polygon class="fil11" points="3144,20558 3222,20558 3222,20480 3144,20480 "/>
  <polygon class="fil11" points="3378,20558 3455,20558 3455,20480 3378,20480 "/>
  <polygon class="fil11" points="3455,20558 3533,20558 3533,20480 3455,20480 "/>
  <polygon class="fil11" points="3533,20558 3611,20558 3611,20480 3533,20480 "/>
  <polygon class="fil11" points="3922,20558 4000,20558 4000,20480 3922,20480 "/>
  <polygon class="fil11" points="4078,20558 4155,20558 4155,20480 4078,20480 "/>
  <path class="fil12" d="M5347 20415l-161 0 -48 -220c-2,-9 -6,-27 -11,-54 -5,-28 -9,-50 -11,-69 -2,15 -5,34 -9,56 -4,22 -8,42 -12,61 -4,19 -21,94 -50,226l-161 0 -125 -504 132 0 54 253c13,56 21,100 26,133 3,-23 8,-55 16,-95 7,-41 15,-74 21,-100l45 -191 126 0 43 191c7,30 15,66 22,106 8,40 13,69 15,89 3,-25 12,-70 25,-133l56 -253 131 0 -124 504zm733 0l-161 0 -48 -220c-2,-9 -6,-27 -11,-54 -5,-28 -8,-50 -11,-69 -2,15 -5,34 -9,56 -4,22 -8,42 -12,61 -4,19 -21,94 -50,226l-161 0 -125 -504 132 0 54 253c13,56 21,100 26,133 3,-23 8,-55 16,-95 8,-41 15,-74 21,-100l45 -191 126 0 43 191c7,30 15,66 22,106 8,40 13,69 16,89 3,-25 11,-70 24,-133l56 -253 131 0 -124 504zm733 0l-161 0 -48 -220c-2,-9 -6,-27 -11,-54 -5,-28 -8,-50 -11,-69 -2,15 -4,34 -9,56 -4,22 -8,42 -12,61 -4,19 -21,94 -50,226l-161 0 -125 -504 132 0 54 253c13,56 21,100 26,133 3,-23 8,-55 16,-95 8,-41 15,-74 22,-100l44 -191 126 0 43 191c7,30 15,66 22,106 8,40 13,69 16,89 3,-25 11,-70 24,-133l56 -253 131 0 -124 504zm129 -57c0,-21 7,-38 19,-49 13,-12 31,-18 55,-18 22,0 40,6 52,18 12,11 18,28 18,49 0,20 -6,36 -18,48 -13,12 -30,17 -52,17 -23,0 -41,-5 -54,-17 -13,-11 -20,-27 -20,-48zm229 -447l176 0c68,0 119,10 152,31 34,20 50,52 50,95 0,28 -7,52 -22,72 -14,20 -33,33 -57,39l0 3c31,8 54,22 68,41 14,20 21,45 21,76 0,45 -17,81 -51,107 -35,27 -82,40 -141,40l-196 0 0 -504zm136 194l41 0c20,0 35,-4 46,-13 10,-8 16,-20 16,-35 0,-29 -22,-43 -65,-43l-38 0 0 91zm0 99l0 106 48 0c43,0 64,-18 64,-54 0,-17 -6,-30 -17,-39 -12,-9 -28,-13 -50,-13l-45 0zm339 211l0 -504 137 0 0 504 -137 0zm468 0l-136 0 0 -392 -123 0 0 -112 382 0 0 112 -123 0 0 392zm128 -57c0,-21 6,-38 19,-49 12,-12 30,-18 54,-18 23,0 40,6 53,18 12,11 18,28 18,49 0,20 -6,36 -19,48 -12,12 -30,17 -52,17 -22,0 -40,-5 -54,-17 -13,-11 -19,-27 -19,-48zm229 57l0 -504 136 0 0 394 194 0 0 110 -330 0zm569 -317l87 -187 147 0 -165 307 0 197 -138 0 0 -193 -165 -311 148 0 86 187zm545 -194l-188 518 -119 0 188 -518 119 0zm189 511l-134 0 0 -504 298 0 0 110 -164 0 0 96 151 0 0 109 -151 0 0 189zm383 -183l0 183 -136 0 0 -504 165 0c137,0 205,50 205,149 0,58 -28,103 -85,135l146 220 -154 0 -107 -183 -34 0zm0 -103l25 0c48,0 72,-21 72,-63 0,-35 -24,-52 -70,-52l-27 0 0 115zm813 33c0,85 -21,150 -63,194 -41,44 -102,66 -182,66 -79,0 -140,-22 -182,-67 -42,-44 -63,-108 -63,-193 0,-84 21,-148 63,-192 41,-44 102,-67 182,-67 81,0 141,22 183,66 41,44 62,109 62,193zm-347 0c0,98 34,146 102,146 34,0 60,-11 76,-35 17,-24 25,-61 25,-111 0,-50 -8,-87 -25,-111 -17,-24 -42,-36 -76,-36 -68,0 -102,49 -102,147zm917 253l-179 0 -183 -355 -3 0c4,56 6,98 6,128l0 227 -121 0 0 -504 178 0 183 350 3 0c-4,-51 -5,-91 -5,-122l0 -228 121 0 0 504zm331 0l-136 0 0 -392 -123 0 0 -112 382 0 0 112 -123 0 0 392zm195 0l0 -504 137 0 0 504 -137 0zm725 0l-179 0 -183 -355 -4 0c5,56 7,98 7,128l0 227 -121 0 0 -504 178 0 183 350 3 0c-4,-51 -5,-91 -5,-122l0 -228 121 0 0 504zm588 0l-178 0 -184 -355 -3 0c4,56 6,98 6,128l0 227 -120 0 0 -504 178 0 183 350 2 0c-3,-51 -5,-91 -5,-122l0 -228 121 0 0 504zm418 0l-24 -95 -164 0 -26 95 -149 0 164 -506 182 0 166 506 -149 0zm-53 -206l-21 -83c-6,-18 -12,-42 -19,-71 -7,-29 -12,-50 -14,-63 -2,12 -6,31 -12,58 -6,27 -20,80 -41,159l107 0zm430 206l-137 0 0 -392 -123 0 0 -112 382 0 0 112 -122 0 0 392zm454 0l-25 -95 -164 0 -25 95 -150 0 165 -506 181 0 167 506 -149 0zm-53 -206l-22 -83c-5,-18 -11,-42 -18,-71 -8,-29 -12,-50 -15,-63 -2,12 -6,31 -12,58 -6,27 -19,80 -40,159l107 0zm256 206l0 -504 136 0 0 394 194 0 0 110 -330 0z"/>
  <path class="fil9" d="M5136 18590c0,89 -15,155 -45,196 -30,41 -75,62 -137,62 -60,0 -106,-22 -136,-65 -31,-43 -46,-107 -46,-193 0,-90 15,-155 45,-197 30,-42 75,-63 137,-63 60,0 105,22 136,66 31,43 46,108 46,194zm-229 0c0,57 4,96 11,117 7,22 19,32 36,32 17,0 29,-11 36,-33 7,-22 10,-60 10,-116 0,-56 -3,-95 -10,-117 -7,-23 -19,-34 -36,-34 -17,0 -29,11 -36,32 -7,22 -11,61 -11,119zm644 -22c0,99 -21,170 -64,214 -42,44 -110,66 -204,66 -31,0 -54,-1 -70,-3l0 -108c20,3 39,5 59,5 49,0 87,-10 113,-30 26,-20 41,-52 43,-95l-4 0c-9,16 -18,28 -27,36 -8,7 -19,13 -32,16 -12,4 -28,6 -47,6 -44,0 -78,-14 -102,-43 -25,-30 -37,-70 -37,-121 0,-56 16,-99 48,-131 31,-32 75,-48 130,-48 62,0 110,21 143,62 34,41 51,99 51,174zm-190 -127c-15,0 -27,5 -36,16 -10,11 -14,28 -14,52 0,19 4,34 12,45 8,11 20,17 37,17 15,0 28,-6 39,-16 11,-11 16,-24 16,-39 0,-21 -5,-38 -15,-53 -10,-15 -23,-22 -39,-22zm878 137c0,85 -23,149 -69,195 -46,45 -111,68 -195,68l-163 0 0 -504 174 0c81,0 143,21 187,62 44,42 66,101 66,179zm-141 6c0,-47 -9,-81 -27,-103 -18,-22 -46,-34 -83,-34l-40 0 0 283 30 0c42,0 72,-12 91,-36 20,-24 29,-61 29,-110zm531 257l-299 0 0 -504 299 0 0 110 -163 0 0 79 151 0 0 109 -151 0 0 95 163 0 0 111zm232 158c-25,0 -49,-2 -71,-7l0 -106c7,1 15,3 23,5 9,1 18,2 27,2 23,0 39,-7 48,-20 10,-14 15,-37 15,-70l0 -466 137 0 0 455c0,68 -15,120 -45,155 -30,35 -75,52 -134,52zm716 -662l0 304c0,66 -19,117 -56,153 -37,36 -91,54 -162,54 -68,0 -121,-17 -158,-53 -37,-35 -55,-85 -55,-151l0 -307 137 0 0 296c0,35 6,61 20,77 13,17 33,25 58,25 28,0 48,-8 61,-24 13,-16 19,-43 19,-79l0 -295 136 0zm106 504l0 -504 136 0 0 394 193 0 0 110 -329 0zm842 0l-137 0 0 -205 -158 0 0 205 -137 0 0 -504 137 0 0 187 158 0 0 -187 137 0 0 504zm580 -252c0,84 -21,149 -62,193 -42,44 -103,66 -183,66 -79,0 -139,-22 -182,-66 -42,-45 -63,-109 -63,-194 0,-84 21,-148 63,-192 42,-44 103,-66 183,-66 80,0 141,22 182,65 41,44 62,109 62,194zm-346 -1c0,98 33,147 101,147 35,0 60,-12 77,-36 16,-24 25,-60 25,-111 0,-50 -9,-87 -26,-111 -16,-24 -42,-36 -75,-36 -68,0 -102,49 -102,147z"/>
  <path class="fil9" d="M5133 19631l-24 -94 -164 0 -25 94 -150 0 164 -506 182 0 166 506 -149 0zm-53 -206l-21 -82c-5,-19 -11,-43 -19,-72 -7,-29 -12,-50 -14,-63 -2,12 -6,32 -12,58 -6,27 -20,80 -41,159l107 0zm685 -297l0 303c0,66 -19,117 -56,153 -37,36 -91,54 -161,54 -69,0 -122,-17 -159,-52 -37,-35 -55,-86 -55,-152l0 -306 137 0 0 295c0,36 6,62 20,78 13,16 33,24 59,24 28,0 48,-8 60,-24 13,-16 19,-42 19,-79l0 -294 136 0zm533 241c0,84 -23,149 -69,194 -46,46 -111,68 -195,68l-163 0 0 -503 174 0c81,0 143,20 187,62 44,41 66,101 66,179zm-141 5c0,-46 -9,-81 -27,-103 -19,-22 -46,-33 -84,-33l-39 0 0 282 30 0c42,0 72,-12 91,-36 19,-24 29,-61 29,-110zm232 257l0 -503 136 0 0 503 -136 0zm467 0l-136 0 0 -392 -123 0 0 -111 382 0 0 111 -123 0 0 392zm652 -252c0,85 -20,149 -62,193 -42,44 -103,66 -183,66 -79,0 -139,-22 -182,-66 -42,-44 -63,-109 -63,-194 0,-84 21,-148 63,-192 42,-44 103,-66 183,-66 80,0 141,22 182,66 42,44 62,108 62,193zm-346 0c0,97 34,146 101,146 35,0 60,-12 77,-36 17,-23 25,-60 25,-110 0,-51 -8,-88 -25,-112 -17,-24 -43,-36 -76,-36 -68,0 -102,49 -102,148zm21 -292l0 -10c36,-38 58,-62 68,-73 9,-11 17,-21 23,-30l148 0 0 8c-19,14 -44,33 -76,56 -32,23 -56,39 -73,49l-90 0zm552 361l0 183 -136 0 0 -503 165 0c137,0 206,49 206,148 0,59 -29,104 -86,136l147 219 -154 0 -107 -183 -35 0zm0 -102l26 0c47,0 71,-21 71,-63 0,-35 -23,-52 -70,-52l-27 0 0 115zm342 285l0 -503 136 0 0 503 -136 0zm717 -252c0,85 -21,149 -63,193 -41,44 -102,66 -182,66 -79,0 -140,-22 -182,-66 -42,-44 -63,-109 -63,-194 0,-84 21,-148 63,-192 42,-44 102,-66 182,-66 81,0 141,22 183,66 41,44 62,108 62,193zm-347 0c0,97 34,146 102,146 34,0 60,-12 76,-36 17,-23 25,-60 25,-110 0,-51 -8,-88 -25,-112 -17,-24 -42,-36 -76,-36 -68,0 -102,49 -102,148zm1048 -10c0,84 -23,149 -69,194 -46,46 -111,68 -195,68l-163 0 0 -503 174 0c81,0 143,20 187,62 44,41 66,101 66,179zm-141 5c0,-46 -9,-81 -27,-103 -18,-22 -46,-33 -83,-33l-40 0 0 282 30 0c42,0 72,-12 91,-36 20,-24 29,-61 29,-110zm703 5c0,85 -21,149 -62,193 -42,44 -103,66 -183,66 -79,0 -140,-22 -182,-66 -42,-44 -63,-109 -63,-194 0,-84 21,-148 63,-192 42,-44 103,-66 183,-66 80,0 141,22 182,66 41,44 62,108 62,193zm-347 0c0,97 34,146 102,146 34,0 60,-12 77,-36 16,-23 25,-60 25,-110 0,-51 -9,-88 -26,-112 -17,-24 -42,-36 -75,-36 -69,0 -103,49 -103,148zm621 252l0 -503 137 0 0 503 -137 0zm380 0l-134 0 0 -503 297 0 0 109 -163 0 0 96 151 0 0 109 -151 0 0 189zm382 -183l0 183 -136 0 0 -503 165 0c137,0 206,49 206,148 0,59 -29,104 -86,136l147 219 -154 0 -107 -183 -35 0zm0 -102l26 0c47,0 71,-21 71,-63 0,-35 -23,-52 -70,-52l-27 0 0 115zm821 285l-178 0 -184 -355 -3 0c4,56 6,99 6,128l0 227 -120 0 0 -503 177 0 184 350 2 0c-4,-51 -5,-92 -5,-123l0 -227 121 0 0 503zm253 -135l0 -107 195 0 0 107 -195 0zm671 -264c-32,0 -57,13 -75,40 -19,26 -28,63 -28,110 0,96 37,145 111,145 22,0 44,-3 65,-9 21,-7 42,-14 63,-23l0 115c-42,19 -90,28 -143,28 -76,0 -134,-22 -175,-66 -40,-44 -61,-108 -61,-191 0,-52 10,-98 30,-137 19,-40 48,-70 85,-92 37,-21 80,-31 130,-31 54,0 106,11 156,35l-42 107c-18,-9 -37,-16 -56,-22 -18,-6 -38,-9 -60,-9zm533 399l-299 0 0 -503 299 0 0 109 -163 0 0 79 151 0 0 109 -151 0 0 96 163 0 0 110zm568 0l-179 0 -184 -355 -3 0c5,56 7,99 7,128l0 227 -121 0 0 -503 178 0 183 350 2 0c-3,-51 -5,-92 -5,-123l0 -227 122 0 0 503zm331 0l-136 0 0 -392 -123 0 0 -111 382 0 0 111 -123 0 0 392zm331 -183l0 183 -137 0 0 -503 166 0c136,0 205,49 205,148 0,59 -29,104 -85,136l146 219 -154 0 -107 -183 -34 0zm0 -102l25 0c48,0 72,-21 72,-63 0,-35 -24,-52 -71,-52l-26 0 0 115zm650 285l-25 -94 -163 0 -26 94 -149 0 164 -506 181 0 167 506 -149 0zm-53 -206l-22 -82c-5,-19 -11,-43 -18,-72 -7,-29 -12,-50 -14,-63 -3,12 -7,32 -13,58 -6,27 -19,80 -40,159l107 0zm256 206l0 -503 136 0 0 393 194 0 0 110 -330 0z"/>
  <rect class="fil13 str8" y="24748" width="21000" height="3528"/>
  <g id="_1103701907536">
   <path class="fil14" d="M1592 27334l-44 -768 249 -17 144 332 28 -350 232 28 -100 775 -177 0 -132 -182 11 193 -211 -11zm747 28l-39 -50 -33 -354 72 -66 271 39 28 -216 -56 -78 -105 0 -38 166 -172 -49 33 -255 67 -27 370 11 111 99 -72 631 99 83 -110 104 -94 -71 -33 39 -299 -6zm785 -6l-38 -553 -150 -5 0 -260 658 28 -27 293 -194 -6 -55 498 -194 5zm609 6l-39 -50 -33 -354 72 -66 271 39 27 -216 -55 -78 -105 0 -39 166 -171 -49 33 -255 66 -27 371 11 110 99 -72 631 100 83 -111 104 -94 -71 -33 39 -298 -6zm658 -33l-50 -752 332 -6 -45 564 266 0 -39 216 -464 -22z"/>
   <polygon class="fil15" points="3968,27216 3842,27215 3823,27178 3806,27070 3845,27040 3996,27064 4004,27194 "/>
   <polygon class="fil15" points="2561,27216 2436,27215 2417,27178 2399,27070 2438,27040 2590,27064 2597,27194 "/>
   <path class="fil15" d="M4966 27053l-214 4 202 -534 82 3 48 -107 33 -15c5,-52 3,-66 9,-116 0,-3 46,-33 45,-35 -13,-25 -35,-76 -36,-79 -1,-2 19,-21 19,-22 -81,-199 -99,-272 -272,-357 90,-76 102,-152 117,-207 35,-129 -22,-160 -125,-109 -47,-84 -235,-192 -433,-116 -20,-78 -58,-83 -81,-67 -165,108 -154,218 -129,332l-26 49c-256,20 -359,161 -481,307l-813 -114 -1603 106 142 780 8 761c254,6 512,-67 774,-72 331,-7 668,92 1003,90 60,0 165,-79 223,-67 55,11 176,32 259,32 126,1 134,-46 217,-55 352,-37 671,-13 1008,-13l24 -379z"/>
   <path class="fil16" d="M1571 26402l-23 -312 238 -4 -23 207 -125 7 0 23 32 -2 3 37 -32 0 -3 41 -67 3zm277 -3l-27 -295 175 -39 51 27 -12 211 -25 16 53 55 -62 32 -37 -53 -49 2 3 44 -70 0zm93 -96l46 -17 4 -81 -11 -18 -67 7 -9 21 11 78 26 10zm196 96l-23 -30 -19 -286 40 -28 154 0 35 33 -14 274 -25 33 -148 4zm57 -37l35 0 16 -9 7 -90 -12 -18 -55 0 -21 14 12 96 18 7zm183 33l-19 -321 104 -7 60 138 12 -146 97 12 -42 324 -74 0 -55 -76 4 80 -87 -4zm365 9l-17 -231 -62 -2 0 -109 275 12 -12 122 -81 -2 -23 208 -80 2zm443 -5l-12 -207 125 -3 -21 208 -92 2zm-21 -334c6,-15 15,-27 28,-35 14,-9 28,-13 44,-13 5,0 10,0 14,1 5,1 10,3 15,5 15,6 27,15 35,29 9,13 13,27 13,43 0,6 0,10 -1,15 -1,4 -2,9 -5,15 -6,14 -15,26 -29,35 -13,8 -28,13 -43,13 -6,0 -10,-1 -14,-2 -5,0 -10,-2 -16,-5 -14,-5 -26,-15 -34,-29 -9,-13 -14,-27 -14,-43 0,-5 1,-10 2,-14 0,-5 2,-10 5,-15zm198 330l-18 -321 104 -7 60 138 11 -146 97 12 -41 324 -74 0 -55 -76 4 80 -88 -4z"/>
   <path class="fil17" d="M4669 25948c16,-59 -24,-72 -64,-50 -32,18 -70,85 -30,110 32,30 107,-8 94,-60zm-79 187c-48,67 -382,150 -481,176 -93,24 -155,54 -101,-103 29,-87 72,-167 111,-248 6,21 -31,208 238,90 62,-26 223,-143 258,-192 24,-23 84,-70 103,-98 31,42 3,154 -18,208 -27,67 -67,120 -110,167z"/>
   <path class="fil18" d="M4946 25514c-12,37 -163,267 -186,283 -27,-76 10,-229 120,-298 14,-9 70,-38 92,-23 -9,12 -16,24 -26,38z"/>
   <path class="fil19" d="M4568 26156c77,-86 200,-265 150,-396l13 -7c7,22 8,43 14,65 21,6 53,2 64,8 -28,120 -69,179 -149,259 -20,19 -71,60 -92,71z"/>
   <path class="fil19" d="M4231 25553c26,-34 34,-141 125,-224 2,-1 10,-8 10,-8l3 -7c1,-2 1,-2 0,-3 31,-26 53,46 54,62 -87,87 -157,185 -178,241l-14 -61z"/>
   <path class="fil19" d="M4946 25514c10,-14 17,-26 26,-38 43,35 -13,246 -107,302 -17,10 -65,29 -93,22 29,-16 91,-78 115,-108 41,-52 64,-112 69,-182l-10 4z"/>
   <path class="fil19" d="M4119 25960l11 -22c7,34 -14,118 79,124 132,10 281,-108 406,-204 -90,126 -519,394 -496,102z"/>
   <path class="fil15" d="M4588 25990c41,5 66,-33 67,-77 -19,14 -8,20 -31,50 -9,12 -24,24 -36,27zm81 -42c-22,49 -46,66 -94,60 -40,-25 -2,-92 30,-110 40,-22 80,-9 64,50z"/>
   <path class="fil18" d="M4231 25553c7,-61 5,-99 42,-157 27,-41 66,-77 96,-85 1,1 1,1 0,3l-3 7c0,0 -8,7 -10,8 -91,83 -103,207 -125,224z"/>
   <path class="fil19" d="M4573 26007c47,6 79,-17 98,-65 13,62 -65,96 -98,65z"/>
   <path class="fil16" d="M1592 27334l-44 -768 249 -17 144 332 28 -350 232 28 -100 775 -177 0 -132 -182 11 193 -211 -11zm747 28l-39 -50 -33 -354 72 -66 271 39 28 -216 -56 -78 -105 0 -38 166 -172 -49 33 -255 67 -27 370 11 111 99 -72 631 99 83 -110 104 -94 -71 -33 39 -299 -6zm785 -6l-38 -553 -150 -5 0 -260 658 28 -27 293 -194 -6 -55 498 -194 5zm609 6l-39 -50 -33 -354 72 -66 271 39 27 -216 -55 -78 -105 0 -39 166 -171 -49 33 -255 66 -27 371 11 110 99 -72 631 100 83 -111 104 -94 -71 -33 39 -298 -6zm658 -33l-50 -752 332 -6 -45 564 266 0 -39 216 -464 -22z"/>
   <path class="fil20" d="M4848 25823c-88,235 -169,278 -316,387 -70,52 211,227 310,241 31,5 38,-2 52,-17 132,-138 174,-283 165,-400 0,-3 0,-6 -1,-9 -26,-75 -103,-164 -199,-208 -6,-3 -9,-1 -11,6z"/>
   <path class="fil20" d="M5089 26392c-61,25 -122,40 -180,57 28,-28 53,-56 74,-85 42,-27 84,-50 115,-70l-9 98zm-251 72l-4 0 1 -1 3 1z"/>
   <path class="fil20" d="M5064 26210c14,-14 32,-32 42,-38l26 69c3,6 -85,64 -128,92 27,-42 47,-83 60,-123z"/>
   <path class="fil20" d="M5115 26131c-10,14 -26,29 -42,44 10,-41 12,-80 8,-117 13,26 28,59 34,73z"/>
   <path class="fil20" d="M5019 26504l-113 -33c73,-17 78,-17 151,-42l-38 75z"/>
   <path class="fil20" d="M4131 25882c-55,87 -50,89 -105,205 -35,73 -214,87 -272,22 -18,-20 -26,-64 -16,-80 112,-171 240,-311 467,-332 -26,48 -63,127 -74,185z"/>
   <path class="fil20" d="M4729 25721c-153,158 -386,305 -462,317 -91,18 -129,-37 -115,-121 24,-140 139,-386 275,-512 28,-25 42,-28 80,-37 112,-25 278,14 352,120 -87,65 -107,127 -130,233z"/>
   <path class="fil18" d="M3714 26092c-53,193 171,246 267,65 -60,25 -233,50 -267,-65z"/>
   <path class="fil19" d="M3855 26447c-4,-4 -2,-1 -6,-8 -3,-5 -2,-5 -4,-11 -13,-47 -15,-94 -19,-141l-38 -7c13,58 23,100 47,151 2,5 6,14 9,18l13 15 -2 -17z"/>
   <path class="fil17" d="M3855 26447c-11,-57 -8,-112 -7,-162l-22 2c4,47 6,94 19,141 2,6 1,6 4,11 4,7 2,4 6,8z"/>
   <path class="fil19" d="M3760 26364c1,-1 1,-85 1,-91l-26 -10c3,34 8,72 25,101z"/>
   <path class="fil21" d="M3876 26284c17,24 36,51 57,66l-21 -80 -36 14z"/>
   <polygon class="fil15" points="2561,27216 2436,27215 2417,27178 2399,27070 2438,27040 2590,27064 2597,27194 "/>
   <path class="fil17" d="M3875 27085c3,14 9,16 22,19 10,-8 9,-7 12,-16 -9,-17 -23,-23 -34,-3zm-8 4c9,-31 37,-32 52,-4 -2,12 -3,25 -20,28 -15,2 -25,-10 -32,-24z"/>
   <path class="fil17" d="M3946 27092c2,15 9,17 22,20 10,-8 8,-7 12,-16 -9,-17 -23,-24 -34,-4zm-8 5c8,-31 37,-33 52,-4 -3,12 -4,24 -21,27 -14,3 -24,-9 -31,-23z"/>
   <ellipse class="fil15" transform="matrix(0.337576 -0.189644 0.0948223 0.168788 4557.81 26160.8)" rx="70" ry="74"/>
   <polygon class="fil15" points="4645,26566 4578,26566 4561,26636 "/>
   <polygon class="fil15" points="4711,26559 4655,26566 4656,26637 4648,26737 4711,26700 "/>
   <path class="fil18" d="M4525 26304c24,71 120,148 212,165 16,3 32,4 48,5 11,1 13,0 23,0 18,-1 15,1 17,4 -46,47 -190,50 -230,24 -48,-29 -87,-138 -79,-208l9 10z"/>
   <path class="fil19" d="M4825 26478c-2,-3 1,-5 -17,-4 -10,0 -12,1 -23,0 -16,-1 -32,-2 -48,-5 -92,-17 -188,-94 -212,-165 20,14 38,36 59,53 65,52 164,105 247,111l-6 10z"/>
   <path class="fil19" d="M4665 26698c4,-3 2,-1 7,-8 3,-5 2,-5 4,-11 14,-47 17,-90 21,-137l42 -1c-14,58 -25,90 -52,142 -2,4 -7,14 -9,17l-15 15 2 -17z"/>
   <path class="fil17" d="M4665 26698c12,-56 9,-107 8,-156l24 0c-4,47 -7,90 -21,137 -2,6 -1,6 -4,11 -5,7 -3,5 -7,8z"/>
   <path class="fil19" d="M4768 26630c-1,-2 -1,-89 -1,-95l29 -7c-4,34 -9,72 -28,102z"/>
   <path class="fil21" d="M4638 26538c-19,25 -35,49 -58,63l22 -73 36 10z"/>
   <polygon class="fil15" points="3971,27216 3845,27215 3826,27178 3809,27070 3848,27040 3999,27064 4007,27194 "/>
  </g>
  <path class="fil9" d="M8666 25560c0,28 -8,50 -24,65 -17,16 -41,23 -71,23l-19 0 0 84 -68 0 0 -252 87 0c32,0 56,7 72,21 15,14 23,34 23,59zm-114 33l12 0c10,0 19,-3 25,-9 6,-5 9,-13 9,-23 0,-17 -10,-26 -29,-26l-17 0 0 58zm291 139l-12 -47 -82 0 -12 47 -75 0 82 -253 91 0 83 253 -75 0zm-26 -103l-11 -41c-2,-10 -5,-21 -9,-36 -4,-15 -6,-25 -7,-31 -1,5 -3,15 -6,29 -3,13 -10,40 -21,79l54 0zm215 103l-68 0 0 -196 -62 0 0 -56 191 0 0 56 -61 0 0 196zm165 -92l0 92 -68 0 0 -252 82 0c69,0 103,25 103,75 0,29 -14,51 -43,67l74 110 -77 0 -54 -92 -17 0zm0 -51l13 0c24,0 35,-10 35,-31 0,-18 -11,-26 -35,-26l-13 0 0 57zm406 17c0,42 -10,74 -31,96 -21,23 -51,34 -91,34 -40,0 -70,-12 -91,-34 -21,-22 -32,-54 -32,-96 0,-42 11,-74 32,-97 21,-22 51,-33 91,-33 40,0 71,11 91,33 21,22 31,54 31,97zm-173 0c0,48 17,73 51,73 17,0 30,-6 38,-18 9,-12 13,-30 13,-55 0,-25 -5,-44 -13,-56 -8,-12 -21,-18 -38,-18 -34,0 -51,25 -51,74zm331 -74c-16,0 -29,7 -38,20 -9,14 -14,32 -14,55 0,49 19,73 56,73 11,0 22,-2 32,-5 11,-3 21,-7 32,-11l0 58c-21,9 -45,14 -72,14 -38,0 -67,-11 -87,-34 -20,-22 -30,-53 -30,-95 0,-26 4,-49 14,-69 10,-20 24,-35 43,-45 18,-11 40,-16 65,-16 27,0 53,6 78,17l-21 54c-9,-5 -19,-8 -28,-11 -9,-3 -19,-5 -30,-5zm117 200l0 -252 68 0 0 252 -68 0zm362 0l-89 0 -92 -177 -1 0c2,28 3,49 3,64l0 113 -60 0 0 -252 88 0 92 175 1 0c-2,-25 -2,-46 -2,-61l0 -114 60 0 0 252zm209 0l-12 -47 -82 0 -13 47 -74 0 82 -253 90 0 84 253 -75 0zm-26 -103l-11 -41c-3,-10 -6,-21 -9,-36 -4,-15 -6,-25 -7,-31 -1,5 -4,15 -7,29 -3,13 -9,40 -20,79l54 0zm342 -28c0,42 -12,74 -35,97 -23,23 -56,34 -98,34l-81 0 0 -252 87 0c41,0 72,11 94,31 22,21 33,51 33,90zm-71 2c0,-23 -4,-40 -14,-51 -9,-11 -23,-17 -41,-17l-20 0 0 141 15 0c21,0 36,-6 46,-18 9,-12 14,-30 14,-55zm351 3c0,42 -10,74 -31,96 -20,23 -51,34 -91,34 -40,0 -70,-12 -91,-34 -21,-22 -31,-54 -31,-96 0,-42 10,-74 31,-97 21,-22 51,-33 91,-33 40,0 71,11 91,33 21,22 31,54 31,97zm-173 0c0,48 17,73 51,73 17,0 30,-6 38,-18 9,-12 13,-30 13,-55 0,-25 -4,-44 -13,-56 -8,-12 -21,-18 -38,-18 -34,0 -51,25 -51,74zm287 34l0 92 -68 0 0 -252 82 0c69,0 103,25 103,75 0,29 -14,51 -43,67l74 110 -77 0 -54 -92 -17 0zm0 -51l13 0c24,0 35,-10 35,-31 0,-18 -11,-26 -35,-26l-13 0 0 57zm320 143l-149 0 0 -252 149 0 0 55 -81 0 0 39 75 0 0 55 -75 0 0 48 81 0 0 55zm209 -76c0,15 -4,29 -12,41 -8,12 -19,22 -34,29 -15,6 -33,10 -53,10 -16,0 -31,-2 -42,-4 -11,-2 -23,-6 -35,-12l0 -61c13,7 26,12 40,16 14,3 27,5 39,5 10,0 17,-2 22,-5 5,-4 7,-8 7,-14 0,-3 -1,-6 -3,-9 -2,-2 -5,-5 -9,-7 -4,-3 -15,-8 -34,-17 -16,-7 -28,-14 -37,-21 -8,-7 -14,-15 -18,-24 -4,-9 -6,-20 -6,-33 0,-23 9,-41 26,-54 16,-13 40,-19 69,-19 26,0 53,6 80,18l-21 52c-23,-11 -44,-16 -61,-16 -9,0 -15,2 -19,5 -4,3 -6,7 -6,11 0,5 2,10 8,14 5,3 18,11 41,21 22,10 37,20 45,31 9,12 13,26 13,43z"/>
  <path class="fil9" d="M18120 25727l-13 -47 -82 0 -12 47 -75 0 82 -253 91 0 83 253 -74 0zm-27 -103l-11 -41c-2,-10 -5,-22 -9,-36 -3,-15 -6,-25 -7,-32 -1,6 -3,16 -6,29 -3,14 -10,40 -20,80l53 0zm311 -69c0,28 -8,50 -25,65 -16,16 -40,23 -70,23l-20 0 0 84 -68 0 0 -252 88 0c31,0 55,7 71,21 16,14 24,34 24,59zm-115 33l13 0c10,0 18,-3 24,-9 6,-5 9,-13 9,-23 0,-17 -9,-26 -28,-26l-18 0 0 58zm391 13c0,42 -10,74 -31,96 -21,22 -51,33 -92,33 -39,0 -69,-11 -90,-33 -22,-22 -32,-54 -32,-97 0,-42 10,-74 31,-96 21,-22 52,-33 92,-33 40,0 70,11 91,33 21,22 31,54 31,97zm-173 0c0,48 17,73 50,73 18,0 30,-6 39,-18 8,-12 12,-30 12,-55 0,-26 -4,-44 -12,-56 -9,-12 -21,-18 -38,-18 -34,0 -51,24 -51,74zm218 126l0 -252 69 0 0 252 -69 0zm359 -126c0,42 -11,74 -31,96 -21,22 -52,33 -92,33 -39,0 -69,-11 -91,-33 -21,-22 -31,-54 -31,-97 0,-42 10,-74 31,-96 21,-22 52,-33 92,-33 40,0 70,11 91,33 21,22 31,54 31,97zm-173 0c0,48 16,73 50,73 18,0 30,-6 39,-18 8,-12 12,-30 12,-55 0,-26 -4,-44 -12,-56 -9,-12 -22,-18 -38,-18 -34,0 -51,24 -51,74z"/>
  <g id="_1103701895312">
   <path class="fil22" d="M17889 26383c0,10 -8,18 -18,18l-139 0c-10,0 -18,-8 -18,-18l0 -139c0,-10 8,-18 18,-18l139 0c10,0 18,8 18,18l0 139z"/>
   <path class="fil22" d="M18098 26383c0,10 -8,18 -18,18l-139 0c-10,0 -17,-8 -17,-18l0 -139c0,-10 7,-18 17,-18l139 0c10,0 18,8 18,18l0 139z"/>
   <path class="fil22" d="M18098 26800c0,10 -8,18 -18,18l-139 0c-10,0 -17,-8 -17,-18l0 -139c0,-10 7,-18 17,-18l139 0c10,0 18,8 18,18l0 139z"/>
   <path class="fil22" d="M17681 26591c0,9 -8,17 -17,17l-140 0c-9,0 -17,-8 -17,-17l0 -140c0,-9 8,-17 17,-17l140 0c9,0 17,8 17,17l0 140z"/>
   <path class="fil22" d="M17889 26591c0,9 -8,17 -18,17l-139 0c-10,0 -18,-8 -18,-17l0 -140c0,-9 8,-17 18,-17l139 0c10,0 18,8 18,17l0 140z"/>
   <path class="fil22" d="M17681 26800c0,10 -8,18 -17,18l-140 0c-9,0 -17,-8 -17,-18l0 -139c0,-10 8,-18 17,-18l140 0c9,0 17,8 17,18l0 139z"/>
   <path class="fil22" d="M17889 26800c0,10 -8,18 -18,18l-139 0c-10,0 -18,-8 -18,-18l0 -139c0,-10 8,-18 18,-18l139 0c10,0 18,8 18,18l0 139z"/>
   <path class="fil22" d="M17681 27009c0,10 -8,18 -17,18l-140 0c-9,0 -17,-8 -17,-18l0 -139c0,-10 8,-17 17,-17l140 0c9,0 17,7 17,17l0 139z"/>
   <path class="fil22" d="M17889 27009c0,10 -8,18 -18,18l-139 0c-10,0 -18,-8 -18,-18l0 -139c0,-10 8,-17 18,-17l139 0c10,0 18,7 18,17l0 139z"/>
   <path class="fil23" d="M17689 26314c0,52 -43,95 -95,95 -53,0 -95,-43 -95,-95 0,-53 42,-96 95,-96 52,0 95,43 95,96z"/>
   <polygon class="fil24" points="18228,26817 18265,26817 18265,26644 18228,26644 "/>
   <path class="fil24" d="M18463 26817l-47 0 -75 -131 -1 0c1,24 2,40 2,50l0 81 -33 0 0 -173 47 0 75 130 1 0c-1,-23 -2,-39 -2,-48l0 -82 33 0 0 173z"/>
   <path class="fil24" d="M18609 26769c0,16 -6,28 -17,37 -11,9 -27,14 -47,14 -18,0 -35,-4 -49,-11l0 -34c12,5 22,9 30,11 8,2 15,3 22,3 8,0 14,-1 18,-4 5,-3 7,-8 7,-14 0,-3 -1,-6 -3,-9 -2,-3 -5,-5 -8,-8 -4,-2 -12,-6 -23,-11 -10,-5 -18,-10 -24,-15 -5,-4 -9,-10 -12,-16 -3,-6 -5,-13 -5,-21 0,-15 5,-27 16,-36 10,-9 24,-13 43,-13 9,0 17,1 25,3 9,2 17,5 26,9l-12 29c-9,-4 -17,-7 -23,-8 -6,-2 -12,-3 -18,-3 -7,0 -12,2 -16,5 -3,3 -5,8 -5,13 0,3 1,6 2,8 2,3 4,5 7,7 4,3 11,7 24,12 16,8 27,16 33,24 6,7 9,17 9,28z"/>
   <polygon class="fil24" points="18708,26817 18671,26817 18671,26675 18624,26675 18624,26644 18755,26644 18755,26675 18708,26675 "/>
   <polygon class="fil24" points="18782,26817 18818,26817 18818,26644 18782,26644 "/>
   <polygon class="fil24" points="18929,26817 18892,26817 18892,26675 18845,26675 18845,26644 18976,26644 18976,26675 18929,26675 "/>
   <path class="fil24" d="M19144 26644l0 112c0,13 -3,24 -8,34 -6,9 -14,17 -25,22 -11,5 -24,8 -39,8 -22,0 -39,-6 -51,-17 -13,-12 -19,-27 -19,-47l0 -112 37 0 0 106c0,14 2,23 8,30 5,6 14,9 26,9 12,0 21,-3 27,-10 5,-6 8,-16 8,-29l0 -106 36 0z"/>
   <polygon class="fil24" points="19253,26817 19216,26817 19216,26675 19169,26675 19169,26644 19300,26644 19300,26675 19253,26675 "/>
   <path class="fil24" d="M19358 26731c0,19 4,33 11,43 7,10 18,15 33,15 29,0 44,-20 44,-58 0,-39 -15,-59 -44,-59 -14,0 -25,5 -33,15 -7,10 -11,24 -11,44zm126 0c0,28 -7,50 -21,66 -14,15 -34,23 -61,23 -27,0 -47,-8 -61,-23 -14,-16 -21,-38 -21,-67 0,-28 7,-50 21,-66 14,-15 35,-22 61,-22 27,0 47,7 61,23 14,15 21,37 21,66z"/>
   <polygon class="fil24" points="19619,26817 19583,26817 19583,26644 19683,26644 19683,26674 19619,26674 19619,26719 19678,26719 19678,26749 19619,26749 "/>
   <polygon class="fil24" points="19818,26817 19718,26817 19718,26644 19818,26644 19818,26674 19755,26674 19755,26712 19813,26712 19813,26742 19755,26742 19755,26787 19818,26787 "/>
   <path class="fil24" d="M19959 26730c0,-37 -16,-56 -49,-56l-20 0 0 113 16 0c36,0 53,-19 53,-57zm38 -1c0,29 -8,50 -24,66 -16,15 -40,22 -70,22l-49 0 0 -173 54 0c28,0 50,8 66,23 16,15 23,35 23,62z"/>
   <polygon class="fil24" points="20133,26817 20033,26817 20033,26644 20133,26644 20133,26674 20070,26674 20070,26712 20129,26712 20129,26742 20070,26742 20070,26787 20133,26787 "/>
   <path class="fil24" d="M20206 26721l12 0c11,0 20,-2 25,-6 6,-4 9,-10 9,-18 0,-8 -3,-14 -9,-17 -5,-4 -14,-6 -26,-6l-11 0 0 47zm0 30l0 66 -37 0 0 -173 51 0c23,0 41,5 52,13 11,9 17,22 17,39 0,10 -3,19 -9,27 -5,8 -13,14 -23,19 26,39 43,64 50,75l-40 0 -42 -66 -19 0z"/>
   <path class="fil24" d="M20415 26745c-11,-37 -18,-58 -19,-63 -2,-5 -3,-9 -3,-12 -3,11 -10,36 -23,75l45 0zm22 72l-13 -41 -63 0 -12 41 -40 0 61 -173 45 0 61 173 -39 0z"/>
   <polygon class="fil24" points="20498,26817 20498,26644 20534,26644 20534,26787 20604,26787 20604,26817 "/>
   <path class="fil24" d="M18244 26959l20 0c11,0 19,-2 23,-6 5,-4 8,-11 8,-19 0,-9 -3,-15 -8,-19 -5,-4 -13,-6 -24,-6l-19 0 0 50zm0 13l0 55 -15 0 0 -131 35 0c16,0 27,3 35,9 8,6 11,16 11,28 0,17 -8,29 -26,35l35 59 -17 0 -31 -55 -27 0z"/>
   <path class="fil24" d="M18353 27027l-15 0 0 -98 15 0 0 98zm-16 -125c0,-3 1,-6 2,-7 2,-2 4,-3 6,-3 3,0 5,1 6,3 2,1 3,4 3,7 0,3 -1,6 -3,8 -1,1 -3,2 -6,2 -2,0 -4,-1 -6,-2 -1,-2 -2,-5 -2,-8z"/>
   <path class="fil24" d="M18393 26978c0,12 3,22 8,28 5,7 12,10 21,10 10,0 17,-3 22,-10 5,-6 8,-16 8,-28 0,-13 -3,-22 -8,-29 -5,-6 -12,-9 -22,-9 -9,0 -16,3 -21,9 -5,6 -8,16 -8,29zm74 0c0,16 -4,28 -12,37 -8,9 -19,13 -33,13 -9,0 -16,-2 -23,-6 -7,-4 -12,-10 -15,-17 -4,-8 -6,-17 -6,-27 0,-16 4,-29 12,-38 8,-9 19,-13 33,-13 13,0 24,4 32,14 8,9 12,21 12,37z"/>
   <path class="fil24" d="M18598 26958l44 0 0 64c-7,2 -14,4 -21,5 -7,1 -15,1 -24,1 -20,0 -35,-5 -46,-17 -11,-12 -16,-29 -16,-50 0,-13 2,-25 8,-35 5,-11 13,-18 23,-24 10,-5 22,-8 36,-8 13,0 26,3 38,8l-6 13c-12,-5 -23,-7 -33,-7 -16,0 -28,4 -37,14 -9,9 -13,23 -13,39 0,18 4,31 12,40 9,10 21,14 38,14 9,0 17,-1 26,-3l0 -40 -29 0 0 -14z"/>
   <path class="fil24" d="M18715 26927c4,0 8,0 11,1l-2 14c-4,-1 -7,-2 -11,-2 -7,0 -14,4 -20,10 -5,6 -8,14 -8,24l0 53 -14 0 0 -98 12 0 1 18 1 0c4,-7 8,-11 13,-15 5,-3 10,-5 17,-5z"/>
   <path class="fil24" d="M18770 27016c10,0 17,-2 22,-7 5,-5 8,-13 8,-22l0 -9 -15 1c-12,0 -20,2 -25,6 -5,3 -8,8 -8,15 0,5 2,9 5,12 3,3 8,4 13,4zm33 11l-2 -14 -1 0c-5,6 -10,10 -15,12 -4,2 -10,3 -17,3 -10,0 -18,-2 -23,-7 -5,-5 -8,-12 -8,-21 0,-20 15,-31 47,-32l16 0 0 -6c0,-8 -2,-14 -5,-17 -3,-4 -8,-6 -16,-6 -8,0 -17,3 -27,8l-4 -12c4,-2 10,-4 15,-6 6,-1 12,-2 17,-2 12,0 20,3 26,8 5,5 8,13 8,25l0 67 -11 0z"/>
   <path class="fil24" d="M18910 27027l0 -64c0,-8 -1,-14 -5,-18 -4,-4 -9,-5 -17,-5 -10,0 -17,2 -22,8 -5,5 -7,15 -7,27l0 52 -15 0 0 -98 12 0 3 13 0 0c3,-5 8,-8 13,-11 5,-3 11,-4 18,-4 12,0 20,3 26,8 6,6 9,15 9,28l0 64 -15 0z"/>
   <path class="fil24" d="M18991 27016c10,0 18,-3 22,-8 5,-6 7,-15 7,-27l0 -3c0,-14 -2,-24 -7,-30 -4,-6 -12,-9 -22,-9 -8,0 -15,4 -19,10 -5,7 -7,17 -7,29 0,13 2,22 7,28 4,7 11,10 19,10zm30 -3l-1 0c-7,10 -17,15 -30,15 -13,0 -23,-4 -30,-13 -7,-8 -10,-21 -10,-37 0,-16 3,-29 10,-38 7,-9 17,-13 30,-13 13,0 23,5 30,14l1 0 -1 -7 0 -7 0 -39 14 0 0 139 -11 0 -2 -14z"/>
   <path class="fil24" d="M19102 26939c-7,0 -14,3 -18,8 -5,5 -8,12 -8,21l50 0c0,-9 -2,-16 -6,-21 -4,-5 -10,-8 -18,-8zm4 89c-14,0 -25,-4 -34,-13 -8,-9 -12,-21 -12,-37 0,-15 4,-28 12,-37 7,-9 18,-14 30,-14 13,0 22,4 29,12 7,8 11,19 11,32l0 9 -67 0c1,12 3,21 9,27 5,5 13,8 23,8 10,0 20,-2 31,-6l0 13c-6,2 -10,4 -15,5 -5,1 -10,1 -17,1z"/>
   <path class="fil24" d="M19250 27016c10,0 17,-3 22,-8 4,-6 6,-15 6,-27l0 -3c0,-14 -2,-24 -7,-30 -4,-6 -11,-9 -21,-9 -9,0 -15,4 -20,10 -5,7 -7,17 -7,29 0,13 2,22 7,28 4,7 11,10 20,10zm29 -3l-1 0c-6,10 -17,15 -30,15 -13,0 -22,-4 -29,-13 -7,-8 -11,-21 -11,-37 0,-16 4,-29 11,-38 7,-9 16,-13 29,-13 13,0 23,5 30,14l1 0 0 -7 -1 -7 0 -39 15 0 0 139 -12 0 -2 -14z"/>
   <path class="fil24" d="M19334 26978c0,12 2,22 7,28 5,7 12,10 22,10 9,0 17,-3 22,-10 5,-6 7,-16 7,-28 0,-13 -2,-22 -7,-29 -5,-6 -13,-9 -22,-9 -10,0 -17,3 -22,9 -5,6 -7,16 -7,29zm73 0c0,16 -4,28 -12,37 -8,9 -19,13 -33,13 -8,0 -16,-2 -23,-6 -6,-4 -11,-10 -15,-17 -4,-8 -5,-17 -5,-27 0,-16 3,-29 11,-38 8,-9 19,-13 33,-13 14,0 24,4 32,14 8,9 12,21 12,37z"/>
   <path class="fil24" d="M19582 27027l-17 0 -70 -110 -1 0c1,13 2,25 2,35l0 75 -14 0 0 -131 17 0 70 109 1 0c-1,-1 -1,-7 -1,-15 -1,-9 -1,-15 -1,-19l0 -75 14 0 0 131z"/>
   <path class="fil24" d="M19625 26978c0,12 3,22 8,28 5,7 12,10 21,10 10,0 17,-3 22,-10 5,-6 8,-16 8,-28 0,-13 -3,-22 -8,-29 -5,-6 -12,-9 -22,-9 -9,0 -17,3 -21,9 -5,6 -8,16 -8,29zm74 0c0,16 -4,28 -12,37 -8,9 -19,13 -33,13 -9,0 -16,-2 -23,-6 -7,-4 -12,-10 -15,-17 -4,-8 -6,-17 -6,-27 0,-16 4,-29 12,-38 8,-9 19,-13 33,-13 13,0 24,4 32,14 8,9 12,21 12,37z"/>
   <path class="fil24" d="M19768 26927c5,0 9,0 12,1l-2 14c-4,-1 -8,-2 -11,-2 -7,0 -14,4 -20,10 -5,6 -8,14 -8,24l0 53 -15 0 0 -98 12 0 2 18 1 0c3,-7 8,-11 13,-15 5,-3 10,-5 16,-5z"/>
   <path class="fil24" d="M19829 27016c3,0 5,0 8,0 2,-1 4,-1 5,-2l0 12c-1,1 -4,1 -7,2 -3,0 -5,0 -8,0 -19,0 -28,-10 -28,-30l0 -58 -14 0 0 -7 14 -6 6 -21 9 0 0 23 28 0 0 11 -28 0 0 58c0,6 1,10 4,13 3,4 6,5 11,5z"/>
   <path class="fil24" d="M19898 26939c-7,0 -14,3 -18,8 -5,5 -7,12 -8,21l50 0c0,-9 -2,-16 -6,-21 -4,-5 -10,-8 -18,-8zm4 89c-14,0 -25,-4 -33,-13 -9,-9 -13,-21 -13,-37 0,-15 4,-28 12,-37 7,-9 18,-14 31,-14 12,0 21,4 28,12 7,8 11,19 11,32l0 9 -67 0c1,12 4,21 9,27 5,5 13,8 23,8 10,0 21,-2 31,-6l0 13c-5,2 -10,4 -15,5 -5,1 -10,1 -17,1z"/>
  </g>
  <g>
   <path id="path3087" class="fil9" d="M8268 26780c-96,0 -129,18 -129,81 0,41 26,69 61,69 26,0 52,-14 72,-36l2 -114 -6 0 0 0zm-179 -277c51,-21 95,-31 144,-31 89,0 150,33 170,92 7,22 10,38 10,95l-4 177c0,3 0,6 0,9 0,57 10,79 50,109l-73 84c-32,-13 -61,-37 -75,-64 -10,11 -21,21 -32,28 -25,19 -63,29 -106,29 -117,0 -181,-60 -181,-165 0,-124 86,-182 253,-182 10,0 20,0 31,2l0 -22c0,-59 -11,-78 -62,-78 -44,0 -95,21 -152,59l-59 -99c28,-17 49,-27 86,-43l0 0zm-217 -117l0 411c0,91 2,103 10,117 5,10 16,15 28,15 5,0 8,0 15,-2l24 82c-24,9 -53,15 -83,15 -58,0 -106,-28 -122,-72 -11,-27 -13,-44 -13,-119l0 -394c0,-69 -2,-111 -7,-158l141 -32c6,28 7,63 7,137l0 0zm-286 0l0 411c0,91 1,103 9,117 6,10 17,15 28,15 5,0 8,0 16,-2l23 82c-23,9 -52,15 -82,15 -59,0 -106,-28 -123,-72 -10,-27 -12,-44 -12,-119l0 -394c0,-69 -2,-111 -7,-158l141 -32c5,28 7,63 7,137l0 0zm-251 85l0 540 -138 0 0 -518 138 -22zm16 -133c0,48 -38,86 -86,86 -46,0 -84,-38 -84,-86 0,-47 39,-85 87,-85 46,0 83,38 83,85l0 0zm-234 146l0 94 -233 337 242 0 -33 96 -388 0 0 -85 248 -345 -227 0 0 -97 391 0 0 0zm-753 145c-10,28 -15,65 -15,117 0,61 7,107 18,133 12,29 43,44 70,44 60,0 85,-54 85,-179 0,-71 -9,-117 -27,-141 -14,-17 -35,-28 -60,-28 -33,0 -60,21 -71,54l0 0zm248 -76c42,49 61,107 61,192 0,91 -21,153 -66,204 -40,46 -93,74 -174,74 -143,0 -237,-108 -237,-273 0,-166 95,-277 237,-277 75,0 134,26 179,80l0 0zm-1061 -79c9,15 13,27 18,54 36,-35 81,-54 129,-54 44,0 79,15 107,44 8,7 15,16 21,25 48,-49 92,-69 149,-69 42,0 81,13 105,33 29,26 39,57 39,129l0 375 -134 0 0 -348c0,-63 -8,-75 -43,-75 -26,0 -62,17 -92,44l0 379 -131 0 0 -343c0,-66 -9,-81 -48,-81 -25,0 -61,13 -90,40l0 384 -135 0 0 -368c0,-76 -5,-109 -20,-135l125 -34z"/>
  </g>
  <path class="fil7" d="M9568 26861c0,51 -26,77 -79,77l-263 0c-157,0 -235,-80 -235,-241l0 -361c0,-52 26,-79 78,-79l416 0c55,0 82,26 82,78 0,51 -27,77 -80,78l-339 0 0 105 235 -1c53,0 80,27 80,81 0,51 -26,76 -78,76l-237 1 0 26c0,53 27,80 80,80l263 1c51,0 77,26 77,79l0 0zm613 -526l-212 550c-13,32 -29,49 -49,51 -21,2 -40,1 -57,-2 -18,-3 -34,-19 -49,-49l-210 -551c0,-52 26,-78 79,-78 33,0 54,9 64,27 9,19 58,159 146,420 87,-261 136,-401 147,-419 11,-18 32,-27 64,-28 51,0 77,26 77,79l0 0zm281 -78l104 0c158,0 237,79 237,237l0 203c0,161 -79,241 -236,241l-107 0c-156,0 -234,-78 -234,-235l0 -209c0,-158 79,-237 236,-237l0 0zm-2 159c-51,0 -77,26 -77,78l0 206c0,54 26,81 77,81l106 0c53,0 80,-27 80,-81l0 -208c0,-51 -27,-76 -80,-76l-106 0 0 0zm514 -371c53,0 80,27 80,80l0 654c53,0 79,25 78,76 0,53 -26,80 -78,81l-79 1c-52,-1 -79,-27 -79,-79l0 -733c0,-53 26,-80 78,-80l0 0zm834 290l0 525c0,51 -26,77 -78,77l-263 0c-157,0 -236,-81 -236,-241l0 -362c0,-52 26,-78 79,-78 52,0 78,26 78,79l0 364c0,54 27,80 81,80l182 0 0 -444c0,-53 27,-79 80,-79 52,0 77,26 77,79l0 0z"/>
  <path class="fil25" d="M12444 26391l-405 515c-34,39 -71,42 -111,8 -38,-36 -40,-74 -5,-114l403 -513c36,-40 73,-43 113,-8 39,35 40,72 5,112l0 0zm-516 -112c40,-35 78,-32 113,8l404 513c34,40 33,78 -6,114 -39,34 -77,31 -111,-8l-404 -515c-36,-40 -34,-77 4,-112l0 0z"/>
  <path class="fil7" d="M9158 27076l0 29c-14,-12 -29,-18 -45,-18 -17,0 -32,6 -44,18 -11,12 -17,27 -17,45 0,17 6,32 17,43 12,12 27,18 44,18 9,0 17,-1 23,-4 3,-1 7,-3 11,-6 3,-2 7,-5 11,-9l0 30c-14,8 -29,13 -45,13 -24,0 -45,-9 -62,-25 -16,-17 -25,-37 -25,-60 0,-21 7,-40 21,-56 18,-20 40,-30 68,-30 15,0 29,4 43,12l0 0zm135 116l-72 0 -19 40 -27 0 83 -175 80 175 -27 0 -18 -40 0 0zm-10 -24l-25 -56 -26 56 51 0 0 0zm93 -101l0 141 49 0 0 24 -75 0 0 -165 26 0zm98 0l0 141 50 0 0 24 -75 0 0 -165 25 0zm279 9l0 29c-15,-12 -30,-18 -45,-18 -18,0 -32,6 -44,18 -12,12 -18,27 -18,45 0,17 6,32 18,43 12,12 27,18 44,18 9,0 16,-1 23,-4 3,-1 7,-3 10,-6 4,-2 8,-5 12,-9l0 30c-14,8 -30,13 -46,13 -23,0 -44,-9 -61,-25 -17,-17 -25,-37 -25,-60 0,-21 7,-40 21,-56 17,-20 40,-30 67,-30 16,0 30,4 44,12l0 0zm128 14l-67 0 0 40 65 0 0 23 -65 0 0 55 67 0 0 24 -93 0 0 -165 93 0 0 23 0 0zm29 142l0 -176 122 125 0 -114 25 0 0 175 -122 -126 0 116 -25 0 0 0zm236 -142l0 142 -25 0 0 -142 -39 0 0 -23 103 0 0 23 -39 0 0 0zm153 0l-67 0 0 40 65 0 0 23 -65 0 0 55 67 0 0 24 -92 0 0 -165 92 0 0 23zm89 71l52 71 -31 0 -48 -68 -5 0 0 68 -25 0 0 -165 29 0c23,0 39,4 48,12 11,9 17,21 17,36 0,12 -4,22 -10,30 -7,9 -16,14 -27,16l0 0zm-32 -18l8 0c24,0 36,-9 36,-27 0,-17 -12,-26 -35,-26l-9 0 0 53 0 0zm266 49l-72 0 -19 40 -27 0 83 -175 80 175 -28 0 -17 -40 0 0zm-10 -24l-25 -56 -26 56 51 0 0 0zm188 -92l0 29c-15,-12 -30,-18 -46,-18 -17,0 -32,6 -43,18 -12,12 -18,27 -18,45 0,17 6,32 18,43 11,12 26,18 43,18 9,0 17,-1 23,-4 3,-1 7,-3 11,-6 3,-2 7,-5 12,-9l0 30c-15,8 -30,13 -46,13 -24,0 -45,-9 -61,-25 -17,-17 -26,-37 -26,-60 0,-21 7,-40 21,-56 18,-20 40,-30 68,-30 15,0 29,4 44,12l0 0zm37 156l0 -165 36 0c17,0 30,2 40,5 10,3 20,9 28,16 18,16 26,36 26,61 0,26 -9,46 -27,62 -9,7 -18,13 -28,16 -10,3 -23,5 -40,5l-35 0 0 0zm26 -24l11 0c12,0 21,-1 29,-3 7,-3 14,-7 20,-12 12,-11 19,-26 19,-44 0,-18 -6,-32 -19,-44 -11,-10 -27,-15 -49,-15l-11 0 0 118 0 0zm268 -68l30 36 1 -1c3,-4 6,-7 9,-10 3,-4 6,-7 9,-11l16 17c-2,3 -5,6 -8,10 -3,4 -7,8 -12,13l31 38 -31 0 -17 -21c-15,16 -31,24 -48,24 -15,0 -27,-5 -38,-14 -10,-10 -15,-21 -15,-35 0,-16 8,-30 24,-41l11 -7c0,0 1,0 1,-1 0,0 1,0 2,-1 -11,-12 -17,-23 -17,-34 0,-11 4,-20 11,-27 8,-7 17,-11 29,-11 12,0 21,4 29,10 7,7 11,16 11,26 0,7 -2,14 -6,19 -4,6 -12,13 -22,21l0 0zm-20 14l-2 1c-10,7 -17,13 -21,17 -4,4 -5,9 -5,13 0,7 2,13 8,19 6,6 12,8 19,8 10,0 21,-6 34,-18l-33 -40 0 0zm5 -31l2 -2c4,-3 7,-5 9,-7 2,-2 4,-3 5,-5 2,-2 3,-6 3,-9 0,-5 -1,-8 -4,-11 -3,-3 -7,-4 -12,-4 -5,0 -9,1 -12,4 -3,3 -4,6 -4,10 0,5 2,10 6,15l6 7c0,0 1,1 1,2l0 0zm270 69l-72 0 -19 40 -27 0 83 -175 80 175 -28 0 -17 -40 0 0zm-10 -24l-25 -56 -26 56 51 0 0 0zm70 64l0 -176 122 125 0 -114 26 0 0 175 -123 -126 0 116 -25 0zm278 -40l-72 0 -19 40 -27 0 83 -175 80 175 -27 0 -18 -40 0 0zm-10 -24l-25 -56 -26 56 51 0 0 0zm95 -101l0 141 50 0 0 24 -75 0 0 -165 25 0zm93 93l-55 -93 30 0 38 66 38 -66 30 0 -55 93 0 72 -26 0 0 -72 0 0zm157 -70l0 142 -25 0 0 -142 -39 0 0 -23 102 0 0 23 -38 0zm86 -23l0 165 -25 0 0 -165 25 0 0 0zm165 9l0 29c-15,-12 -30,-18 -46,-18 -17,0 -32,6 -43,18 -12,12 -18,27 -18,45 0,17 6,32 18,43 12,12 26,18 43,18 9,0 17,-1 23,-4 4,-1 7,-3 11,-6 4,-2 8,-5 12,-9l0 30c-15,8 -30,13 -46,13 -24,0 -44,-9 -61,-25 -17,-17 -26,-37 -26,-60 0,-21 7,-40 22,-56 17,-20 39,-30 67,-30 15,0 30,4 44,12l0 0zm126 15l-20 12c-4,-6 -8,-10 -11,-12 -4,-3 -8,-4 -14,-4 -7,0 -13,2 -18,6 -4,4 -7,9 -7,15 0,8 7,14 19,19l16 7c14,5 24,12 30,19 7,8 10,18 10,29 0,15 -5,28 -16,38 -10,10 -23,15 -38,15 -15,0 -27,-5 -36,-13 -10,-9 -15,-21 -18,-36l26 -5c1,9 3,16 6,20 5,7 13,10 23,10 8,0 14,-2 19,-8 6,-5 8,-11 8,-19 0,-3 0,-6 -1,-9 -1,-3 -2,-5 -4,-7 -2,-3 -5,-5 -8,-7 -3,-2 -6,-4 -11,-5l-16 -7c-23,-9 -34,-23 -34,-42 0,-12 5,-22 14,-31 10,-8 22,-12 36,-12 20,0 35,9 45,27l0 0z"/>
  <g style="clip-path:url(#id0)">
   <image id="uolhost.png" x="12800" y="26219" width="4192" height="849" xlink:href="2616-A3-14e51897-8ff4-4340-84d9-82e1061434fe_Images\2616-A3-14e51897-8ff4-4340-84d9-82e1061434fe_ImgID1.png"/>
  </g>
 </g>
</svg>
