<?xml version="1.0" encoding="UTF-8"?>
<!DOCTYPE svg PUBLIC "-//W3C//DTD SVG 1.1//EN" "http://www.w3.org/Graphics/SVG/1.1/DTD/svg11.dtd">
<!-- Creator: CorelDRAW X7 -->
<svg xmlns="http://www.w3.org/2000/svg" xml:space="preserve" width="279.4mm" height="215.9mm" version="1.1" style="shape-rendering:geometricPrecision; text-rendering:geometricPrecision; image-rendering:optimizeQuality; fill-rule:evenodd; clip-rule:evenodd"
viewBox="0 0 27940 21590"
 xmlns:xlink="http://www.w3.org/1999/xlink">
 <defs>
  <style type="text/css">
   <![CDATA[
    .fil1 {fill:#5B3100}
    .fil4 {fill:#A56E0B}
    .fil6 {fill:#AD7808}
    .fil2 {fill:#C99705}
    .fil3 {fill:#CA9804}
    .fil5 {fill:#ECC963}
    .fil0 {fill:#FFCB08;fill-rule:nonzero}
   ]]>
  </style>
 </defs>
 <g id="Layer_x0020_1">
  <metadata id="CorelCorpID_0Corel-Layer"/>
  <g id="_328612088">
   <path class="fil0" d="M4769 15947l-247 -4293 1390 -93 803 1854 155 -1957 1297 156 -556 4333 -989 0 -741 -1019 62 1081 -1174 -62zm4170 155l-216 -278 -185 -1977 401 -371 1514 217 154 -1205 -309 -433 -587 0 -216 927 -957 -278 185 -1421 371 -154 2069 62 618 556 -402 3521 556 463 -617 586 -526 -400 -185 216 -1668 -31zm4386 -31l-216 -3089 -834 -31 0 -1454 3676 157 -155 1637 -1081 -31 -309 2780 -1081 31zm3398 31l-216 -278 -186 -1977 402 -371 1514 217 154 -1205 -309 -433 -587 0 -216 927 -958 -278 186 -1421 370 -154 2070 62 618 556 -402 3521 556 463 -618 586 -525 -400 -185 216 -1668 -31zm3676 -185l-278 -4201 1853 -31 -247 3150 1483 0 -217 1205 -2594 -123z"/>
   <polygon class="fil1" points="18038,15285 17336,15283 17230,15076 17133,14471 17349,14305 18197,14438 18238,15163 "/>
   <polygon class="fil1" points="10181,15285 9479,15283 9373,15076 9276,14471 9493,14305 10341,14438 10382,15163 "/>
   <path class="fil1" d="M23615 14378l-1199 20 1132 -2984 457 21 267 -603 182 -82c28,-291 18,-366 50,-645 2,-18 261,-186 255,-198 -74,-137 -194,-426 -202,-441 -5,-10 104,-118 104,-120 -449,-1116 -549,-1521 -1517,-1994 504,-428 569,-853 653,-1158 197,-719 -124,-896 -698,-612 -261,-466 -1313,-1071 -2420,-643 -110,-437 -322,-469 -453,-377 -922,603 -859,1216 -720,1852l-146 274c-1429,116 -2005,901 -2682,1715l-4544 -634 -8953 591 793 4355 42 4253c1419,33 2864,-376 4323,-404 1854,-37 3731,515 5607,506 332,-2 918,-444 1243,-378 308,63 981,179 1448,181 704,3 749,-258 1212,-307 1964,-209 3746,-71 5628,-71l138 -2117z"/>
   <path class="fil0" d="M4651 10738l-129 -1741 1328 -25 -129 1160 -696 39 0 129 180 -13 13 206 -180 0 -13 232 -374 13zm1547 -13l-155 -1651 980 -219 284 155 -65 1174 -141 90 296 310 -348 180 -206 -297 -271 13 13 245 -387 0zm516 -541l259 -91 25 -451 -65 -103 -374 39 -51 116 64 438 142 52zm1096 541l-129 -168 -103 -1598 219 -155 864 0 193 181 -77 1534 -142 180 -825 26zm321 -206l193 0 91 -52 38 -503 -65 -103 -308 0 -116 78 64 541 103 39zm1019 180l-103 -1792 581 -38 335 773 64 -816 542 65 -232 1808 -413 0 -309 -425 25 451 -490 -26zm2038 52l-91 -1289 -348 -13 0 -607 1534 65 -64 684 -451 -13 -129 1160 -451 13zm2475 -26l-65 -1160 697 -13 -116 1160 -516 13zm-116 -1869c32,-82 85,-147 159,-195 75,-49 156,-73 244,-73 30,0 57,2 80,7 24,4 52,14 84,29 82,32 147,85 195,159 48,74 73,155 73,243 0,31 -2,57 -7,81 -4,24 -14,52 -29,84 -32,82 -86,147 -161,195 -75,48 -156,72 -242,72 -30,0 -57,-2 -80,-6 -24,-4 -52,-14 -84,-29 -82,-32 -147,-86 -195,-161 -48,-75 -73,-156 -73,-242 0,-30 3,-57 7,-81 4,-23 14,-51 29,-83zm1109 1843l-104 -1792 581 -38 335 773 64 -816 542 65 -232 1808 -413 0 -309 -425 26 451 -490 -26z"/>
   <path class="fil2" d="M21956 8206c87,-333 -139,-407 -359,-282 -177,100 -394,473 -166,616 179,168 596,-48 525,-334zm-442 1045c-272,371 -2135,837 -2689,979 -520,133 -867,304 -565,-575 166,-484 406,-934 620,-1386 34,117 -173,1164 1333,507 344,-149 1245,-803 1437,-1073 135,-131 472,-395 576,-550 172,234 19,859 -100,1162 -148,374 -376,673 -612,936z"/>
   <path class="fil3" d="M23501 5778c-65,207 -909,1495 -1037,1580 -153,-421 53,-1276 669,-1662 80,-51 389,-213 515,-129 -50,67 -89,137 -147,211z"/>
   <path class="fil4" d="M21387 9365c431,-480 1118,-1480 839,-2212l73 -39c40,122 46,242 80,361 115,37 293,13 357,49 -154,667 -383,1001 -832,1443 -111,109 -397,337 -517,398z"/>
   <path class="fil4" d="M19508 5996c144,-191 188,-786 699,-1247 8,-8 54,-47 55,-49l17 -39c2,-7 3,-11 1,-15 171,-144 292,255 299,346 -487,484 -878,1033 -993,1345l-78 -341z"/>
   <path class="fil4" d="M23501 5778c58,-74 97,-144 147,-211 240,195 -72,1377 -602,1687 -93,55 -361,160 -519,122 166,-88 508,-432 642,-603 229,-291 360,-626 388,-1018l-56 23z"/>
   <path class="fil4" d="M18880 8269l63 -120c41,190 -78,657 441,694 736,51 1570,-603 2266,-1140 -500,704 -2899,2198 -2770,566z"/>
   <path class="fil1" d="M21504 8438c227,29 365,-184 374,-430 -108,80 -47,110 -173,278 -51,67 -136,134 -201,152zm452 -232c-123,271 -259,366 -525,334 -228,-143 -11,-516 166,-616 220,-125 446,-51 359,282z"/>
   <path class="fil3" d="M19508 5996c38,-340 26,-553 236,-874 150,-229 366,-431 536,-476 2,4 1,8 -1,15l-17 39c-1,2 -47,41 -55,49 -511,461 -575,1153 -699,1247z"/>
   <path class="fil4" d="M21416 8535c266,32 445,-97 548,-363 71,344 -361,536 -548,363z"/>
   <path class="fil0" d="M4769 15947l-247 -4293 1390 -93 803 1854 155 -1957 1297 156 -556 4333 -989 0 -741 -1019 62 1081 -1174 -62zm4170 155l-216 -278 -185 -1977 401 -371 1514 217 154 -1205 -309 -433 -587 0 -216 927 -957 -278 185 -1421 371 -154 2069 62 618 556 -402 3521 556 463 -617 586 -526 -400 -185 216 -1668 -31zm4386 -31l-216 -3089 -834 -31 0 -1454 3676 157 -155 1637 -1081 -31 -309 2780 -1081 31zm3398 31l-216 -278 -186 -1977 402 -371 1514 217 154 -1205 -309 -433 -587 0 -216 927 -958 -278 186 -1421 370 -154 2070 62 618 556 -402 3521 556 463 -618 586 -525 -400 -185 216 -1668 -31zm3676 -185l-278 -4201 1853 -31 -247 3150 1483 0 -217 1205 -2594 -123z"/>
   <path class="fil5" d="M22951 7507c-490,1313 -939,1549 -1763,2158 -393,291 1180,1273 1733,1350 170,24 209,-12 287,-94 738,-776 972,-1583 923,-2236 -1,-18 1,-37 -5,-53 -145,-416 -577,-914 -1111,-1162 -32,-15 -48,-4 -64,37z"/>
   <path class="fil5" d="M24300 10683c-343,142 -684,227 -1006,321 158,-157 295,-316 412,-475 238,-150 473,-278 645,-394l-51 548zm-1401 402l-21 2 5 -6 16 4z"/>
   <path class="fil5" d="M24158 9668c78,-78 183,-180 234,-211l150 383c14,35 -478,358 -715,513 150,-231 259,-461 331,-685z"/>
   <path class="fil5" d="M24446 9224c-59,78 -145,164 -234,247 52,-228 65,-447 43,-651 74,143 156,326 191,404z"/>
   <path class="fil5" d="M23906 11308l-626 -182c408,-97 431,-95 843,-234l-217 416z"/>
   <path class="fil5" d="M18950 7837c-308,482 -279,498 -587,1143 -195,406 -1198,487 -1519,125 -99,-111 -148,-362 -90,-451 625,-951 1341,-1737 2606,-1850 -141,266 -348,708 -410,1033z"/>
   <path class="fil5" d="M22287 6934c-854,886 -2155,1708 -2576,1771 -511,100 -724,-207 -644,-675 132,-779 774,-2156 1536,-2857 155,-143 236,-161 446,-209 625,-142 1555,81 1966,673 -488,359 -597,706 -728,1297z"/>
   <path class="fil3" d="M16621 9009c-300,1078 955,1375 1491,361 -334,142 -1302,278 -1491,-361z"/>
   <path class="fil4" d="M17408 10989c-21,-18 -13,-2 -34,-43 -15,-29 -13,-29 -22,-61 -73,-264 -85,-524 -108,-786l-214 -41c73,326 131,558 265,846 11,24 35,77 48,99l75 81 -10 -95z"/>
   <path class="fil2" d="M17408 10989c-62,-314 -45,-625 -40,-902l-124 12c23,262 35,522 108,786 9,32 7,32 22,61 21,41 13,25 34,43z"/>
   <path class="fil4" d="M16878 10530c2,-10 6,-476 5,-511l-146 -58c19,191 45,402 141,569z"/>
   <path class="fil6" d="M17527 10079c94,137 196,289 313,369l-116 -443 -197 74z"/>
   <polygon class="fil1" points="10181,15285 9479,15283 9373,15076 9276,14471 9493,14305 10341,14438 10382,15163 "/>
   <path class="fil2" d="M17520 14552c13,83 49,93 121,108 58,-44 49,-37 69,-89 -51,-95 -129,-130 -190,-19zm-45 26c47,-174 207,-181 289,-22 -12,67 -18,136 -113,153 -82,15 -136,-52 -176,-131z"/>
   <path class="fil2" d="M17916 14595c12,83 48,93 120,108 58,-44 49,-37 69,-89 -51,-95 -129,-130 -189,-19zm-46 26c47,-174 207,-181 289,-22 -12,67 -18,135 -113,153 -82,15 -136,-52 -176,-131z"/>
   <ellipse class="fil1" transform="matrix(1.88559 -1.05929 0.529647 0.942796 21332.7 9392.54)" rx="70" ry="74"/>
   <polygon class="fil1" points="21818,11658 21443,11658 21349,12047 "/>
   <polygon class="fil1" points="22188,11616 21876,11658 21882,12051 21838,12610 22188,12404 "/>
   <path class="fil3" d="M21148 10191c135,397 671,828 1186,922 90,17 177,26 268,30 59,3 70,1 128,-2 103,-4 83,6 97,25 -258,261 -1061,275 -1288,134 -265,-163 -487,-775 -440,-1165l49 56z"/>
   <path class="fil4" d="M22827 11166c-14,-19 6,-29 -97,-25 -58,3 -69,5 -128,2 -91,-4 -178,-13 -268,-30 -515,-94 -1051,-525 -1186,-922 115,79 211,204 330,299 364,290 916,587 1382,619l-33 57z"/>
   <path class="fil4" d="M21930 12393c24,-19 15,-3 38,-44 17,-29 14,-28 24,-60 80,-264 94,-503 119,-765l236 -8c-80,326 -144,504 -292,792 -13,24 -38,77 -53,98l-83 81 11 -94z"/>
   <path class="fil2" d="M21930 12393c69,-314 50,-597 45,-873l136 4c-25,262 -39,501 -119,765 -10,32 -7,31 -24,60 -23,41 -14,25 -38,44z"/>
   <path class="fil4" d="M22505 12014c-2,-10 -6,-497 -5,-532l161 -37c-21,191 -50,402 -156,569z"/>
   <path class="fil6" d="M21778 11501c-103,137 -195,271 -324,350l128 -405 196 55z"/>
   <polygon class="fil1" points="18055,15285 17352,15283 17247,15076 17150,14471 17366,14305 18214,14438 18255,15163 "/>
  </g>
 </g>
</svg>
