<?xml version="1.0" encoding="UTF-8"?>
<!DOCTYPE svg PUBLIC "-//W3C//DTD SVG 1.1//EN" "http://www.w3.org/Graphics/SVG/1.1/DTD/svg11.dtd">
<!-- Creator: CorelDRAW X8 -->
<svg xmlns="http://www.w3.org/2000/svg" xml:space="preserve" width="105mm" height="148mm" version="1.1" style="shape-rendering:geometricPrecision; text-rendering:geometricPrecision; image-rendering:optimizeQuality; fill-rule:evenodd; clip-rule:evenodd"
viewBox="0 0 10500 14800"
 xmlns:xlink="http://www.w3.org/1999/xlink">
 <defs>
  <style type="text/css">
   <![CDATA[
    .str0 {stroke:#373435;stroke-width:20}
    .str1 {stroke:#373435;stroke-width:7.62}
    .fil2 {fill:none}
    .fil1 {fill:#FEFEFE}
    .fil8 {fill:#373435}
    .fil23 {fill:black}
    .fil26 {fill:#59554C}
    .fil12 {fill:#5B3100}
    .fil25 {fill:#891D1B}
    .fil15 {fill:#A56E0B}
    .fil17 {fill:#AD7808}
    .fil13 {fill:#C99705}
    .fil14 {fill:#CA9804}
    .fil21 {fill:#D4B04B}
    .fil16 {fill:#ECC963}
    .fil10 {fill:#FED23E}
    .fil5 {fill:#FEFEFE}
    .fil27 {fill:#FF0101}
    .fil0 {fill:#FFAA01}
    .fil4 {fill:#FFD239}
    .fil6 {fill:#FFD33E}
    .fil28 {fill:#FEFEFE;fill-rule:nonzero}
    .fil3 {fill:#373435;fill-rule:nonzero}
    .fil19 {fill:#CA3538;fill-rule:nonzero}
    .fil20 {fill:#3A3430;fill-rule:nonzero}
    .fil18 {fill:#459C50;fill-rule:nonzero}
    .fil24 {fill:black;fill-rule:nonzero}
    .fil7 {fill:#FEFEFE;fill-rule:nonzero}
    .fil11 {fill:#FFCB08;fill-rule:nonzero}
    .fil9 {fill:#FFD33E;fill-rule:nonzero}
    .fil22 {fill:#0047BA;fill-rule:nonzero}
   ]]>
  </style>
   <clipPath id="id0">
    <rect x="7883" y="13580" width="1965" height="572"/>
   </clipPath>
 </defs>
 <g id="Camada_x0020_1">
  <metadata id="CorelCorpID_0Corel-Layer"/>
  <rect class="fil0" x="-756" y="11539" width="12012" height="3931"/>
  <rect class="fil1" x="-756" y="12656" width="12012" height="1734"/>
  <rect class="fil0" x="-756" y="-669" width="12012" height="9219"/>
  <rect class="fil2 str0" y="66" width="10500" height="14800"/>
  <path class="fil3" d="M7639 5216l215 0 0 -215 -215 0 0 215zm235 40l-275 0 0 -295 295 0 0 295 -20 0z"/>
  <polygon class="fil3" points="7605,5222 7860,4967 7888,4995 7633,5250 "/>
  <polygon class="fil3" points="7860,5250 7605,4995 7633,4967 7888,5222 "/>
  <path class="fil3" d="M8598 4357l0 -568 -753 0 0 552 133 0 0 40 -173 0c0,-210 0,-421 0,-632l833 0 0 608 -40 0z"/>
  <polygon class="fil4" points="8013,3950 7897,4089 7897,3837 8548,3837 8548,4157 8328,4157 8223,3997 8131,4098 "/>
  <path class="fil5" d="M8456 3971c0,-32 -26,-57 -58,-57 -31,0 -57,25 -57,57 0,32 26,58 57,58 32,0 58,-26 58,-58z"/>
  <path class="fil3" d="M8097 4677l393 0 0 -322 -393 0 0 322zm413 40l-453 0 0 -402 473 0 0 402 -20 0z"/>
  <polygon class="fil3" points="8063,4554 8176,4441 8308,4591 8404,4518 8516,4614 8490,4645 8403,4569 8302,4646 8174,4500 8092,4582 "/>
  <path class="fil3" d="M8347 4454c0,-8 -3,-16 -8,-21 -6,-5 -13,-9 -21,-9 -8,0 -16,4 -21,9l0 0c-5,5 -9,13 -9,21 0,8 4,15 9,21 5,5 13,8 21,8 8,0 15,-3 21,-8 5,-6 8,-13 8,-21zm20 -49c12,12 20,30 20,49 0,19 -8,36 -20,49l0 0c-13,12 -30,20 -49,20 -19,0 -37,-8 -49,-20 -13,-13 -21,-30 -21,-49 0,-19 8,-37 21,-49l0 0c12,-13 30,-21 49,-21 19,0 36,8 49,21z"/>
  <polygon class="fil4" points="6101,6409 5513,6409 5729,6106 5871,6305 5939,6212 "/>
  <path class="fil3" d="M5471 6581l667 0 0 -668 -667 0 0 668zm688 40l-728 0 0 -748 748 0 0 748 -20 0z"/>
  <path class="fil3" d="M5533 6389l548 0 0 -418 -548 0 0 418zm568 40l-608 0 0 -498 628 0 0 498 -20 0z"/>
  <polygon class="fil3" points="5917,6457 6097,6457 6097,6497 5917,6497 "/>
  <polygon class="fil3" points="6104,6553 5996,6553 5996,6513 6104,6513 "/>
  <path class="fil3" d="M5546 6508l0 40 -40 0 0 -40 40 0zm122 0l-2 0 0 40 2 0 0 -40zm-42 0l0 40 -40 0 0 -40 40 0z"/>
  <path class="fil6" d="M2167 6169c0,-80 -65,-144 -144,-144 -79,0 -144,64 -144,144 0,79 65,144 144,144 79,0 144,-65 144,-144z"/>
  <polygon class="fil3" points="2031,6239 1958,6165 2031,6092 2059,6120 2014,6165 2059,6210 "/>
  <path class="fil3" d="M2322 6356l377 0 0 -377 -377 0 0 377zm398 40l-438 0 0 -457 458 0 0 457 -20 0z"/>
  <polygon class="fil3" points="2288,6362 2705,5945 2734,5973 2316,6390 "/>
  <polygon class="fil3" points="2705,6390 2288,5973 2316,5945 2734,6362 "/>
  <polygon class="fil3" points="2289,6433 2592,6433 2592,6473 2289,6473 "/>
  <polygon class="fil3" points="2289,6499 2419,6499 2419,6539 2289,6539 "/>
  <path class="fil3" d="M2883 6356l378 0 0 -377 -378 0 0 377zm398 40l-438 0 0 -457 458 0 0 457 -20 0z"/>
  <polygon class="fil3" points="2849,6362 3266,5945 3295,5973 2877,6390 "/>
  <polygon class="fil3" points="3266,6390 2849,5973 2877,5945 3295,6362 "/>
  <polygon class="fil3" points="2850,6433 3153,6433 3153,6473 2850,6473 "/>
  <polygon class="fil3" points="2850,6499 2980,6499 2980,6539 2850,6539 "/>
  <path class="fil3" d="M3444 6356l378 0 0 -377 -378 0 0 377zm398 40l-438 0 0 -457 458 0 0 457 -20 0z"/>
  <polygon class="fil3" points="3410,6362 3827,5945 3856,5973 3438,6390 "/>
  <polygon class="fil3" points="3827,6390 3410,5973 3438,5945 3856,6362 "/>
  <polygon class="fil3" points="3411,6433 3714,6433 3714,6473 3411,6473 "/>
  <polygon class="fil3" points="3411,6499 3541,6499 3541,6539 3411,6539 "/>
  <path class="fil3" d="M4005 6356l378 0 0 -377 -378 0 0 377zm398 40l-438 0 0 -457 458 0 0 457 -20 0z"/>
  <polygon class="fil3" points="3971,6362 4389,5945 4417,5973 4000,6390 "/>
  <polygon class="fil3" points="4389,6390 3971,5973 4000,5945 4417,6362 "/>
  <polygon class="fil3" points="3972,6433 4275,6433 4275,6473 3972,6473 "/>
  <polygon class="fil3" points="3972,6499 4102,6499 4102,6539 3972,6539 "/>
  <path class="fil6" d="M4556 6168c0,79 64,144 143,144 79,1 144,-63 145,-142 0,-80 -64,-145 -143,-145 -79,-1 -144,63 -145,143z"/>
  <polygon class="fil3" points="4693,6099 4766,6173 4692,6245 4664,6217 4709,6172 4664,6127 "/>
  <path class="fil3" d="M6758 6147l707 0 0 -334 -707 0 0 334zm727 40l-767 0 0 -414 787 0 0 414 -20 0z"/>
  <path class="fil3" d="M6837 5846l0 40 -40 0 0 -40 40 0zm561 0l0 40 -40 0 0 -40 40 0zm-80 0l0 40 -40 0 0 -40 40 0zm-80 0l0 40 -40 0 0 -40 40 0zm-80 0l0 40 -40 0 0 -40 40 0zm-80 0l0 40 -40 0 0 -40 40 0zm-80 0l0 40 -40 0 0 -40 40 0zm-80 0l0 40 -41 0 0 -40 41 0z"/>
  <path class="fil3" d="M6837 5919l0 40 -40 0 0 -40 40 0zm561 0l0 40 -40 0 0 -40 40 0zm-80 0l0 40 -40 0 0 -40 40 0zm-80 0l0 40 -40 0 0 -40 40 0zm-80 0l0 40 -40 0 0 -40 40 0zm-80 0l0 40 -40 0 0 -40 40 0zm-80 0l0 40 -40 0 0 -40 40 0zm-80 0l0 40 -41 0 0 -40 41 0z"/>
  <path class="fil3" d="M6837 5999l0 40 -40 0 0 -40 40 0zm561 0l0 40 -40 0 0 -40 40 0zm-80 0l0 40 -40 0 0 -40 40 0zm-80 0l0 40 -40 0 0 -40 40 0zm-80 0l0 40 -40 0 0 -40 40 0zm-80 0l0 40 -40 0 0 -40 40 0zm-80 0l0 40 -40 0 0 -40 40 0zm-80 0l0 40 -41 0 0 -40 41 0z"/>
  <polygon class="fil3" points="6955,6070 7254,6070 7254,6110 6955,6110 "/>
  <polygon class="fil3" points="7285,6069 7337,6069 7337,6109 7285,6109 "/>
  <polygon class="fil3" points="7374,6069 7427,6069 7427,6109 7374,6109 "/>
  <polygon class="fil3" points="6876,6069 6929,6069 6929,6109 6876,6109 "/>
  <polygon class="fil3" points="6797,6069 6849,6069 6849,6109 6797,6109 "/>
  <polygon class="fil3" points="1684,4172 1578,4172 1578,4390 1795,4390 1795,4292 1835,4292 1835,4430 1538,4430 1538,4132 1684,4132 "/>
  <polygon class="fil3" points="1693,4246 1772,4167 1836,4130 1839,4222 1799,4222 1799,4196 1721,4274 "/>
  <polygon class="fil3" points="1819,4168 1749,4168 1749,4128 1837,4130 "/>
  <polygon class="fil5" points="1529,3281 1689,3281 1689,3121 1529,3121 "/>
  <path class="fil7" d="M1534 3276l150 0 0 -151 -150 0 0 151zm155 10l-165 0 0 -170 170 0 0 170 -5 0z"/>
  <path class="fil3" d="M1408 3316l1194 0 0 -443 -1194 0 0 443zm1214 40l-1254 0 0 -523 1274 0 0 523 -20 0z"/>
  <polygon class="fil3" points="1446,2897 1729,2897 1729,2937 1446,2937 "/>
  <polygon class="fil3" points="1388,2958 2622,2958 2622,2998 1388,2998 "/>
  <path class="fil3" d="M1479 3171l100 0 0 -100 -100 0 0 100zm120 40l-161 0 0 -180 181 0 0 180 -20 0z"/>
  <polygon class="fil8 str1" points="1749,3268 1968,3268 1968,3048 1749,3048 "/>
  <path class="fil3" d="M1769 3248l179 0 0 -180 -179 0 0 180zm199 40l-239 0 0 -260 259 0 0 260 -20 0z"/>
  <polygon class="fil6" points="2028,3268 2247,3268 2247,3048 2028,3048 "/>
  <path class="fil9" d="M2048 3248l179 0 0 -180 -179 0 0 180zm199 40l-240 0 0 -260 260 0 0 260 -20 0z"/>
  <polygon class="fil5" points="2306,3268 2526,3268 2526,3048 2306,3048 "/>
  <path class="fil7" d="M2326 3248l180 0 0 -180 -180 0 0 180zm200 40l-240 0 0 -260 260 0 0 260 -20 0z"/>
  <path class="fil6" d="M1970 5067l176 -8c43,-52 105,-127 101,-249 -2,-127 -106,-193 -190,-190 -161,1 -197,102 -190,201 15,75 25,149 103,246z"/>
  <path class="fil9" d="M1972 5062l171 -8c22,-25 47,-56 67,-95 20,-40 34,-89 32,-149l0 -3c-2,-60 -27,-106 -63,-137 -35,-31 -80,-46 -120,-46l-2 0c-7,0 -15,1 -22,1 -64,5 -106,27 -131,59 -25,32 -34,74 -33,117 0,6 0,13 0,19l4 17c13,68 27,137 97,225zm174 2l-178 8 -2 -2c-73,-91 -87,-161 -101,-232 -1,-4 -3,-12 -3,-17 -1,-6 -1,-13 -1,-20 0,-45 9,-88 36,-122 26,-34 70,-58 138,-63 7,-1 14,-1 22,-1l2 0c42,-1 90,15 127,48 37,32 64,80 65,144l1 3c2,62 -13,112 -33,153 -21,41 -48,73 -70,99l-1 2 -2 0z"/>
  <path class="fil3" d="M1867 5409l0 -279c-38,-40 -62,-97 -67,-158 -4,-39 -1,-81 11,-119 11,-39 31,-76 59,-107 39,-41 93,-70 165,-77 2,0 4,0 7,0 67,-1 143,18 203,64 61,46 106,118 108,224l0 1 95 164 -82 0 0 92 0 0c1,14 0,33 -7,48 -7,20 -22,35 -49,37l-1 0 -116 0 0 108 -40 0 0 -148 156 0c7,-1 11,-6 13,-11 4,-10 5,-23 4,-34l0 0 0 -132 53 0 -66 -113 0 -11c-2,-92 -40,-154 -92,-193 -52,-40 -120,-57 -179,-56l-4 0c-61,6 -106,30 -139,65 -24,25 -40,57 -50,90 -10,34 -13,70 -10,104 6,55 27,106 62,139l6 6 0 296 -40 0z"/>
  <polygon class="fil3" points="2031,5407 2031,5165 2071,5165 2071,5407 "/>
  <polygon class="fil3" points="1977,5146 2141,5146 2141,5187 1977,5187 "/>
  <polygon class="fil3" points="1933,5096 2187,5096 2187,5136 1933,5136 "/>
  <polygon class="fil3" points="2138,5116 2138,5063 2178,5063 2178,5116 "/>
  <polygon class="fil3" points="1928,5043 2188,5043 2188,5083 1928,5083 "/>
  <polygon class="fil3" points="1980,5067 1934,4823 2179,4823 2128,5067 2089,5059 2130,4863 1982,4863 2019,5060 "/>
  <path class="fil10" d="M9132 3155c0,0 13,-305 -324,-275 -110,-434 -547,-390 -587,-352 -279,-353 -981,-268 -1052,213 -307,14 -390,248 -387,410l2350 4z"/>
  <path class="fil3" d="M3831 3094c5,8 8,18 8,28l40 0c0,-18 -5,-33 -13,-49l-35 21zm4 48c-4,9 -10,17 -18,23l25 32c13,-10 24,-24 30,-40l-37 -15zm-45 34c-2,0 -4,0 -6,0 -7,0 -15,-1 -22,-4l-17 36c13,6 25,8 39,8 4,0 7,0 11,0l-5 -40zm-51 -23c-5,-8 -9,-18 -9,-27l-40 3c1,16 7,34 17,47l32 -23zm-4 -56c4,-8 11,-16 19,-21l-21 -34c-14,9 -26,23 -34,38l36 17zm47 -30l2 0c8,0 20,2 26,7l19 -36c-14,-7 -29,-11 -45,-11l-3 0 1 40z"/>
  <polygon class="fil3" points="4197,2727 4232,2727 4232,2767 4197,2767 "/>
  <polygon class="fil3" points="4283,2727 4542,2727 4542,2767 4283,2767 "/>
  <polygon class="fil3" points="4592,2726 5216,2726 5216,2766 4592,2766 "/>
  <polygon class="fil3" points="4427,2857 4723,2857 4723,2897 4427,2897 "/>
  <path class="fil11" d="M2915 5374l-56 -985 318 -21 185 425 35 -449 298 36 -128 994 -227 0 -170 -234 14 248 -269 -14zm957 35l-50 -64 -42 -453 92 -85 347 50 35 -277 -71 -99 -134 0 -50 213 -219 -64 42 -326 85 -35 475 14 141 127 -92 808 128 106 -142 134 -120 -91 -43 49 -382 -7zm1005 -7l-49 -708 -191 -7 0 -334 843 36 -36 375 -248 -7 -71 638 -248 7zm780 7l-50 -64 -42 -453 92 -85 347 50 35 -277 -71 -99 -134 0 -50 213 -219 -64 42 -326 85 -35 475 14 141 127 -92 808 128 106 -142 134 -120 -91 -43 49 -382 -7zm843 -42l-64 -964 425 -7 -57 723 340 0 -49 276 -595 -28z"/>
  <polygon class="fil12" points="5958,5222 5797,5221 5773,5174 5751,5035 5800,4997 5995,5027 6004,5194 "/>
  <polygon class="fil12" points="4157,5222 3995,5221 3971,5174 3949,5035 3999,4997 4193,5027 4202,5194 "/>
  <path class="fil12" d="M7237 5014l-275 4 260 -684 105 5 61 -138 42 -19c6,-67 4,-84 11,-148 1,-4 60,-43 59,-46 -17,-31 -45,-97 -47,-101 -1,-2 24,-27 24,-27 -103,-256 -126,-349 -348,-458 116,-98 131,-195 150,-265 45,-165 -28,-206 -160,-141 -60,-106 -301,-245 -555,-147 -25,-100 -74,-108 -104,-86 -211,138 -197,278 -165,424l-34 63c-327,27 -459,207 -615,393l-1042 -145 -2053 136 182 998 10 976c325,7 656,-86 991,-93 425,-8 856,118 1286,116 76,0 210,-102 285,-87 71,15 225,41 332,42 161,1 172,-59 278,-71 450,-47 859,-16 1291,-16l31 -485z"/>
  <path class="fil11" d="M2888 4179l-29 -399 304 -6 -29 266 -160 9 0 29 41 -3 3 48 -41 0 -3 53 -86 3zm355 -3l-35 -379 224 -50 65 36 -15 269 -32 21 68 71 -80 41 -47 -68 -62 3 3 56 -89 0zm118 -124l60 -21 5 -103 -14 -24 -86 9 -12 26 15 101 32 12zm252 124l-30 -38 -24 -367 51 -36 198 0 44 42 -18 352 -32 41 -189 6zm73 -47l45 0 20 -12 9 -115 -15 -24 -70 0 -27 18 15 124 23 9zm234 41l-24 -411 133 -9 77 178 15 -188 124 15 -53 415 -95 0 -70 -97 5 103 -112 -6zm467 12l-20 -296 -80 -3 0 -139 352 15 -15 157 -104 -3 -29 266 -104 3zm568 -6l-15 -266 160 -3 -27 266 -118 3zm-27 -429c8,-18 20,-33 37,-44 17,-12 35,-17 56,-17 7,0 13,0 18,1 6,1 12,4 19,7 19,7 34,20 45,37 11,17 17,35 17,55 0,7 -1,14 -2,19 -1,5 -3,12 -6,19 -8,19 -20,34 -37,45 -18,11 -36,17 -56,17 -7,0 -13,-1 -18,-2 -6,-1 -12,-3 -19,-7 -19,-7 -34,-19 -45,-37 -11,-17 -17,-35 -17,-55 0,-7 1,-13 2,-19 1,-5 3,-11 6,-19zm255 423l-24 -411 133 -9 77 178 15 -188 124 15 -53 415 -95 0 -71 -97 6 103 -112 -6z"/>
  <path class="fil13" d="M6857 3598c20,-76 -32,-93 -83,-64 -40,23 -90,108 -38,141 41,38 137,-11 121,-77zm-102 240c-62,85 -489,192 -616,224 -120,31 -199,70 -130,-131 38,-111 93,-215 142,-318 8,27 -39,267 306,116 79,-34 286,-184 330,-246 31,-30 108,-91 132,-126 39,53 4,197 -23,266 -34,86 -86,155 -141,215z"/>
  <path class="fil14" d="M7211 3041c-15,48 -208,343 -238,363 -35,-97 13,-293 154,-381 18,-12 89,-49 118,-30 -12,16 -21,31 -34,48z"/>
  <path class="fil15" d="M6726 3864c99,-110 257,-339 193,-507l17 -9c9,28 10,55 18,83 26,8 67,3 82,11 -36,153 -88,230 -191,331 -26,25 -91,77 -119,91z"/>
  <path class="fil15" d="M6295 3091c33,-43 43,-180 161,-286 2,-1 12,-10 12,-11l4 -9c1,-1 1,-2 0,-3 40,-33 67,58 69,79 -112,111 -201,237 -228,309l-18 -79z"/>
  <path class="fil15" d="M7211 3041c13,-17 22,-32 34,-48 55,45 -17,316 -138,387 -22,13 -83,37 -119,28 38,-20 116,-99 147,-138 52,-67 83,-144 89,-234l-13 5z"/>
  <path class="fil15" d="M6151 3613l15 -28c9,44 -18,151 101,159 169,12 360,-138 520,-261 -115,161 -665,504 -636,130z"/>
  <path class="fil12" d="M6753 3651c52,7 84,-42 86,-98 -25,18 -11,25 -40,64 -11,15 -31,30 -46,34zm104 -53c-28,62 -59,84 -121,77 -52,-33 -2,-118 38,-141 51,-29 103,-12 83,64z"/>
  <path class="fil14" d="M6295 3091c9,-78 6,-126 54,-200 35,-53 84,-99 123,-109 1,1 1,2 0,3l-4 9c0,1 -10,10 -12,11 -118,106 -132,265 -161,286z"/>
  <path class="fil15" d="M6733 3674c61,7 102,-23 126,-84 16,79 -83,123 -126,84z"/>
  <path class="fil11" d="M2915 5374l-56 -985 318 -21 185 425 35 -449 298 36 -128 994 -227 0 -170 -234 14 248 -269 -14zm957 35l-50 -64 -42 -453 92 -85 347 50 35 -277 -71 -99 -134 0 -50 213 -219 -64 42 -326 85 -35 475 14 141 127 -92 808 128 106 -142 134 -120 -91 -43 49 -382 -7zm1005 -7l-49 -708 -191 -7 0 -334 843 36 -36 375 -248 -7 -71 638 -248 7zm780 7l-50 -64 -42 -453 92 -85 347 50 35 -277 -71 -99 -134 0 -50 213 -219 -64 42 -326 85 -35 475 14 141 127 -92 808 128 106 -142 134 -120 -91 -43 49 -382 -7zm843 -42l-64 -964 425 -7 -57 723 340 0 -49 276 -595 -28z"/>
  <path class="fil16" d="M7085 3438c-112,301 -215,355 -404,495 -90,67 270,292 397,310 39,5 48,-3 66,-22 169,-178 223,-363 212,-513 -1,-4 0,-8 -2,-12 -33,-95 -132,-210 -254,-266 -8,-4 -11,-1 -15,8z"/>
  <path class="fil16" d="M7394 4166c-78,33 -157,52 -230,74 36,-36 67,-72 94,-109 55,-34 109,-64 148,-90l-12 125zm-321 93l-5 0 2 -1 3 1z"/>
  <path class="fil16" d="M7362 3934c18,-18 42,-42 53,-49l35 88c3,8 -110,82 -164,118 34,-53 59,-106 76,-157z"/>
  <path class="fil16" d="M7428 3832c-14,18 -33,37 -54,56 12,-52 15,-102 10,-149 17,33 36,75 44,93z"/>
  <path class="fil16" d="M7304 4310l-143 -42c93,-22 98,-22 193,-54l-50 96z"/>
  <path class="fil16" d="M6167 3514c-70,110 -64,114 -134,262 -45,93 -275,111 -349,28 -22,-25 -33,-83 -20,-103 143,-218 307,-398 597,-424 -32,61 -79,162 -94,237z"/>
  <path class="fil16" d="M6933 3307c-196,203 -494,391 -591,406 -117,23 -166,-48 -148,-155 30,-179 178,-495 353,-655 35,-33 54,-37 102,-48 143,-33 356,18 451,154 -112,82 -137,162 -167,298z"/>
  <path class="fil14" d="M5633 3782c-69,248 219,316 342,83 -76,33 -298,64 -342,-83z"/>
  <path class="fil15" d="M5814 4237c-5,-5 -3,-1 -8,-10 -4,-7 -3,-7 -5,-14 -17,-61 -20,-120 -25,-181l-49 -9c17,75 30,128 61,194 2,6 8,18 11,23l17 18 -2 -21z"/>
  <path class="fil13" d="M5814 4237c-15,-72 -11,-144 -9,-207l-29 2c5,61 8,120 25,181 2,7 1,7 5,14 5,9 3,5 8,10z"/>
  <path class="fil15" d="M5692 4131c1,-2 2,-109 1,-117l-33 -13c4,44 10,92 32,130z"/>
  <path class="fil17" d="M5841 4028c22,31 45,66 72,84l-27 -101 -45 17z"/>
  <polygon class="fil12" points="4157,5222 3995,5221 3971,5174 3949,5035 3999,4997 4193,5027 4202,5194 "/>
  <path class="fil13" d="M5840 5054c3,19 11,21 27,24 14,-10 11,-8 16,-20 -12,-22 -30,-30 -43,-4zm-11 6c11,-40 48,-42 66,-5 -2,15 -4,31 -26,35 -18,3 -31,-12 -40,-30z"/>
  <path class="fil13" d="M5930 5063c3,19 11,22 28,25 13,-10 11,-8 16,-20 -12,-22 -30,-30 -44,-5zm-10 6c11,-39 47,-41 66,-5 -3,16 -4,31 -26,35 -19,4 -31,-11 -40,-30z"/>
  <ellipse class="fil12" transform="matrix(0.43243 -0.242932 0.121466 0.216215 6713.87 3870.4)" rx="70" ry="74"/>
  <polygon class="fil12" points="6825,4390 6739,4390 6717,4479 "/>
  <polygon class="fil12" points="6910,4380 6838,4390 6840,4480 6830,4608 6910,4561 "/>
  <path class="fil14" d="M6671 4054c31,91 154,189 273,211 20,4 40,6 61,7 13,1 16,0 29,-1 24,0 19,2 23,6 -60,60 -244,63 -296,31 -61,-38 -111,-178 -101,-267l11 13z"/>
  <path class="fil15" d="M7057 4277c-4,-4 1,-6 -23,-6 -13,1 -16,2 -29,1 -21,-1 -41,-3 -61,-7 -119,-22 -242,-120 -273,-211 27,18 49,46 76,68 84,67 210,135 317,142l-7 13z"/>
  <path class="fil15" d="M6851 4558c5,-4 3,0 9,-9 3,-7 3,-7 5,-14 18,-61 22,-116 27,-176l54 -2c-18,75 -33,116 -67,182 -2,5 -8,18 -12,23l-19 18 3 -22z"/>
  <path class="fil13" d="M6851 4558c16,-72 11,-136 10,-200l31 1c-5,60 -9,115 -27,176 -2,7 -2,7 -5,14 -6,9 -4,5 -9,9z"/>
  <path class="fil15" d="M6983 4472c-1,-3 -2,-115 -2,-122l38 -9c-5,44 -12,92 -36,131z"/>
  <path class="fil17" d="M6816 4354c-24,31 -45,62 -74,80l29 -93 45 13z"/>
  <polygon class="fil12" points="5962,5222 5801,5221 5777,5174 5755,5035 5804,4997 5999,5027 6008,5194 "/>
  <path class="fil18" d="M8108 12989c0,6 -5,11 -11,11l-88 0c-6,0 -11,-5 -11,-11l0 -89c0,-6 5,-11 11,-11l88 0c6,0 11,5 11,11l0 89z"/>
  <path class="fil18" d="M8242 12989c0,6 -5,11 -11,11l-89 0c-6,0 -11,-5 -11,-11l0 -89c0,-6 5,-11 11,-11l89 0c6,0 11,5 11,11l0 89z"/>
  <path class="fil18" d="M8242 13254c0,6 -5,12 -11,12l-89 0c-6,0 -11,-6 -11,-12l0 -88c0,-6 5,-11 11,-11l89 0c6,0 11,5 11,11l0 88z"/>
  <path class="fil18" d="M7976 13121c0,6 -5,11 -11,11l-89 0c-6,0 -11,-5 -11,-11l0 -88c0,-7 5,-12 11,-12l89 0c6,0 11,5 11,12l0 88z"/>
  <path class="fil18" d="M8108 13121c0,6 -5,11 -11,11l-88 0c-6,0 -11,-5 -11,-11l0 -88c0,-7 5,-12 11,-12l88 0c6,0 11,5 11,12l0 88z"/>
  <path class="fil18" d="M7976 13254c0,6 -5,12 -11,12l-89 0c-6,0 -11,-6 -11,-12l0 -88c0,-6 5,-11 11,-11l89 0c6,0 11,5 11,11l0 88z"/>
  <path class="fil18" d="M8108 13254c0,6 -5,12 -11,12l-88 0c-6,0 -11,-6 -11,-12l0 -88c0,-6 5,-11 11,-11l88 0c6,0 11,5 11,11l0 88z"/>
  <path class="fil18" d="M7976 13388c0,6 -5,11 -11,11l-89 0c-6,0 -11,-5 -11,-11l0 -89c0,-6 5,-11 11,-11l89 0c6,0 11,5 11,11l0 89z"/>
  <path class="fil18" d="M8108 13388c0,6 -5,11 -11,11l-88 0c-6,0 -11,-5 -11,-11l0 -89c0,-6 5,-11 11,-11l88 0c6,0 11,5 11,11l0 89z"/>
  <path class="fil19" d="M7981 12945c0,33 -27,60 -60,60 -33,0 -61,-27 -61,-60 0,-34 28,-61 61,-61 33,0 60,27 60,61z"/>
  <polygon class="fil20" points="8325,13265 8348,13265 8348,13155 8325,13155 "/>
  <path class="fil20" d="M8474 13265l-30 0 -48 -83 0 0c1,15 1,25 1,31l0 52 -21 0 0 -110 30 0 48 83 0 0c-1,-15 -1,-25 -1,-31l0 -52 21 0 0 110z"/>
  <path class="fil20" d="M8567 13235c0,10 -4,17 -11,23 -7,6 -17,9 -30,9 -12,0 -22,-2 -31,-7l0 -22c7,4 14,6 19,7 5,2 10,3 14,3 5,0 9,-1 12,-3 2,-2 4,-5 4,-9 0,-2 -1,-4 -2,-6 -1,-2 -3,-3 -5,-5 -3,-1 -7,-4 -15,-7 -6,-3 -11,-6 -15,-9 -3,-3 -6,-7 -8,-10 -2,-4 -3,-9 -3,-14 0,-10 4,-17 10,-23 7,-6 16,-8 28,-8 5,0 11,0 16,2 5,1 11,3 16,5l-7 19c-6,-3 -11,-5 -15,-5 -4,-1 -8,-2 -11,-2 -5,0 -8,1 -10,3 -3,2 -4,5 -4,8 0,2 1,4 1,6 1,1 3,3 5,4 2,1 7,4 15,8 10,5 17,10 21,15 4,4 6,11 6,18z"/>
  <polygon class="fil20" points="8630,13265 8607,13265 8607,13175 8577,13175 8577,13155 8660,13155 8660,13175 8630,13175 "/>
  <polygon class="fil20" points="8677,13265 8700,13265 8700,13155 8677,13155 "/>
  <polygon class="fil20" points="8770,13265 8747,13265 8747,13175 8717,13175 8717,13155 8800,13155 8800,13175 8770,13175 "/>
  <path class="fil20" d="M8907 13155l0 71c0,9 -1,16 -5,22 -4,6 -9,11 -16,14 -7,3 -15,5 -24,5 -14,0 -25,-4 -33,-11 -8,-7 -12,-17 -12,-30l0 -71 23 0 0 68c0,8 2,14 5,18 4,4 10,6 17,6 8,0 14,-2 17,-6 3,-4 5,-10 5,-19l0 -67 23 0z"/>
  <polygon class="fil20" points="8977,13265 8953,13265 8953,13175 8923,13175 8923,13155 9006,13155 9006,13175 8977,13175 "/>
  <path class="fil20" d="M9044 13210c0,12 2,22 7,28 4,6 11,9 20,9 19,0 28,-12 28,-37 0,-25 -9,-37 -27,-37 -10,0 -17,3 -21,9 -5,7 -7,16 -7,28zm80 0c0,18 -5,32 -14,42 -9,10 -22,15 -39,15 -16,0 -29,-5 -38,-15 -9,-10 -14,-24 -14,-42 0,-18 5,-32 14,-42 9,-10 22,-14 39,-14 17,0 30,4 38,14 9,10 14,24 14,42z"/>
  <polygon class="fil20" points="9210,13265 9187,13265 9187,13155 9250,13155 9250,13174 9210,13174 9210,13203 9247,13203 9247,13222 9210,13222 "/>
  <polygon class="fil20" points="9336,13265 9272,13265 9272,13155 9336,13155 9336,13174 9296,13174 9296,13199 9333,13199 9333,13218 9296,13218 9296,13246 9336,13246 "/>
  <path class="fil20" d="M9426 13210c0,-24 -10,-36 -31,-36l-13 0 0 72 10 0c23,0 34,-12 34,-36zm24 -1c0,18 -5,32 -15,42 -10,9 -25,14 -45,14l-31 0 0 -110 35 0c18,0 31,5 41,14 10,10 15,23 15,40z"/>
  <polygon class="fil20" points="9537,13265 9473,13265 9473,13155 9537,13155 9537,13174 9497,13174 9497,13199 9534,13199 9534,13218 9497,13218 9497,13246 9537,13246 "/>
  <path class="fil20" d="M9583 13204l8 0c7,0 12,-1 16,-4 3,-2 5,-6 5,-11 0,-5 -2,-9 -5,-11 -4,-3 -9,-4 -17,-4l-7 0 0 30zm0 19l0 42 -23 0 0 -110 32 0c15,0 26,3 33,8 7,6 11,14 11,25 0,7 -2,12 -6,17 -3,6 -8,9 -15,12 17,25 28,41 33,48l-26 0 -27 -42 -12 0z"/>
  <path class="fil20" d="M9716 13220c-7,-24 -11,-38 -12,-41 -1,-3 -2,-5 -2,-7 -2,6 -6,22 -14,48l28 0zm14 45l-8 -26 -40 0 -8 26 -25 0 39 -110 28 0 39 110 -25 0z"/>
  <polygon class="fil20" points="9769,13265 9769,13155 9792,13155 9792,13246 9837,13246 9837,13265 "/>
  <path class="fil20" d="M8334 13356l13 0c7,0 12,-2 15,-4 3,-3 5,-7 5,-13 0,-5 -2,-9 -5,-12 -3,-2 -8,-3 -15,-3l-13 0 0 32zm0 8l0 34 -9 0 0 -83 22 0c10,0 18,2 23,6 4,4 7,10 7,18 0,11 -6,18 -17,22l23 37 -12 0 -20 -34 -17 0z"/>
  <path class="fil20" d="M8404 13398l-10 0 0 -62 10 0 0 62zm-10 -79c0,-2 0,-3 1,-4 1,-1 3,-2 4,-2 2,0 3,1 4,2 1,1 2,2 2,4 0,2 -1,4 -2,5 -1,1 -2,2 -4,2 -1,0 -3,-1 -4,-2 -1,-1 -1,-3 -1,-5z"/>
  <path class="fil20" d="M8430 13367c0,8 1,14 4,18 3,5 8,7 14,7 6,0 11,-2 14,-7 3,-4 5,-10 5,-18 0,-8 -2,-14 -5,-18 -3,-4 -8,-6 -14,-6 -6,0 -11,2 -14,6 -3,4 -4,10 -4,18zm46 0c0,10 -2,18 -7,24 -5,6 -12,9 -21,9 -6,0 -10,-2 -15,-4 -4,-3 -7,-7 -10,-12 -2,-4 -3,-10 -3,-17 0,-10 3,-18 8,-23 5,-6 11,-9 20,-9 9,0 16,3 21,9 5,6 7,13 7,23z"/>
  <path class="fil20" d="M8560 13355l28 0 0 40c-5,2 -9,3 -13,4 -5,0 -10,1 -16,1 -12,0 -22,-4 -29,-12 -7,-7 -10,-18 -10,-31 0,-9 1,-16 5,-23 3,-6 8,-11 15,-15 6,-3 13,-5 22,-5 9,0 17,2 25,5l-4 9c-8,-4 -15,-5 -22,-5 -9,0 -17,3 -23,9 -5,6 -8,14 -8,25 0,11 2,20 8,25 5,6 13,9 24,9 5,0 11,-1 16,-2l0 -25 -18 0 0 -9z"/>
  <path class="fil20" d="M8634 13335c3,0 5,0 7,1l-1 8c-2,0 -5,0 -7,0 -5,0 -9,2 -12,6 -4,4 -6,9 -6,15l0 33 -9 0 0 -62 8 0 1 12 0 0c2,-4 5,-7 8,-10 4,-2 7,-3 11,-3z"/>
  <path class="fil20" d="M8670 13392c5,0 10,-2 13,-5 4,-3 5,-8 5,-14l0 -5 -9 0c-7,1 -13,2 -16,4 -3,2 -5,5 -5,9 0,4 1,6 3,8 2,2 5,3 9,3zm21 6l-2 -8 -1 0c-3,4 -6,6 -9,8 -3,1 -7,2 -11,2 -6,0 -11,-2 -15,-5 -3,-3 -5,-8 -5,-14 0,-12 10,-19 30,-20l10 0 0 -4c0,-5 -1,-8 -3,-11 -2,-2 -5,-3 -10,-3 -5,0 -11,2 -17,5l-3 -7c3,-2 6,-3 10,-4 4,-1 7,-2 11,-2 7,0 13,2 16,5 4,3 5,9 5,16l0 42 -6 0z"/>
  <path class="fil20" d="M8759 13398l0 -40c0,-5 -1,-9 -4,-11 -2,-3 -6,-4 -10,-4 -7,0 -12,2 -15,5 -3,4 -4,10 -4,18l0 32 -9 0 0 -62 7 0 2 9 0 0c2,-3 5,-6 8,-7 4,-2 7,-3 12,-3 7,0 13,2 16,5 4,4 6,10 6,18l0 40 -9 0z"/>
  <path class="fil20" d="M8810 13392c7,0 11,-2 14,-6 3,-3 4,-9 4,-17l0 -1c0,-9 -1,-16 -4,-19 -3,-4 -8,-6 -14,-6 -5,0 -9,2 -12,6 -3,5 -5,11 -5,19 0,8 2,14 5,18 2,4 7,6 12,6zm19 -2l-1 0c-4,6 -10,10 -19,10 -8,0 -14,-3 -19,-9 -4,-5 -6,-13 -6,-23 0,-11 2,-19 6,-24 5,-6 11,-9 19,-9 8,0 15,3 19,9l1 0 0 -4 -1 -5 0 -25 10 0 0 88 -8 0 -1 -8z"/>
  <path class="fil20" d="M8881 13343c-5,0 -9,2 -12,5 -3,3 -5,8 -5,13l32 0c0,-6 -1,-10 -4,-13 -3,-3 -6,-5 -11,-5zm2 57c-9,0 -16,-3 -21,-9 -5,-5 -8,-13 -8,-23 0,-10 2,-18 7,-24 5,-6 12,-9 20,-9 8,0 14,3 18,8 5,5 7,12 7,20l0 6 -42 0c0,7 2,13 5,17 3,3 8,5 15,5 6,0 13,-1 19,-4l0 9c-3,1 -6,2 -9,3 -3,0 -7,1 -11,1z"/>
  <path class="fil20" d="M8975 13392c6,0 11,-2 13,-6 3,-3 5,-9 5,-17l0 -1c0,-9 -2,-16 -5,-19 -2,-4 -7,-6 -13,-6 -6,0 -10,2 -13,6 -3,5 -4,11 -4,19 0,8 1,14 4,18 3,4 7,6 13,6zm18 -2l0 0c-5,6 -11,10 -19,10 -9,0 -15,-3 -19,-9 -5,-5 -7,-13 -7,-23 0,-11 2,-19 7,-24 4,-6 11,-9 19,-9 8,0 14,3 19,9l0 0 0 -4 0 -5 0 -25 9 0 0 88 -7 0 -2 -8z"/>
  <path class="fil20" d="M9028 13367c0,8 2,14 5,18 3,5 7,7 14,7 6,0 10,-2 13,-7 4,-4 5,-10 5,-18 0,-8 -1,-14 -5,-18 -3,-4 -7,-6 -14,-6 -6,0 -10,2 -13,6 -3,4 -5,10 -5,18zm47 0c0,10 -3,18 -8,24 -5,6 -12,9 -21,9 -5,0 -10,-2 -14,-4 -5,-3 -8,-7 -10,-12 -2,-4 -4,-10 -4,-17 0,-10 3,-18 8,-23 5,-6 12,-9 21,-9 8,0 15,3 20,9 5,6 8,13 8,23z"/>
  <path class="fil20" d="M9186 13398l-11 0 -44 -69 -1 0c1,8 1,15 1,22l0 47 -9 0 0 -83 11 0 45 70 0 0c0,-1 0,-4 0,-10 -1,-6 -1,-10 -1,-12l0 -48 9 0 0 83z"/>
  <path class="fil20" d="M9214 13367c0,8 1,14 4,18 3,5 8,7 14,7 6,0 11,-2 14,-7 3,-4 5,-10 5,-18 0,-8 -2,-14 -5,-18 -3,-4 -8,-6 -14,-6 -6,0 -11,2 -14,6 -3,4 -4,10 -4,18zm46 0c0,10 -2,18 -7,24 -5,6 -12,9 -21,9 -6,0 -10,-2 -15,-4 -4,-3 -7,-7 -10,-12 -2,-4 -3,-10 -3,-17 0,-10 2,-18 7,-23 5,-6 12,-9 21,-9 9,0 16,3 21,9 5,6 7,13 7,23z"/>
  <path class="fil20" d="M9305 13335c2,0 5,0 7,1l-1 8c-3,0 -5,0 -7,0 -5,0 -9,2 -13,6 -3,4 -5,9 -5,15l0 33 -9 0 0 -62 7 0 1 12 1 0c2,-4 5,-7 8,-10 3,-2 7,-3 11,-3z"/>
  <path class="fil20" d="M9343 13392c2,0 4,0 5,-1 2,0 3,0 4,0l0 7c-1,0 -3,1 -5,1 -2,0 -3,1 -5,1 -12,0 -18,-7 -18,-19l0 -37 -9 0 0 -5 9 -4 4 -13 5 0 0 14 18 0 0 8 -18 0 0 36c0,4 1,7 3,9 2,2 4,3 7,3z"/>
  <path class="fil20" d="M9387 13343c-5,0 -8,2 -11,5 -3,3 -5,8 -6,13l33 0c0,-6 -2,-10 -4,-13 -3,-3 -7,-5 -12,-5zm3 57c-9,0 -16,-3 -22,-9 -5,-5 -7,-13 -7,-23 0,-10 2,-18 7,-24 5,-6 11,-9 19,-9 8,0 14,3 19,8 4,5 6,12 6,20l0 6 -42 0c0,7 2,13 6,17 3,3 8,5 14,5 7,0 13,-1 20,-4l0 9c-3,1 -7,2 -9,3 -3,0 -7,1 -11,1z"/>
  <path class="fil8" d="M2941 13669c0,31 -17,47 -50,47l-164 0c-98,0 -148,-48 -148,-144l0 -216c0,-32 17,-47 50,-47l260 0c34,-1 51,15 51,46 0,31 -17,46 -50,47l-212 0 0 62 147 0c33,0 50,16 50,48 0,31 -16,46 -49,46l-148 0 0 16c0,32 16,48 50,48l164 0c33,0 49,16 49,47l0 0zm383 -314l-132 329c-8,19 -19,29 -31,30 -13,1 -25,1 -36,-1 -11,-1 -21,-11 -30,-29l-132 -329c0,-32 17,-47 49,-47 21,0 34,5 40,16 6,11 37,95 92,251 55,-156 85,-240 92,-250 7,-11 20,-17 40,-17 32,0 48,15 48,47l0 0zm176 -46l65 0c99,0 148,47 148,141l0 122c0,96 -49,144 -147,144l-67 0c-98,0 -147,-47 -147,-141l0 -125c0,-94 49,-141 148,-141l0 0zm-1 94c-32,0 -49,16 -49,47l0 124c0,32 17,48 49,48l66 0c33,0 50,-16 50,-48l0 -125c0,-31 -17,-46 -50,-46l-66 0 0 0zm321 -221c33,0 50,16 50,48l0 390c34,0 50,16 49,46 0,32 -16,48 -49,48l-49 1c-33,0 -49,-16 -49,-47l0 -438c0,-32 16,-48 48,-48l0 0zm522 173l0 314c0,31 -16,46 -49,46l-164 0c-98,0 -148,-48 -148,-144l0 -216c0,-32 17,-47 50,-47 32,0 49,15 49,47l0 218c0,32 16,48 50,48l114 0 0 -266c0,-32 17,-47 50,-47 32,0 48,15 48,47l0 0z"/>
  <path class="fil21" d="M4740 13388l-253 309c-22,23 -45,24 -70,4 -24,-22 -25,-44 -3,-68l252 -307c23,-24 46,-25 71,-4 24,20 25,42 3,66l0 0zm-323 -66c25,-21 49,-20 71,4l252 307c22,24 21,46 -3,68 -25,20 -48,19 -70,-4l-253 -309c-22,-24 -21,-46 3,-66l0 0z"/>
  <path class="fil8" d="M2684 13798l0 18c-9,-8 -18,-11 -28,-11 -11,0 -20,3 -27,11 -8,7 -12,16 -12,26 0,11 4,19 12,26 7,7 16,11 27,11 6,0 10,-1 14,-3 2,0 5,-2 7,-3 2,-1 5,-3 7,-5l0 18c-9,5 -18,7 -28,7 -15,0 -28,-5 -39,-15 -10,-10 -15,-22 -15,-36 0,-12 4,-23 13,-33 11,-12 25,-18 42,-18 9,0 19,2 27,7l0 0zm84 69l-44 0 -12 24 -17 0 52 -104 50 104 -17 0 -12 -24 0 0zm-6 -14l-16 -33 -16 33 32 0 0 0zm58 -60l0 84 31 0 0 14 -47 0 0 -98 16 0zm62 0l0 84 31 0 0 14 -47 0 0 -98 16 0zm174 5l0 18c-9,-8 -18,-11 -28,-11 -11,0 -20,3 -27,11 -8,7 -11,16 -11,26 0,11 3,19 11,26 7,7 16,11 27,11 6,0 10,-1 14,-3 2,0 5,-2 7,-3 2,-1 5,-3 7,-5l0 18c-9,5 -18,7 -28,7 -15,0 -28,-5 -39,-15 -10,-10 -15,-22 -15,-36 0,-12 4,-23 13,-33 11,-12 25,-18 42,-18 10,0 19,2 27,7l0 0zm80 9l-42 0 0 23 41 0 0 14 -41 0 0 33 42 0 0 14 -57 0 0 -98 57 0 0 14 0 0zm18 84l0 -105 77 75 0 -68 16 0 0 104 -77 -75 0 69 -16 0 0 0zm148 -84l0 84 -16 0 0 -84 -24 0 0 -14 64 0 0 14 -24 0 0 0zm96 0l-42 0 0 23 41 0 0 14 -41 0 0 33 42 0 0 14 -58 0 0 -98 58 0 0 14zm55 42l33 42 -19 0 -30 -40 -3 0 0 40 -16 0 0 -98 18 0c14,0 24,2 30,7 7,6 11,13 11,22 0,7 -2,13 -7,18 -4,5 -10,8 -17,9l0 0zm-19 -11l5 0c15,0 22,-5 22,-16 0,-10 -7,-15 -22,-15l-5 0 0 31 0 0zm166 29l-45 0 -12 24 -17 0 52 -104 50 104 -17 0 -11 -24 0 0zm-6 -14l-16 -33 -16 33 32 0 0 0zm117 -55l0 18c-9,-8 -18,-11 -28,-11 -11,0 -20,3 -28,11 -7,7 -11,16 -11,26 0,11 4,19 11,26 8,7 17,11 28,11 5,0 10,-1 14,-3 2,0 4,-2 7,-3 2,-1 5,-3 7,-5l0 18c-9,5 -18,7 -28,7 -15,0 -28,-5 -39,-15 -10,-10 -16,-22 -16,-36 0,-12 5,-23 14,-33 10,-12 25,-18 42,-18 9,0 18,2 27,7l0 0zm24 93l0 -98 22 0c11,0 19,1 25,3 7,2 13,5 18,9 11,10 16,22 16,37 0,15 -6,27 -17,37 -5,4 -11,8 -18,9 -5,2 -14,3 -24,3l-22 0 0 0zm16 -14l7 0c7,0 13,0 18,-2 4,-1 9,-4 12,-7 8,-7 12,-15 12,-26 0,-11 -4,-20 -11,-26 -7,-6 -18,-9 -31,-9l-7 0 0 70 0 0zm167 -41l19 22 1 -1c2,-2 4,-4 6,-6 2,-2 3,-4 5,-6l10 10c-1,2 -3,4 -5,6 -2,2 -4,5 -7,8l19 22 -19 0 -11 -12c-9,9 -19,14 -30,14 -9,0 -17,-3 -23,-8 -7,-6 -10,-13 -10,-21 0,-10 5,-18 15,-25l7 -4c0,0 0,0 0,0 1,0 1,-1 1,-1 -6,-7 -10,-14 -10,-20 0,-7 2,-12 7,-17 5,-4 11,-6 18,-6 7,0 13,2 18,6 5,4 7,9 7,16 0,4 -1,8 -4,11 -2,4 -7,8 -14,12l0 0zm-12 9l-1 0c-6,5 -11,8 -13,10 -3,3 -4,6 -4,9 0,4 2,7 6,11 3,3 7,5 11,5 7,0 14,-4 22,-12l-21 -23 0 0zm3 -19l2 -1c2,-1 4,-3 5,-4 2,-1 3,-2 3,-3 2,-2 2,-3 2,-6 0,-2 -1,-4 -3,-6 -1,-2 -4,-3 -7,-3 -3,0 -5,1 -7,3 -2,2 -3,4 -3,6 0,3 1,6 4,9l3 4c1,0 1,1 1,1l0 0zm169 41l-45 0 -12 24 -17 0 52 -104 50 104 -17 0 -11 -24 0 0zm-6 -14l-16 -33 -16 33 32 0 0 0zm44 38l0 -105 76 75 0 -68 16 0 0 104 -76 -75 0 69 -16 0zm174 -24l-45 0 -12 24 -17 0 52 -104 50 104 -17 0 -11 -24 0 0zm-7 -14l-15 -33 -17 33 32 0 0 0zm60 -60l0 84 31 0 0 14 -47 0 0 -98 16 0zm58 56l-34 -56 18 0 24 39 24 -39 18 0 -34 56 0 42 -16 0 0 -42 0 0zm98 -42l0 84 -16 0 0 -84 -24 0 0 -14 64 0 0 14 -24 0zm54 -14l0 98 -16 0 0 -98 16 0 0 0zm103 5l0 18c-9,-8 -19,-11 -28,-11 -11,0 -20,3 -28,11 -7,7 -11,16 -11,26 0,11 4,19 11,26 8,7 17,11 28,11 5,0 10,-1 14,-3 2,0 4,-2 7,-3 2,-1 4,-3 7,-5l0 18c-9,5 -19,7 -28,7 -15,0 -28,-5 -39,-15 -10,-10 -16,-22 -16,-36 0,-12 5,-23 14,-33 10,-12 24,-18 42,-18 9,0 18,2 27,7l0 0zm79 9l-12 8c-3,-4 -5,-7 -7,-8 -3,-1 -5,-2 -9,-2 -4,0 -8,1 -11,3 -3,3 -4,6 -4,9 0,5 3,9 11,12l10 4c9,3 15,7 19,11 4,5 6,11 6,18 0,9 -3,16 -10,22 -6,6 -14,9 -24,9 -9,0 -16,-3 -22,-8 -6,-5 -10,-12 -11,-21l16 -3c1,5 2,9 4,12 3,4 8,6 14,6 5,0 9,-2 12,-5 4,-3 5,-7 5,-11 0,-2 0,-4 -1,-6 0,-1 -1,-3 -2,-4 -2,-1 -3,-3 -5,-4 -2,-1 -4,-2 -7,-3l-10 -4c-14,-6 -21,-14 -21,-25 0,-7 3,-14 9,-19 6,-5 13,-7 22,-7 12,0 22,5 28,16l0 0z"/>
  <path class="fil22" d="M989 13280l119 402 118 -402 321 0 0 40 -121 208c43,14 75,39 96,74 22,36 33,79 33,127 0,60 -16,110 -48,151 -31,41 -73,61 -123,61 -38,0 -72,-12 -100,-36 -28,-24 -49,-57 -63,-98l67 -28c10,25 23,45 39,59 16,14 35,22 57,22 23,0 42,-13 58,-39 15,-25 23,-56 23,-92 0,-40 -8,-70 -25,-92 -20,-26 -50,-39 -92,-39l-33 0 0 -39 114 -197 -138 0 -7 13 -168 566 -8 0 -123 -410 -122 410 -8 0 -196 -661 85 0 119 402 80 -271 -39 -131 85 0z"/>
  <path class="fil23" d="M1992 13315c12,0 18,3 18,12 0,8 -6,11 -18,11l-11 0 0 -23 11 0zm2 -9l-27 0 0 71 14 0 0 -31 13 0 14 31 15 0 -15 -33c10,-2 16,-9 16,-19 0,-13 -10,-19 -30,-19zm53 37c0,14 -6,28 -16,38 -11,10 -24,16 -39,16 -14,0 -27,-6 -38,-16 -10,-11 -16,-24 -16,-39 0,-14 6,-28 17,-38 10,-10 23,-16 38,-16 15,0 28,6 38,16 10,10 16,24 16,39zm-55 -63c-16,0 -31,6 -43,18 -12,12 -19,28 -19,44 0,17 7,32 18,44 12,12 28,19 44,19 17,0 33,-7 45,-19 12,-11 18,-26 18,-44 0,-16 -7,-32 -18,-43 -12,-13 -28,-19 -45,-19z"/>
  <path class="fil24" d="M1887 13276l14 85 -49 94c0,0 -19,-40 -50,-62 -27,-19 -44,-23 -71,-17 -34,7 -73,48 -90,99 -21,61 -21,90 -22,118 -1,43 6,69 6,69 0,0 -30,-56 -30,-136 0,-58 10,-110 36,-162 24,-45 59,-73 90,-76 32,-3 57,12 77,29 20,17 41,56 41,56l48 -97z"/>
  <path class="fil24" d="M1893 13754c0,0 -21,39 -35,54 -13,15 -38,41 -68,54 -29,13 -45,16 -75,13 -29,-3 -57,-20 -66,-27 -10,-7 -34,-28 -48,-48 -14,-19 -36,-59 -36,-59 0,0 12,40 20,56 4,10 17,39 36,65 18,24 53,65 105,74 52,9 88,-14 97,-20 9,-6 28,-21 40,-34 12,-13 24,-30 30,-40 5,-8 13,-23 13,-23l-13 -65z"/>
  <path class="fil25" d="M5673 13773c-3,0 -6,-1 -8,-4 -3,-2 -4,-5 -4,-9l0 -456c0,-9 4,-13 12,-13 9,0 13,4 13,13l0 456c0,4 -1,7 -4,9 -2,3 -5,4 -9,4z"/>
  <path class="fil25" d="M7188 13527c15,7 29,16 40,28 12,11 21,25 27,40 7,16 10,33 10,50 0,12 -1,23 -5,34 -3,11 -8,22 -14,32l2 0c-4,6 -9,12 -14,18 -6,5 -11,11 -17,16 -1,0 -3,2 -5,3l-10 6c-1,1 -2,2 -3,2 -1,1 -3,2 -4,2 -19,10 -43,14 -61,14l-110 0c-31,0 -64,-9 -88,-28l1 0c-10,-10 -19,-21 -27,-34 -8,-12 -13,-26 -16,-40 -1,-6 2,-10 7,-13 4,0 7,0 10,2 4,1 6,3 7,5l0 -1c5,25 17,45 36,60 19,16 45,24 70,24l110 0c10,0 25,-2 36,-7 10,-4 20,-11 29,-18 9,-8 16,-17 23,-27 6,-10 11,-20 14,-31 1,-2 1,-5 2,-9 1,-5 1,-8 1,-10 0,-14 -3,-27 -8,-39 -5,-12 -12,-23 -22,-33 -9,-9 -20,-16 -32,-22 -13,-6 -30,-8 -43,-8l-110 0c-19,0 -40,-4 -56,-10 -15,-7 -28,-16 -39,-27 -12,-11 -20,-25 -27,-40 -7,-15 -10,-32 -10,-50 0,-18 3,-34 10,-49 7,-15 15,-28 27,-39 11,-12 24,-20 39,-27 16,-7 37,-10 56,-10l110 0c30,0 61,9 85,27 9,10 18,22 27,35 9,14 14,27 16,39 2,6 -1,10 -6,13 -4,0 -7,-1 -11,-2 -4,-2 -7,-4 -9,-6 -4,-10 -8,-20 -15,-30 -6,-9 -14,-18 -23,-26 -9,-7 -18,-13 -29,-18 -10,-5 -25,-7 -35,-7l-110 0c-15,0 -33,3 -46,8 -12,5 -22,12 -31,22 -10,9 -17,19 -22,31 -5,13 -8,25 -8,39 0,29 10,53 29,73 19,19 48,28 78,28l110 0c17,0 38,4 54,10z"/>
  <path class="fil25" d="M5520 13346c0,-3 -1,-6 -4,-8 -18,-15 -37,-26 -59,-33 -22,-8 -44,-12 -66,-12 -36,0 -69,9 -99,27 -5,3 -11,7 -16,10 -1,1 -1,2 -2,2 -2,2 -4,3 -6,4 -1,1 -2,2 -3,3 -5,5 -11,10 -16,15 -1,2 -2,3 -4,4 -1,1 -1,2 -2,3 -13,15 -24,32 -32,51 -9,20 -14,42 -15,65l0 1 0 10 0 90 0 178 0 2c0,3 1,6 4,8 2,3 5,4 9,4 3,0 6,-1 9,-4 1,-1 2,-2 2,-3 2,-2 2,-5 2,-7l0 -178 0 -90c0,-23 5,-45 13,-66 9,-20 21,-38 37,-54 15,-15 33,-27 54,-36 20,-8 42,-13 65,-13 41,0 77,13 108,39 3,2 6,3 9,3 4,0 7,-2 10,-5 2,-3 3,-6 2,-10z"/>
  <path class="fil25" d="M6208 13412c-10,-23 -24,-44 -41,-62 -18,-17 -39,-31 -63,-41 -23,-10 -47,-15 -74,-16l0 0c0,0 -1,0 -1,0 0,0 -1,0 -1,0l0 0c-27,1 -51,6 -74,16 -24,10 -45,24 -63,41 -17,18 -31,39 -42,62 -10,24 -15,49 -15,76l0 270c0,4 2,7 4,9 2,2 5,4 9,4 3,0 6,-2 9,-4 2,-2 3,-5 3,-9l0 -270c0,-23 5,-45 14,-66 9,-20 21,-38 37,-53 15,-16 33,-28 54,-36 20,-9 42,-13 65,-13 23,0 45,4 65,13 21,8 39,20 54,36 16,15 28,33 37,53 9,21 14,43 14,66l0 270c0,4 1,7 3,9 3,2 6,4 9,4 4,0 7,-2 9,-4 2,-2 4,-5 4,-9l0 -270c0,-27 -5,-52 -16,-76z"/>
  <path class="fil26" d="M6746 13652c-11,23 -24,44 -42,62 -18,17 -39,31 -63,41 -23,10 -47,15 -73,16l-1 0c0,0 0,0 -1,0 0,0 -1,0 -1,0l0 0c-26,-1 -51,-6 -74,-16 -24,-10 -45,-24 -62,-41 -18,-18 -32,-39 -42,-62 -10,-24 -16,-49 -16,-76l0 -270c0,-4 2,-7 4,-9 3,-2 6,-4 9,-4 4,0 7,2 9,4 2,2 4,5 4,9l0 270c0,23 4,45 13,66 9,20 22,38 37,53 15,16 33,28 54,36 20,9 42,13 65,13 23,0 45,-4 65,-13 21,-8 39,-20 54,-36 16,-15 28,-33 37,-53 9,-21 14,-43 14,-66l0 -270c0,-4 1,-7 3,-9 3,-2 6,-4 9,-4 4,0 7,2 9,4 3,2 4,5 4,9l0 270c0,27 -5,52 -15,76z"/>
  <path class="fil26" d="M6400 13868c-3,0 -8,-1 -8,4 0,2 2,3 4,4l38 18c10,4 15,10 15,21 0,15 -11,23 -25,23l-24 0c-8,0 -13,-1 -19,-5 -2,-2 -7,-5 -7,-9 0,-4 4,-7 8,-7 3,0 4,0 6,2 3,3 8,4 12,4l21 0c5,0 13,0 13,-9 0,-4 -5,-6 -8,-7l-36 -17c-8,-4 -13,-8 -13,-18 0,-12 9,-20 21,-20l25 0c9,0 12,1 18,6 3,2 6,4 6,8 0,4 -4,8 -8,8 -2,0 -4,-1 -6,-3 -3,-3 -5,-3 -9,-3l-24 0 0 0z"/>
  <path class="fil26" d="M6498 13881c0,-10 2,-14 10,-20 7,-6 11,-9 21,-9l12 0c11,0 14,3 22,9 7,6 9,10 9,20l0 28c0,10 -2,14 -10,21 -8,7 -11,8 -21,8l-12 0c-9,0 -13,-1 -21,-8 -7,-7 -10,-11 -10,-21l0 -28 0 0zm15 28c0,4 1,6 6,9 3,3 5,5 10,5l12 0c5,0 7,-2 11,-5 4,-3 5,-5 5,-9l0 -28c0,-3 -1,-5 -5,-9 -4,-3 -6,-4 -11,-4l-12 0c-5,0 -7,1 -10,4 -5,4 -6,6 -6,9l0 28z"/>
  <path class="fil26" d="M6648 13923l11 0c5,0 10,1 10,7 0,7 -6,8 -10,8l-39 0c-4,0 -10,-1 -10,-8 0,-6 5,-7 10,-7l12 0 0 -87 -12 0c-4,0 -10,-1 -10,-7 0,-7 5,-8 10,-8l16 0c9,0 12,2 12,11l0 91z"/>
  <path class="fil26" d="M6791 13927c0,3 1,11 -7,11 -7,0 -8,-6 -8,-11l0 -2 -12 8c-5,3 -9,5 -14,5l-11 0c-4,0 -9,-1 -14,-6 -7,-6 -7,-12 -7,-20l-1 -48c-1,-6 0,-12 7,-12 7,0 7,6 8,11l1 47c0,3 0,7 2,9 1,3 5,4 9,4l5 0c1,0 3,-1 4,-2l23 -14 0 -44c0,-5 1,-11 7,-11 7,0 8,6 8,11l0 64 0 0z"/>
  <path class="fil26" d="M6866 13909c0,9 0,14 10,14l8 0c6,0 9,-1 10,-7 1,-4 4,-6 8,-6 4,0 8,3 8,7 0,5 -3,10 -5,13 -6,7 -13,8 -21,8l-8 0c-8,0 -14,-2 -20,-8 -6,-6 -5,-13 -5,-21l0 -41 -5 0c-5,0 -11,-1 -11,-8 0,-6 6,-8 11,-8l5 0 0 -15c0,-5 1,-11 7,-11 7,0 8,6 8,11l0 15 25 0c5,0 11,2 11,8 0,7 -6,8 -11,8l-25 0 0 41z"/>
  <path class="fil26" d="M6990 13923l11 0c5,0 11,1 11,7 0,7 -6,8 -11,8l-39 0c-4,0 -10,-1 -10,-8 0,-6 5,-7 10,-7l13 0 0 -55 -13 0c-4,0 -10,-1 -10,-8 0,-6 5,-8 10,-8l16 0c9,0 12,2 12,11l0 60zm-23 -101c0,-6 3,-7 7,-7l9 0c4,0 7,1 7,7l0 7c0,5 -3,7 -7,7l-9 0c-4,0 -7,-2 -7,-7l0 -7z"/>
  <path class="fil26" d="M7049 13881c0,-10 2,-14 10,-20 7,-6 11,-9 21,-9l12 0c11,0 14,3 22,9 7,6 9,10 9,20l0 28c0,10 -2,14 -10,21 -8,7 -11,8 -21,8l-12 0c-9,0 -13,-1 -21,-8 -7,-7 -10,-11 -10,-21l0 -28 0 0zm15 28c0,4 1,6 6,9 3,3 5,5 10,5l12 0c5,0 7,-2 11,-5 4,-3 5,-5 5,-9l0 -28c0,-3 -1,-5 -5,-9 -4,-3 -6,-4 -11,-4l-12 0c-5,0 -7,1 -10,4 -5,4 -6,6 -6,9l0 28z"/>
  <path class="fil26" d="M7183 13883l0 44c0,6 -1,11 -8,11 -6,0 -7,-5 -7,-11l0 -63c0,-6 0,-12 7,-12 7,0 8,6 8,11l0 2 0 1 12 -9c4,-2 9,-5 13,-5l12 0c6,0 9,2 14,6 7,6 6,12 7,20l1 48c0,6 0,12 -7,12 -6,0 -8,-5 -8,-11l-1 -46c-1,-10 -1,-13 -11,-13l-5 0c-1,0 -3,0 -5,1l-22 14z"/>
  <path class="fil26" d="M7308 13868c-3,0 -9,-1 -9,4 0,2 2,3 4,4l38 18c10,4 15,10 15,21 0,15 -10,23 -25,23l-23 0c-8,0 -14,-1 -19,-5 -3,-2 -7,-5 -7,-9 0,-4 3,-7 8,-7 2,0 4,0 6,2 2,3 7,4 12,4l20 0c6,0 13,0 13,-9 0,-4 -4,-6 -8,-7l-36 -17c-8,-4 -13,-8 -13,-18 0,-12 10,-20 21,-20l26 0c8,0 12,1 17,6 3,2 6,4 6,8 0,4 -3,8 -7,8 -3,0 -5,-1 -7,-3 -2,-3 -5,-3 -9,-3l-23 0 0 0z"/>
  <path class="fil26" d="M7330 13759c0,-3 1,-6 4,-8 2,-3 5,-4 9,-4l2 0c8,0 13,4 13,12 0,9 -5,13 -13,13l-2 0c-4,0 -7,-1 -9,-4 -3,-2 -4,-5 -4,-9z"/>
  <path class="fil25" d="M6014 13387c0,-4 2,-7 4,-9 2,-3 5,-4 9,-4l55 0c9,0 13,4 13,13 0,8 -4,12 -13,12l-55 0c-4,0 -7,-1 -9,-3 -2,-3 -4,-6 -4,-9z"/>
  <path class="fil26" d="M5963 13387c0,-4 1,-7 4,-9 2,-3 5,-4 9,-4l2 0c8,0 12,4 12,13 0,8 -4,12 -12,12l-2 0c-4,0 -7,-1 -9,-3 -3,-3 -4,-6 -4,-9z"/>
  <g style="clip-path:url(#id0)">
   <image id="logo-estacio-horizontal.png" x="7883" y="13580" width="1965" height="572" xlink:href="crachá_Images\crachá_ImgID1.png"/>
  </g>
  <rect class="fil27" x="-11" y="11539" width="10500" height="1124"/>
  <path class="fil28" d="M3085 12181l0 166 -99 0 0 -471 188 0c28,0 53,4 76,12 22,7 41,18 56,32 16,14 28,31 36,50 8,19 12,39 12,62 0,23 -4,43 -12,62 -8,18 -20,34 -36,47 -15,13 -34,23 -56,30 -23,7 -48,10 -76,10l-89 0zm0 -79l89 0c14,0 26,-1 36,-5 10,-3 19,-8 25,-14 7,-6 11,-14 15,-22 3,-9 4,-18 4,-28 0,-11 -1,-20 -4,-30 -4,-9 -8,-17 -15,-25 -6,-7 -15,-13 -25,-17 -10,-4 -22,-6 -36,-6l-89 0 0 147zm550 148l-174 0 -33 97 -105 0 179 -471 91 0 180 471 -105 0 -33 -97zm-147 -79l120 0 -60 -176 -60 176zm429 98l210 0 0 78 -309 0 0 -471 99 0 0 393zm556 -126l-190 0 0 126 223 0 0 78 -322 0 0 -471 321 0 0 79 -222 0 0 112 190 0 0 76zm340 80c0,-8 -1,-15 -3,-22 -3,-6 -7,-12 -14,-18 -7,-6 -17,-11 -29,-17 -12,-5 -28,-11 -47,-17 -23,-7 -43,-14 -63,-23 -19,-9 -36,-19 -51,-31 -14,-11 -26,-25 -34,-40 -9,-15 -13,-33 -13,-54 0,-19 4,-37 13,-54 9,-16 21,-30 36,-41 16,-12 35,-21 57,-27 21,-6 45,-9 71,-9 27,0 51,3 73,10 21,8 40,18 55,31 16,13 28,28 36,46 8,17 13,37 13,58l-99 0c0,-10 -2,-19 -5,-27 -3,-9 -8,-16 -15,-22 -7,-6 -15,-11 -25,-14 -10,-4 -21,-5 -35,-5 -13,0 -24,1 -33,4 -10,3 -18,7 -24,12 -6,5 -11,10 -14,17 -4,7 -5,14 -5,21 0,16 8,29 24,39 16,11 40,21 71,30 26,8 49,17 69,26 20,10 37,21 50,33 13,13 23,26 30,42 7,15 11,32 11,52 0,20 -5,39 -13,55 -8,16 -20,30 -35,41 -15,11 -34,20 -55,26 -21,6 -45,9 -72,9 -16,0 -31,-2 -47,-5 -16,-2 -31,-6 -46,-12 -14,-6 -27,-13 -40,-21 -12,-8 -23,-18 -32,-30 -9,-11 -16,-24 -21,-39 -5,-14 -8,-30 -8,-48l99 0c0,14 3,26 7,36 5,10 11,18 20,24 8,6 18,11 29,14 12,2 25,4 39,4 13,0 24,-2 34,-4 9,-3 17,-7 23,-11 6,-5 11,-11 14,-17 3,-7 4,-14 4,-22zm528 -268l-147 0 0 392 -99 0 0 -392 -145 0 0 -79 391 0 0 79zm234 220l-78 0 0 172 -99 0 0 -471 178 0c28,0 53,3 75,9 22,6 40,15 55,27 16,12 27,27 35,45 9,18 13,38 13,61 0,18 -2,33 -6,47 -4,13 -10,26 -18,36 -7,11 -16,20 -27,28 -10,8 -22,15 -35,21l104 193 0 4 -106 0 -91 -172zm-78 -79l79 0c13,0 25,-2 35,-5 9,-3 17,-8 24,-14 6,-6 11,-14 15,-22 3,-9 5,-18 5,-29 0,-22 -7,-40 -20,-52 -13,-13 -32,-19 -59,-19l-79 0 0 141zm603 154l-174 0 -33 97 -105 0 179 -471 92 0 180 471 -106 0 -33 -97zm-147 -79l120 0 -60 -176 -60 176zm721 176l-99 0 -193 -310 0 310 -99 0 0 -471 99 0 194 311 0 -311 98 0 0 471zm439 -392l-148 0 0 392 -99 0 0 -392 -145 0 0 -79 392 0 0 79zm345 188l-190 0 0 126 223 0 0 78 -322 0 0 -471 321 0 0 79 -222 0 0 112 190 0 0 76z"/>
  <rect class="fil1" x="-756" y="8550" width="12012" height="3000"/>
 </g>
</svg>
